<?xml version="1.0" encoding="utf-8"?>
<!-- Generator: Adobe Illustrator 16.0.0, SVG Export Plug-In . SVG Version: 6.00 Build 0)  -->
<!DOCTYPE svg PUBLIC "-//W3C//DTD SVG 1.1 Basic//EN" "http://www.w3.org/Graphics/SVG/1.1/DTD/svg11-basic.dtd">
<svg version="1.1" baseProfile="basic" id="Capa_1" xmlns="http://www.w3.org/2000/svg" xmlns:xlink="http://www.w3.org/1999/xlink"
	 x="0px" y="0px" width="500px" height="500px" viewBox="0 0 500 500" xml:space="preserve">
<g>
	<g>
		<path fill="#8BBE6B" d="M0.961,173.061h37.037v5.649H22.543v38.75h-6.379v-38.75H0.961V173.061z"/>
		<path fill="#8BBE6B" d="M74.844,173.123h6.379v25.167c0,3.406-0.249,5.978-0.746,7.712c-0.497,1.736-1.11,3.181-1.84,4.333
			c-0.73,1.152-1.624,2.184-2.683,3.094c-3.512,3.025-8.103,4.539-13.772,4.539c-5.776,0-10.409-1.503-13.901-4.508
			c-1.059-0.93-1.951-1.973-2.683-3.125c-0.729-1.152-1.331-2.565-1.809-4.237c-0.475-1.67-0.714-4.294-0.714-7.87v-25.104h6.379
			v25.167c0,4.169,0.477,7.067,1.429,8.697c0.952,1.628,2.401,2.936,4.348,3.919c1.946,0.982,4.242,1.475,6.887,1.475
			c3.766,0,6.834-0.983,9.204-2.95c1.248-1.059,2.146-2.308,2.697-3.745c0.551-1.438,0.825-3.904,0.825-7.396V173.123z"/>
		<path fill="#8BBE6B" d="M107.725,217.46v-44.399h14.058c4.232,0,7.607,1.142,10.125,3.427s3.776,5.353,3.776,9.203
			c0,2.582-0.645,4.867-1.936,6.856c-1.29,1.988-3.059,3.432-5.299,4.331c-2.243,0.9-5.46,1.35-9.649,1.35h-4.696v19.232H107.725z
			 M120.672,178.71h-6.568v13.868h6.95c2.581,0,4.57-0.608,5.966-1.825c1.396-1.216,2.096-2.956,2.096-5.221
			C129.115,180.983,126.3,178.71,120.672,178.71z"/>
		<path fill="#8BBE6B" d="M141.206,173.123h25.137v5.649h-18.789v13.52h18.153v5.682h-18.153v13.773h19.391v5.65h-25.738V173.123z"
			/>
		<path fill="#8BBE6B" d="M173.769,217.397v-44.274h14.947c6.031,0,10.801,0.903,14.314,2.714c3.512,1.809,6.305,4.47,8.378,7.981
			c2.074,3.513,3.11,7.342,3.11,11.488c0,2.963-0.57,5.799-1.714,8.506c-1.142,2.709-2.771,5.09-4.888,7.142
			c-2.158,2.115-4.664,3.712-7.522,4.791c-1.67,0.657-3.204,1.096-4.602,1.318c-1.396,0.221-4.063,0.334-7.997,0.334H173.769z
			 M188.05,178.772h-7.934v32.975h8.125c3.173,0,5.637-0.217,7.394-0.651c1.757-0.433,3.223-0.983,4.396-1.65
			c1.175-0.666,2.248-1.485,3.223-2.458c3.13-3.175,4.695-7.184,4.695-12.028c0-4.761-1.607-8.645-4.822-11.647
			c-1.187-1.121-2.545-2.042-4.079-2.763c-1.534-0.718-2.989-1.194-4.364-1.427C193.307,178.889,191.098,178.772,188.05,178.772z"/>
		<path fill="#8BBE6B" d="M222.517,173.123h6.347v44.337h-6.347V173.123z"/>
		<path fill="#8BBE6B" d="M238.766,217.397v-44.274h14.947c6.03,0,10.8,0.903,14.313,2.714c3.512,1.809,6.305,4.47,8.379,7.981
			c2.073,3.513,3.109,7.342,3.109,11.488c0,2.963-0.57,5.799-1.714,8.506c-1.142,2.709-2.771,5.09-4.888,7.142
			c-2.158,2.115-4.664,3.712-7.522,4.791c-1.67,0.657-3.204,1.096-4.602,1.318c-1.396,0.221-4.063,0.334-7.997,0.334H238.766z
			 M253.046,178.772h-7.933v32.975h8.124c3.173,0,5.637-0.217,7.394-0.651c1.757-0.433,3.223-0.983,4.396-1.65
			c1.175-0.666,2.248-1.485,3.223-2.458c3.131-3.175,4.695-7.184,4.695-12.028c0-4.761-1.607-8.645-4.822-11.647
			c-1.187-1.121-2.545-2.042-4.079-2.763c-1.534-0.718-2.988-1.194-4.364-1.427C258.304,178.889,256.094,178.772,253.046,178.772z"
			/>
		<path fill="#8BBE6B" d="M309.205,172.489c6.851,0,12.555,2.167,17.11,6.506c4.558,4.337,6.836,9.774,6.836,16.312
			c0,6.539-2.3,11.949-6.898,16.234c-4.6,4.283-10.396,6.427-17.396,6.427c-6.681,0-12.247-2.144-16.698-6.427
			c-4.45-4.285-6.675-9.653-6.675-16.107c0-6.622,2.241-12.102,6.723-16.438C296.688,174.656,302.354,172.489,309.205,172.489z
			 M309.459,178.519c-5.073,0-9.242,1.587-12.509,4.76c-3.265,3.175-4.898,7.226-4.898,12.155c0,4.782,1.639,8.76,4.915,11.933
			c3.275,3.175,7.377,4.763,12.303,4.763c4.946,0,9.073-1.619,12.382-4.856c3.308-3.237,4.963-7.269,4.963-12.093
			c0-4.695-1.655-8.647-4.963-11.854C318.343,180.122,314.278,178.519,309.459,178.519z"/>
		<path fill="#8BBE6B" d="M359.015,173.123h25.136v5.649h-18.788v13.52h18.153v5.682h-18.153v13.773h19.391v5.65h-25.738V173.123z"
			/>
		<path fill="#8BBE6B" d="M402.495,198.883l-4.822-2.93c-3.027-1.849-5.181-3.666-6.46-5.454c-1.28-1.788-1.919-3.846-1.919-6.173
			c0-3.491,1.21-6.325,3.633-8.506c2.424-2.179,5.57-3.269,9.441-3.269c3.703,0,7.099,1.04,10.188,3.117v7.206
			c-3.194-3.073-6.633-4.611-10.315-4.611c-2.073,0-3.776,0.481-5.108,1.44c-1.333,0.958-2,2.186-2,3.681
			c0,1.328,0.49,2.573,1.474,3.731c0.981,1.16,2.56,2.377,4.736,3.651l4.849,2.869c5.406,3.229,8.111,7.342,8.111,12.334
			c0,3.554-1.191,6.443-3.57,8.664c-2.381,2.223-5.475,3.333-9.283,3.333c-4.381,0-8.369-1.346-11.966-4.038v-8.063
			c3.427,4.345,7.396,6.514,11.901,6.514c1.989,0,3.645-0.553,4.967-1.659s1.983-2.493,1.983-4.158
			C408.335,203.864,406.389,201.305,402.495,198.883z"/>
		<path fill="#8BBE6B" d="M417.507,173.061h37.037v5.649h-15.455v38.75h-6.379v-38.75h-15.203V173.061z"/>
		<path fill="#8BBE6B" d="M474.699,172.868h4.46l19.881,44.592h-6.497l-5.909-13.14h-18.916l-5.541,13.14h-6.522L474.699,172.868z
			 M484.024,198.671l-7.154-16.06l-6.633,16.06H484.024z M484.503,160.334l-7.173,9.521h-3.554l4.285-9.521H484.503z"/>
	</g>
	<g>
		<path fill="#8BBE6B" d="M5.17,223.063h6.907v41.969h21.728v6.286H5.17V223.063z"/>
		<path fill="#8BBE6B" d="M39.919,223.063h6.909v48.255h-6.909V223.063z"/>
		<path fill="#8BBE6B" d="M69.487,251.1l-5.25-3.189c-3.295-2.011-5.637-3.988-7.029-5.936c-1.394-1.946-2.09-4.186-2.09-6.719
			c0-3.799,1.316-6.886,3.955-9.258c2.636-2.371,6.063-3.558,10.275-3.558c4.029,0,7.726,1.131,11.088,3.395v7.841
			c-3.477-3.345-7.219-5.017-11.226-5.017c-2.258,0-4.11,0.521-5.562,1.565s-2.177,2.379-2.177,4.007
			c0,1.445,0.534,2.799,1.604,4.061c1.067,1.264,2.786,2.587,5.154,3.974l5.277,3.123c5.885,3.516,8.828,7.99,8.828,13.427
			c0,3.867-1.295,7.01-3.886,9.43c-2.591,2.418-5.959,3.626-10.104,3.626c-4.768,0-9.107-1.464-13.022-4.396v-8.772
			c3.73,4.727,8.049,7.089,12.955,7.089c2.163,0,3.966-0.602,5.404-1.808c1.44-1.204,2.16-2.713,2.16-4.526
			C75.844,256.521,73.725,253.734,69.487,251.1z"/>
		<path fill="#8BBE6B" d="M85.828,222.993h40.31v6.148h-16.821v42.177h-6.942v-42.177H85.828V222.993z"/>
		<path fill="#8BBE6B" d="M151.753,222.373c7.454,0,13.663,2.36,18.622,7.08c4.959,4.722,7.439,10.64,7.439,17.755
			c0,7.116-2.504,13.005-7.509,17.669c-5.006,4.663-11.316,6.994-18.935,6.994c-7.271,0-13.33-2.331-18.173-6.994
			c-4.846-4.664-7.267-10.507-7.267-17.53c0-7.208,2.438-13.172,7.317-17.894C138.128,224.733,144.295,222.373,151.753,222.373z
			 M152.028,228.936c-5.522,0-10.06,1.728-13.615,5.18c-3.554,3.455-5.331,7.865-5.331,13.231c0,5.204,1.782,9.533,5.35,12.987
			c3.564,3.455,8.028,5.183,13.389,5.183c5.383,0,9.876-1.763,13.477-5.285c3.602-3.524,5.4-7.911,5.4-13.161
			c0-5.112-1.799-9.413-5.4-12.901C161.696,230.68,157.273,228.936,152.028,228.936z"/>
		<path fill="#8BBE6B" d="M205.584,271.318v-48.325h15.303c4.605,0,8.279,1.245,11.02,3.73c2.739,2.488,4.109,5.827,4.109,10.018
			c0,2.811-0.701,5.296-2.106,7.462c-1.405,2.164-3.327,3.736-5.768,4.714c-2.441,0.979-5.942,1.47-10.502,1.47h-5.111v20.932
			H205.584z M219.679,229.142h-7.15v15.097h7.564c2.809,0,4.974-0.663,6.493-1.987c1.521-1.324,2.279-3.217,2.279-5.683
			C228.865,231.618,225.804,229.142,219.679,229.142z"/>
		<path fill="#8BBE6B" d="M251.771,222.787h4.856l21.635,48.531h-7.069l-6.432-14.301h-20.588l-6.031,14.301h-7.099L251.771,222.787
			z M261.922,250.869l-7.786-17.479l-7.22,17.479H261.922z"/>
		<path fill="#8BBE6B" d="M283.754,271.318v-48.255h12.091c4.882,0,8.757,1.208,11.624,3.626c2.867,2.417,4.3,5.688,4.3,9.811
			c0,2.811-0.702,5.239-2.106,7.289c-1.405,2.049-3.42,3.579-6.046,4.594c1.543,1.014,3.051,2.395,4.526,4.146
			c1.473,1.749,3.545,4.801,6.217,9.152c1.681,2.742,3.027,4.803,4.042,6.184l2.556,3.454h-8.222l-2.104-3.18
			c-0.069-0.114-0.208-0.31-0.414-0.588l-1.346-1.9l-2.139-3.524l-2.311-3.768c-1.428-1.981-2.732-3.56-3.921-4.73
			c-1.188-1.173-2.259-2.019-3.217-2.536c-0.956-0.516-2.565-0.775-4.823-0.775h-1.799v21.002H283.754z M292.735,228.936h-2.072
			v15.232h2.626c3.499,0,5.9-0.298,7.202-0.898c1.3-0.599,2.313-1.503,3.038-2.711c0.726-1.21,1.089-2.585,1.089-4.128
			c0-1.52-0.403-2.896-1.208-4.127c-0.807-1.232-1.941-2.102-3.403-2.609C298.545,229.188,296.121,228.936,292.735,228.936z"/>
		<path fill="#8BBE6B" d="M341.685,222.787h4.856l21.635,48.531h-7.069l-6.432-14.301h-20.588l-6.031,14.301h-7.099L341.685,222.787
			z M351.835,250.869l-7.786-17.479l-7.22,17.479H351.835z"/>
		<path fill="#8BBE6B" d="M405.067,251.1l-5.25-3.189c-3.294-2.011-5.637-3.988-7.028-5.936c-1.395-1.946-2.09-4.186-2.09-6.719
			c0-3.799,1.316-6.886,3.955-9.258c2.635-2.371,6.063-3.558,10.275-3.558c4.029,0,7.725,1.131,11.088,3.395v7.841
			c-3.478-3.345-7.219-5.017-11.226-5.017c-2.258,0-4.11,0.521-5.562,1.565s-2.177,2.379-2.177,4.007
			c0,1.445,0.534,2.799,1.604,4.061c1.067,1.264,2.786,2.587,5.153,3.974l5.278,3.123c5.885,3.516,8.828,7.99,8.828,13.427
			c0,3.867-1.295,7.01-3.886,9.43c-2.591,2.418-5.959,3.626-10.104,3.626c-4.768,0-9.107-1.464-13.022-4.396v-8.772
			c3.73,4.727,8.049,7.089,12.955,7.089c2.163,0,3.966-0.602,5.404-1.808c1.439-1.204,2.16-2.713,2.16-4.526
			C411.425,256.521,409.305,253.734,405.067,251.1z"/>
		<path fill="#8BBE6B" d="M425.52,223.063h27.356v6.148h-20.449v14.715h19.759v6.182h-19.759v14.993h21.106v6.147H425.52V223.063z"
			/>
		<path fill="#8BBE6B" d="M461.097,271.318v-48.255h12.091c4.882,0,8.756,1.208,11.623,3.626c2.867,2.417,4.3,5.688,4.3,9.811
			c0,2.811-0.701,5.239-2.106,7.289c-1.405,2.049-3.42,3.579-6.046,4.594c1.543,1.014,3.052,2.395,4.526,4.146
			c1.474,1.749,3.545,4.801,6.217,9.152c1.682,2.742,3.027,4.803,4.042,6.184l2.556,3.454h-8.222l-2.103-3.18
			c-0.07-0.114-0.208-0.31-0.415-0.588l-1.346-1.9l-2.138-3.524l-2.312-3.768c-1.427-1.981-2.732-3.56-3.92-4.73
			c-1.188-1.173-2.26-2.019-3.218-2.536c-0.955-0.516-2.564-0.775-4.822-0.775h-1.799v21.002H461.097z M470.077,228.936h-2.071
			v15.232h2.625c3.499,0,5.9-0.298,7.202-0.898c1.301-0.599,2.313-1.503,3.039-2.711c0.726-1.21,1.088-2.585,1.088-4.128
			c0-1.52-0.403-2.896-1.208-4.127c-0.807-1.232-1.94-2.102-3.403-2.609C475.887,229.188,473.464,228.936,470.077,228.936z"/>
	</g>
	<g>
		<path fill="#8BBE6B" d="M5.857,338.994v-58.729h18.597c5.596,0,10.06,1.512,13.391,4.533c3.332,3.024,4.996,7.081,4.996,12.174
			c0,3.416-0.854,6.438-2.562,9.067c-1.707,2.632-4.044,4.541-7.01,5.731c-2.967,1.189-7.221,1.784-12.762,1.784h-6.213v25.439
			H5.857z M22.984,287.737h-8.689v18.345h9.194c3.414,0,6.044-0.803,7.891-2.414c1.849-1.607,2.771-3.91,2.771-6.906
			C34.151,290.746,30.43,287.737,22.984,287.737z"/>
		<path fill="#8BBE6B" d="M50.398,338.994V280.35H65.09c5.933,0,10.642,1.469,14.127,4.406c3.484,2.939,5.227,6.913,5.227,11.924
			c0,3.414-0.854,6.365-2.562,8.857c-1.707,2.491-4.156,4.351-7.346,5.583c1.875,1.231,3.707,2.911,5.499,5.036
			c1.791,2.129,4.309,5.836,7.557,11.126c2.043,3.33,3.68,5.834,4.911,7.514l3.107,4.198h-9.992l-2.558-3.863
			c-0.083-0.14-0.251-0.379-0.503-0.715l-1.635-2.311l-2.601-4.283l-2.809-4.578c-1.732-2.408-3.319-4.325-4.764-5.751
			c-1.443-1.423-2.745-2.451-3.909-3.079c-1.162-0.629-3.116-0.944-5.861-0.944h-2.186v25.524H50.398z M61.313,287.485h-2.519
			v18.514h3.189c4.253,0,7.172-0.364,8.754-1.092c1.58-0.728,2.812-1.827,3.694-3.297c0.88-1.469,1.322-3.141,1.322-5.016
			c0-1.847-0.49-3.52-1.47-5.017s-2.359-2.554-4.136-3.169C68.371,287.794,65.427,287.485,61.313,287.485z"/>
		<path fill="#8BBE6B" d="M125.688,279.51c9.062,0,16.606,2.869,22.634,8.604c6.026,5.738,9.039,12.932,9.039,21.579
			s-3.04,15.805-9.124,21.471c-6.082,5.668-13.752,8.502-23.009,8.502c-8.84,0-16.201-2.834-22.089-8.502
			c-5.887-5.666-8.832-12.767-8.832-21.304c0-8.76,2.965-16.008,8.895-21.746C109.132,282.379,116.627,279.51,125.688,279.51z
			 M126.023,287.485c-6.71,0-12.226,2.099-16.546,6.297c-4.319,4.197-6.479,9.558-6.479,16.078c0,6.325,2.167,11.587,6.502,15.785
			c4.333,4.196,9.758,6.296,16.273,6.296c6.541,0,12.001-2.142,16.378-6.423c4.375-4.281,6.563-9.612,6.563-15.993
			c0-6.213-2.188-11.441-6.563-15.68C137.774,289.604,132.398,287.485,126.023,287.485z"/>
		<path fill="#8BBE6B" d="M218.231,325.394v9.234c-6.156,3.359-13.267,5.038-21.326,5.038c-6.549,0-12.104-1.314-16.665-3.946
			c-4.562-2.631-8.173-6.255-10.832-10.873c-2.659-4.617-3.986-9.612-3.986-14.986c0-8.535,3.042-15.715,9.13-21.536
			c6.088-5.82,13.594-8.731,22.522-8.731c6.156,0,12.999,1.609,20.527,4.828v9.024c-6.855-3.916-13.559-5.876-20.107-5.876
			c-6.718,0-12.293,2.12-16.729,6.36c-4.436,4.239-6.653,9.55-6.653,15.931c0,6.438,2.183,11.727,6.549,15.868
			c4.366,4.144,9.949,6.213,16.75,6.213C204.518,331.941,211.458,329.76,218.231,325.394z"/>
		<path fill="#8BBE6B" d="M228.56,280.35h33.248v7.473h-24.853v17.882h24.013v7.516h-24.013v18.219h25.649v7.471H228.56V280.35z"/>
		<path fill="#8BBE6B" d="M286.07,314.422l-6.38-3.876c-4.002-2.444-6.849-4.849-8.543-7.213c-1.694-2.365-2.539-5.087-2.539-8.165
			c0-4.619,1.602-8.368,4.806-11.252c3.204-2.882,7.368-4.323,12.489-4.323c4.898,0,9.39,1.375,13.476,4.124v9.53
			c-4.227-4.064-8.772-6.098-13.644-6.098c-2.743,0-4.996,0.634-6.758,1.902c-1.765,1.269-2.645,2.894-2.645,4.871
			c0,1.757,0.648,3.403,1.946,4.935c1.3,1.534,3.389,3.144,6.267,4.83l6.412,3.794c7.154,4.274,10.73,9.712,10.73,16.317
			c0,4.701-1.575,8.521-4.724,11.459c-3.149,2.939-7.24,4.408-12.279,4.408c-5.793,0-11.068-1.78-15.825-5.342V323.66
			c4.533,5.746,9.78,8.616,15.742,8.616c2.63,0,4.819-0.73,6.569-2.194c1.749-1.465,2.624-3.299,2.624-5.501
			C293.796,321.011,291.222,317.626,286.07,314.422z"/>
		<path fill="#8BBE6B" d="M329.647,280.013h5.901l26.294,58.981h-8.592l-7.817-17.38h-25.02l-7.329,17.38h-8.627L329.647,280.013z
			 M341.983,314.142l-9.462-21.241l-8.774,21.241H341.983z"/>
		<path fill="#8BBE6B" d="M368.351,338.909v-58.56h19.774c7.975,0,14.285,1.194,18.932,3.589c4.646,2.392,8.34,5.913,11.082,10.557
			c2.744,4.646,4.115,9.712,4.115,15.198c0,3.918-0.757,7.667-2.267,11.249c-1.512,3.584-3.668,6.732-6.465,9.447
			c-2.854,2.799-6.171,4.911-9.95,6.338c-2.211,0.867-4.24,1.447-6.088,1.742c-1.847,0.294-5.373,0.439-10.577,0.439H368.351z
			 M387.242,287.822h-10.494v43.616h10.747c4.196,0,7.458-0.287,9.779-0.861c2.324-0.573,4.262-1.3,5.815-2.183
			c1.553-0.882,2.973-1.967,4.262-3.254c4.142-4.198,6.213-9.502,6.213-15.91c0-6.298-2.129-11.432-6.383-15.405
			c-1.566-1.484-3.364-2.701-5.394-3.653c-2.029-0.95-3.953-1.58-5.772-1.89C394.196,287.975,391.271,287.822,387.242,287.822z"/>
		<path fill="#8BBE6B" d="M461.525,279.51c9.062,0,16.606,2.869,22.634,8.604c6.026,5.738,9.039,12.932,9.039,21.579
			s-3.04,15.805-9.124,21.471c-6.083,5.668-13.752,8.502-23.01,8.502c-8.839,0-16.201-2.834-22.088-8.502
			c-5.887-5.666-8.832-12.767-8.832-21.304c0-8.76,2.965-16.008,8.895-21.746C444.969,282.379,452.464,279.51,461.525,279.51z
			 M461.86,287.485c-6.71,0-12.226,2.099-16.546,6.297c-4.319,4.197-6.479,9.558-6.479,16.078c0,6.325,2.167,11.587,6.502,15.785
			c4.333,4.196,9.758,6.296,16.273,6.296c6.54,0,12-2.142,16.378-6.423c4.375-4.281,6.563-9.612,6.563-15.993
			c0-6.213-2.188-11.441-6.563-15.68C473.61,289.604,468.235,287.485,461.86,287.485z"/>
	</g>
</g>
</svg>
