<?xml version="1.0" encoding="utf-8"?>
<!-- Generator: Adobe Illustrator 16.0.0, SVG Export Plug-In . SVG Version: 6.00 Build 0)  -->
<!DOCTYPE svg PUBLIC "-//W3C//DTD SVG 1.1//EN" "http://www.w3.org/Graphics/SVG/1.1/DTD/svg11.dtd">
<svg version="1.1" id="Capa_1" xmlns="http://www.w3.org/2000/svg" xmlns:xlink="http://www.w3.org/1999/xlink" x="0px" y="0px"
	 width="500px" height="500px" viewBox="0 0 500 500" enable-background="new 0 0 500 500" xml:space="preserve">
<g>
	<path fill-rule="evenodd" clip-rule="evenodd" fill="#8BBE6B" d="M489.262,249.996c0,132.148-107.117,239.266-239.262,239.266
		S10.734,382.145,10.734,249.996C10.734,117.855,117.855,10.734,250,10.734S489.262,117.855,489.262,249.996z"/>
	<g>
		<text transform="matrix(1 0 0 1 120.8594 264.3086)" fill="#D7E6C4" font-family="'GillSansMT'" font-size="58.203">PEQUEﾃ前</text>
		<text transform="matrix(1 0 0 1 150.0645 218.2188)" fill="#D7E6C4" font-family="'GillSansMT'" font-size="47.5295">PEQUEﾃ前</text>
		<text transform="matrix(1 0 0 1 160.6152 179.2188)" fill="#D7E6C4" font-family="'GillSansMT'" font-size="42.6879">PEQUEﾃ前</text>
		<text transform="matrix(1 0 0 1 173.5 144.9609)" fill="#D7E6C4" font-family="'GillSansMT'" font-size="34.9436">PEQUEﾃ前</text>
		<g>
			<polygon fill="#D7E6C4" points="347.348,279.648 347.348,415.289 355.797,415.289 387.105,265.242 			"/>
			<polygon fill="#D7E6C4" points="204.973,265.242 165.215,279.648 165.215,415.289 250.691,415.289 250.691,279.648 			"/>
			<polygon fill="#D7E6C4" points="120.859,265.242 152.164,415.289 160.613,415.289 160.613,279.648 			"/>
			<polygon fill="#D7E6C4" points="296.023,265.242 256.266,279.648 256.266,415.289 341.742,415.289 341.742,279.648 			"/>
		</g>
	</g>
</g>
</svg>
