<?xml version="1.0" encoding="utf-8"?>
<!-- Generator: Adobe Illustrator 16.0.0, SVG Export Plug-In . SVG Version: 6.00 Build 0)  -->
<!DOCTYPE svg PUBLIC "-//W3C//DTD SVG 1.1//EN" "http://www.w3.org/Graphics/SVG/1.1/DTD/svg11.dtd">
<svg version="1.1" id="Capa_1" xmlns="http://www.w3.org/2000/svg" xmlns:xlink="http://www.w3.org/1999/xlink" x="0px" y="0px"
	 width="500px" height="500px" viewBox="0 0 500 500" enable-background="new 0 0 500 500" xml:space="preserve">
<g>
	<circle fill-rule="evenodd" clip-rule="evenodd" fill="#8BBE6B" cx="251.024" cy="247.81" r="239.139"/>
	<g>
		<path fill-rule="evenodd" clip-rule="evenodd" fill="#A7CA99" d="M271.535,89.673c0.208,0,0.416,0,0.63,0
			c-0.033,0.295-0.438,0.229-0.378,0.629c-0.252,0.214-0.597,0.343-0.641,0.767c-0.428,0.33-0.789,0.745-1.025,1.271
			c-0.245,0.208-0.58,0.334-0.623,0.77c-0.434,0.326-0.791,0.743-1.031,1.263c-0.252,0.222-0.585,0.351-0.63,0.775
			c-0.434,0.334-0.783,0.743-1.019,1.264c-0.252,0.222-0.598,0.35-0.641,0.775c-0.434,0.329-0.774,0.743-1.014,1.263
			c-0.401,0.285-0.696,0.664-0.888,1.148c-0.346,0.251-0.614,0.578-0.772,1.028c-0.318,0.186-0.527,0.49-0.642,0.892
			c-0.153,0.044-0.258,0.162-0.247,0.37c-0.553,0.521-0.976,1.148-1.275,1.923c-0.61,0.66-1.041,1.498-1.398,2.419
			c-0.312,0.197-0.476,0.542-0.515,1.011c-1.036,1.854-2.284,5.186-1.145,7.649c0.099,0.707,0.448,1.169,0.894,1.525
			c0,0.043,0,0.083,0,0.137c0.497,0.592,1.052,1.143,1.659,1.649c0.039,0,0.076,0,0.125,0c0.115,0.178,0.188,0.402,0.506,0.378
			c2.503,2.002,5.604,3.399,8.794,4.711c0.985,0.625,2.185,1.041,3.308,1.531c0.795,0.351,1.496,0.805,2.423,1.014
			c1.117,0.625,2.268,1.219,3.567,1.66c0.032,0.093,0.104,0.148,0.251,0.124c0.433,0.329,0.943,0.582,1.534,0.766
			c0.181,0.203,0.428,0.321,0.756,0.381c0.828,0.624,1.797,1.102,2.811,1.531c0.077,0.255,0.335,0.343,0.631,0.379
			c1.413,0.96,2.81,1.945,4.328,2.808c0.257,0.342,0.58,0.61,1.029,0.762c1.063,0.963,2.144,1.925,3.304,2.802
			c0.505,0.605,1.058,1.156,1.648,1.66c0.314,0.508,0.676,0.945,1.157,1.266c0.045,0.433,0.379,0.556,0.635,0.767
			c0.429,0.765,0.97,1.405,1.528,2.046c0.164,0.458,0.417,0.85,0.768,1.143c0.154,0.39,0.307,0.792,0.637,1.014
			c0.432,1.074,0.996,1.98,1.528,2.933c0.153,0.699,0.416,1.28,0.762,1.784c1.195,3.386,2.092,7.087,2.542,11.208
			c0.093,0.597-0.165,1.526,0.137,1.912c0.268,1.291-0.581,4.66,0.503,4.712c4.094,0.456,7.682,1.413,10.45,3.186
			c0.443,0.23,0.739,0.623,1.271,0.765c0.351,0.414,0.783,0.742,1.277,1.019c0.618,0.729,1.304,1.405,2.037,2.042
			c0.236,0.52,0.587,0.937,1.014,1.265c0.339,0.729,0.772,1.37,1.277,1.917c0.043,0.417,0.296,0.625,0.514,0.884
			c0.625,1.379,1.228,2.771,1.901,4.072c0.038,0.43,0.138,0.818,0.39,1.027c2.037,4.564,0.575,10.999-1.271,14.645
			c-0.259,0.269-0.417,0.611-0.516,1.027c-0.406,0.313-0.571,0.863-0.768,1.398c-0.251,0.089-0.335,0.342-0.378,0.64
			c-0.306,0.241-0.542,0.556-0.635,1.011c-0.341,0.297-0.593,0.678-0.774,1.147c-0.311,0.194-0.519,0.49-0.628,0.893
			c-0.473,0.414-0.86,0.933-1.14,1.532c-0.374,0.222-0.643,0.551-0.773,1.014c1.09,0.863,2.186,1.725,3.435,2.424
			c0.121,0.187,0.193,0.403,0.516,0.377c0.762,0.732,1.605,1.362,2.542,1.915c0.739,0.699,1.514,1.37,2.427,1.904
			c0.856,0.893,1.787,1.698,2.801,2.424c0.378,0.479,0.794,0.902,1.271,1.277c0.262,0.036,0.252,0.348,0.509,0.387
			c0.8,0.89,1.648,1.745,2.548,2.545c0,0.125,0.104,0.147,0.126,0.249c0.971,0.983,1.802,2.117,2.8,3.059
			c0.674,1.074,1.475,2.012,2.3,2.935c0.111,0.394,0.318,0.698,0.631,0.884c0,0.213,0.104,0.334,0.259,0.377
			c0.049,0.417,0.371,0.565,0.509,0.894c0.273,0.329,0.411,0.789,0.767,1.028c0,0.21,0.104,0.326,0.252,0.37
			c-0.005,0.397,0.269,0.498,0.385,0.775c0.256,0.372,0.388,0.878,0.761,1.146c0.355,0.828,0.745,1.636,1.277,2.283
			c0.185,0.591,0.438,1.096,0.76,1.534c0.318,1.05,0.778,1.945,1.283,2.808c2.264,5.711,3.945,12.015,4.713,19.228
			c0.081,0.636-0.177,1.611,0.125,2.038c0,0.253,0,0.513,0,0.757c-0.29,5.96-2.346,10.144-4.838,13.889
			c-0.373,0.32-0.701,0.66-0.894,1.142c-0.345,0.22-0.607,0.509-0.771,0.896c-1.112,1.012-2.177,2.073-3.179,3.181
			c-0.454,0.191-0.75,0.526-1.019,0.898c-0.373,0.014-0.477,0.293-0.641,0.505c-0.768,0.421-1.441,0.937-2.039,1.533
			c-0.85,0.422-1.604,0.934-2.289,1.531c-0.226-0.016-0.33,0.088-0.385,0.253c-0.509,0.164-0.941,0.4-1.27,0.762
			c-0.302,0.043-0.549,0.131-0.642,0.385c-0.445,0.144-0.909,0.279-1.146,0.634c-0.702,0.279-1.431,0.528-1.907,1.019
			c-0.328,0.058-0.585,0.177-0.767,0.387c-0.959,0.222-1.671,0.699-2.416,1.146c-0.598,0.131-1.162,0.281-1.402,0.766
			c-1.49,0.213-3.229,1.274-4.851,1.775c-2.864,1.161-5.992,2.065-9.033,3.059c-1.243,0.204-2.279,0.611-3.437,0.896
			c-8.069,2.209-16.715,3.838-25.733,5.096c-1.068,0.073-2.006,0.283-3.063,0.386c-18.771,2.627-42.429,2.74-62.674,1.267
			c-0.811-0.03-1.491-0.21-2.411-0.127c-8.837-0.796-17.423-1.851-25.351-3.563c-1.184-0.27-2.285-0.603-3.566-0.767
			c-3.929-1.036-7.891-2.047-11.461-3.438c-1.705-0.586-3.201-1.392-4.971-1.912c-0.53-0.485-1.216-0.819-2.037-1.02
			c-0.263-0.246-0.608-0.411-1.02-0.513c-0.898-0.715-2.104-1.116-3.056-1.779c-0.269-0.119-0.374-0.395-0.757-0.378
			c-1.226-0.949-2.52-1.82-3.83-2.683c-0.164-0.222-0.263-0.504-0.635-0.513c-0.215-0.335-0.494-0.6-0.899-0.765
			c-0.953-1.062-1.973-2.08-3.048-3.051c-0.043-0.418-0.385-0.551-0.638-0.762c-0.286-0.608-0.726-1.063-1.147-1.531
			c-0.164-0.474-0.422-0.85-0.757-1.146c-0.225-0.581-0.493-1.131-0.895-1.531c-0.15-0.489-0.357-0.926-0.642-1.269
			c-0.208-0.862-0.573-1.545-0.894-2.291c-0.668-1.917-0.972-4.21-1.396-6.377c0-1.436,0-2.887,0-4.328
			c0.805-5.99,2.332-11.253,4.583-15.793c0.358-0.243,0.493-0.697,0.641-1.147c0.252-0.092,0.342-0.339,0.385-0.641
			c0.417-0.422,0.759-0.926,1.014-1.521c0.269-0.246,0.535-0.492,0.64-0.896c0.79-0.786,1.484-1.649,2.154-2.545
			c0.444-0.323,0.821-0.715,1.156-1.143c0.559-0.254,0.92-0.704,1.277-1.156c0.366-0.004,0.476-0.29,0.634-0.503
			c0.417-0.039,0.555-0.381,0.762-0.636c-1.047-2.729-1.583-5.974-1.906-9.432c0-1.268,0-2.545,0-3.821
			c0.394-5.036,1.648-9.211,3.304-12.991c0.181-0.083,0.234-0.277,0.263-0.506c0.399-0.321,0.569-0.869,0.762-1.405
			c0.257-0.083,0.339-0.344,0.383-0.643c0.509-0.542,0.932-1.174,1.271-1.903c0.345-0.255,0.609-0.581,0.757-1.02
			c0.569-0.542,1.127-1.095,1.534-1.78c0.926-0.907,1.928-1.726,2.799-2.679c0.538-0.235,0.938-0.595,1.277-1.019
			c0.405-0.109,0.702-0.31,0.899-0.631c0.591-0.254,1.101-0.598,1.522-1.027c0.295-0.034,0.554-0.125,0.63-0.369
			c0.374-0.108,0.74-0.212,0.899-0.516c0.098-0.033,0.252-0.009,0.252-0.125c0.756-0.272,1.436-0.614,2.037-1.023
			c4.746-1.955,10.01-3.413,15.807-4.33c0.209-0.275,0.012-0.959-0.136-1.271c-0.016-0.79-0.062-1.562-0.252-2.167
			c-0.082-0.512,0.158-1.362-0.125-1.661c0-0.295,0-0.591,0-0.893c0-1.353,0-2.714,0-4.076c0.234-5.063,1.436-9.169,3.058-12.857
			c0.497-0.863,0.996-1.728,1.396-2.679c0.306-0.237,0.536-0.563,0.641-1.013c0.158-0.058,0.252-0.165,0.252-0.387
			c0.323-0.191,0.52-0.49,0.641-0.896c0.181-0.109,0.4-0.184,0.373-0.506c0.383-0.384,0.805-0.735,1.023-1.277
			c1.074-1.087,2.138-2.188,3.185-3.308c0.51-0.212,0.838-0.606,1.15-1.02c0.417-0.049,0.555-0.382,0.756-0.635
			c0.642-0.34,1.195-0.767,1.661-1.273c0.394-0.109,0.707-0.313,0.887-0.641c1.119-0.542,1.994-1.32,3.063-1.904
			c2.598-1.649,5.538-2.959,8.279-4.463c0.493-0.134,0.92-0.351,1.271-0.641c1.226-0.387,2.263-0.959,3.314-1.526
			c0.499-0.136,0.92-0.35,1.277-0.63c0.23-0.018,0.417-0.089,0.504-0.253c0.821-0.209,1.496-0.535,2.039-1.028
			c0.098-0.022,0.256,0,0.256-0.121c0.538-0.191,1.086-0.364,1.398-0.763c1.222-0.564,2.312-1.26,3.189-2.167
			c3.599-2.062,1.353-8.578,0.382-12.87c-0.816-3.576-1.489-7.084-1.912-10.315c0-1.399,0-2.799,0-4.199
			c0.187-2.833,0.942-5.09,1.776-7.259c0.404-0.321,0.581-0.882,0.772-1.408c0.421-0.422,0.761-0.928,1.019-1.525
			c0.213-0.165,0.493-0.261,0.505-0.639c0.417-0.225,0.634-0.641,0.893-1.011c0.667-0.658,1.441-1.191,2.037-1.924
			c0.494-0.194,0.833-0.521,1.146-0.892c0.729-0.327,1.359-0.757,1.912-1.264C249.702,92.977,260.841,91.544,271.535,89.673z
			 M239.813,109.794c-2.411,5.416-0.329,11.771,1.019,17.448c0.942,3.981,2.174,8.579,1.396,12.612
			c-1.452,7.592-10.732,10.67-16.934,13.615c-12.131,5.783-24.464,12.234-24.584,29.435c-0.017,2.604,0.284,4.085,0.641,7.133
			c17.895-1.934,37.843-0.979,55.271-3.823c8.23-1.34,15.944-3.365,23.062-6.488c5.04-2.224,9.638-5.005,14.268-7.906
			c1.397-0.876,3.972-2.203,4.333-3.048c0.591-1.445,0.246-4.332,0.127-6.378c-0.356-6.131-2.318-11.378-4.718-15.023
			c-7.222-11.029-20.723-14.029-32.227-20.39c-5.557-3.065-11.347-7.18-10.701-15.656c0.366-4.696,2.537-7.506,4.339-11.212
			c-0.011-0.085-0.022-0.159-0.132-0.129C249.012,101.816,242.245,104.332,239.813,109.794z M236.378,228.628
			c8.063,0.285,16.112,0.469,23.941-0.378c14.453-1.561,27.028-5.77,37.322-12.229c7.512-4.717,14.521-10.415,19.232-17.961
			c1.747-2.798,3.878-7.038,3.062-10.567c-0.941-4.046-3.649-8.497-6.749-10.582c-2.586-1.718-6.06-2.318-10.191-2.408
			c-9.835,6.635-20.015,12.618-32.994,16.176c-12.694,3.469-27.794,4.347-43.563,5.09c-15.593,0.734-31.547,0.833-43.305,5.356
			c-11.096,4.259-19.018,15.51-15.155,31.454C185.462,225.265,213.338,227.843,236.378,228.628z M309.235,216.663
			c-11.33,8.799-24.9,14.943-42.039,17.831c-20.361,3.422-43.958,0.252-65.725,0.252c-24.157,0-40.753,3.764-45.086,23.304
			c-2.632,11.81,2.433,18.709,9.292,23.442c13.379,9.204,33.992,12.18,54.899,13.497c33.486,2.123,67.188-0.236,92.855-8.398
			c8.553-2.719,16.717-6.11,23.057-11.082c3.341-2.622,6.021-5.687,7.522-9.551c1.61-4.171,1.035-9.514-0.132-14.781
			c-4.054-18.329-15.297-29.728-29.674-38.844C312.654,213.68,310.917,215.354,309.235,216.663z"/>
		<path fill-rule="evenodd" clip-rule="evenodd" fill="#D7E6C4" d="M231.666,114.629c0,0.433,0,0.855,0,1.282
			C231.452,115.769,231.452,114.763,231.666,114.629z"/>
		<path fill-rule="evenodd" clip-rule="evenodd" fill="#A7CA99" d="M193.581,185.065c0.045,0,0.082,0,0.127,0
			c0,0.302,0,0.598,0,0.893c0,0.173,0,0.345,0,0.506C193.417,186.25,193.653,185.502,193.581,185.065z"/>
		<path fill-rule="evenodd" clip-rule="evenodd" fill="#D7E6C4" d="M159.827,222.52c0,0.17,0,0.334,0,0.505c0,1.276,0,2.553,0,3.821
			c0,0.222,0,0.43,0,0.639C159.601,226.13,159.601,223.882,159.827,222.52z"/>
		<path fill-rule="evenodd" clip-rule="evenodd" fill="#D7E6C4" d="M352.289,259.07c0.043,0,0.075,0,0.121,0
			c0,0.723,0,1.453,0,2.166c-0.046,0-0.078,0-0.121,0c0-0.205,0-0.419,0-0.641c0-0.244,0-0.504,0-0.757
			C352.289,259.584,352.289,259.333,352.289,259.07z"/>
		<path fill-rule="evenodd" clip-rule="evenodd" fill="#D7E6C4" d="M190.135,298.31c7.928,1.713,16.513,2.768,25.351,3.563
			c-0.252,0-0.509,0-0.766,0c0.854,18.805,2.147,38.274,3.177,57.322c-6.858-1.543-13.231-3.582-19.094-6.115
			C195.926,334.808,193.062,316.526,190.135,298.31z"/>
		<path fill-rule="evenodd" clip-rule="evenodd" fill="#D7E6C4" d="M233.703,366.449c-0.093-0.01-0.148-0.016-0.136-0.124
			c0.388,0.079,1.107-0.162,1.282,0.124C234.46,366.449,234.082,366.449,233.703,366.449z"/>
		<path fill-rule="evenodd" clip-rule="evenodd" fill="#D7E6C4" d="M234.969,366.577c0-0.039,0-0.085,0-0.128
			c0.389,0.089,1.101-0.158,1.282,0.128c-0.388,0-0.772,0-1.15,0C235.058,366.577,235.013,366.577,234.969,366.577z"/>
		<path fill-rule="evenodd" clip-rule="evenodd" fill="#D7E6C4" d="M258.664,366.577c0.177-0.286,0.89-0.039,1.277-0.128
			c0,0.043,0,0.089,0,0.128c-0.043,0-0.088,0-0.137,0C259.427,366.577,259.048,366.577,258.664,366.577z"/>
		<path fill-rule="evenodd" clip-rule="evenodd" fill="#D7E6C4" d="M236.497,366.703c0-0.03,0-0.082,0-0.126
			c0.439,0.09,1.185-0.159,1.403,0.126c-0.416,0-0.849,0-1.271,0C236.591,366.703,236.547,366.703,236.497,366.703z"/>
		<path fill-rule="evenodd" clip-rule="evenodd" fill="#D7E6C4" d="M257.011,366.703c0.258-0.285,1.059-0.036,1.534-0.126
			c0,0.044,0,0.096,0,0.126c-0.094,0-0.181,0-0.263,0C257.859,366.703,257.433,366.703,257.011,366.703z"/>
		<path fill-rule="evenodd" clip-rule="evenodd" fill="#D7E6C4" d="M238.152,366.834c0-0.043,0-0.088,0-0.131
			c0.565,0.088,1.441-0.156,1.787,0.131c-0.503,0-1.019,0-1.523,0C238.322,366.834,238.245,366.834,238.152,366.834z"/>
		<path fill-rule="evenodd" clip-rule="evenodd" fill="#D7E6C4" d="M254.841,366.834c0.385-0.287,1.321-0.043,1.912-0.131
			c0,0.043,0,0.088,0,0.131c-0.089,0-0.17,0-0.252,0C255.954,366.834,255.395,366.834,254.841,366.834z"/>
		<path fill-rule="evenodd" clip-rule="evenodd" fill="#D7E6C4" d="M239.938,98.957c0.515-0.535,1.146-0.967,1.912-1.264
			C241.297,98.2,240.667,98.63,239.938,98.957z"/>
		<path fill-rule="evenodd" clip-rule="evenodd" fill="#D7E6C4" d="M235.863,102.784c0.125-0.506,0.564-0.718,0.893-1.011
			C236.497,102.143,236.279,102.559,235.863,102.784z"/>
		<path fill-rule="evenodd" clip-rule="evenodd" fill="#D7E6C4" d="M234.339,104.948c0.213-0.63,0.552-1.137,1.019-1.525
			C235.101,104.02,234.76,104.526,234.339,104.948z"/>
		<path fill-rule="evenodd" clip-rule="evenodd" fill="#A7CA99" d="M224.526,145.962c0.405-0.273,0.794-0.572,1.408-0.63
			c-0.357,0.281-0.778,0.495-1.277,0.63C224.608,145.962,224.569,145.962,224.526,145.962z"/>
		<path fill-rule="evenodd" clip-rule="evenodd" fill="#A7CA99" d="M219.946,148.129c0.4-0.285,0.789-0.572,1.397-0.641
			c-0.351,0.29-0.778,0.506-1.271,0.641C220.027,148.129,219.979,148.129,219.946,148.129z"/>
		<path fill-rule="evenodd" clip-rule="evenodd" fill="#A7CA99" d="M208.73,154.497c0.893-0.89,2.115-1.455,3.183-2.161
			c-0.021,0.1-0.125,0.123-0.12,0.257C210.724,153.176,209.849,153.955,208.73,154.497z"/>
		<path fill-rule="evenodd" clip-rule="evenodd" fill="#A7CA99" d="M204.276,158.066c0.345-0.376,0.585-0.86,1.15-1.02
			C205.114,157.46,204.786,157.854,204.276,158.066z"/>
		<path fill-rule="evenodd" clip-rule="evenodd" fill="#A7CA99" d="M201.992,160.228c0.657-0.771,1.381-1.485,2.154-2.161
			C203.476,158.845,202.753,159.559,201.992,160.228z"/>
		<path fill-rule="evenodd" clip-rule="evenodd" fill="#A7CA99" d="M201.092,161.375c0.101-0.578,0.686-0.667,0.9-1.147
			c0.761-0.669,1.484-1.383,2.154-2.161c0.043,0,0.092,0,0.131,0C203.229,159.187,202.166,160.287,201.092,161.375z"/>
		<path fill-rule="evenodd" clip-rule="evenodd" fill="#A7CA99" d="M200.069,162.652c0.225-0.548,0.575-0.956,1.023-1.277
			C200.874,161.917,200.452,162.268,200.069,162.652z"/>
		<path fill-rule="evenodd" clip-rule="evenodd" fill="#A7CA99" d="M194.086,189.787c0.148,0.312,0.345,0.996,0.136,1.271
			c-5.797,0.917-11.062,2.375-15.807,4.33c4.472-2.238,9.94-3.476,15.671-4.454c0-0.299,0-0.598,0-0.896
			C194.086,189.951,194.086,189.866,194.086,189.787z"/>
		<path fill-rule="evenodd" clip-rule="evenodd" fill="#D7E6C4" d="M176.378,196.411c0.547-0.485,1.216-0.82,2.037-1.023
			C177.813,195.797,177.134,196.139,176.378,196.411z"/>
		<path fill-rule="evenodd" clip-rule="evenodd" fill="#D7E6C4" d="M173.075,198.448c0.382-0.467,0.893-0.805,1.522-1.027
			C174.175,197.85,173.666,198.194,173.075,198.448z"/>
		<path fill-rule="evenodd" clip-rule="evenodd" fill="#D7E6C4" d="M168.1,202.645c0.466-0.559,0.969-1.074,1.534-1.521
			C169.173,201.678,168.668,202.191,168.1,202.645z"/>
		<path fill-rule="evenodd" clip-rule="evenodd" fill="#D7E6C4" d="M166.565,204.557c0.378-0.739,0.926-1.287,1.534-1.78
			C167.693,203.462,167.134,204.015,166.565,204.557z"/>
		<path fill-rule="evenodd" clip-rule="evenodd" fill="#D7E6C4" d="M163.13,210.034c-1.655,3.78-2.91,7.955-3.304,12.991
			c0-0.17,0-0.334,0-0.505C160.094,217.528,161.311,213.485,163.13,210.034z"/>
		<path fill-rule="evenodd" clip-rule="evenodd" fill="#D7E6C4" d="M159.059,238.573c0.388-0.418,0.669-0.947,1.277-1.156
			C159.979,237.869,159.617,238.318,159.059,238.573z"/>
		<path fill-rule="evenodd" clip-rule="evenodd" fill="#D7E6C4" d="M157.903,239.715c0.241-0.529,0.63-0.907,1.156-1.143
			C158.724,239,158.347,239.393,157.903,239.715z"/>
		<path fill-rule="evenodd" clip-rule="evenodd" fill="#D7E6C4" d="M155.749,242.26c0.559-1.014,1.31-1.819,2.154-2.545
			C157.233,240.611,156.539,241.475,155.749,242.26z"/>
		<path fill-rule="evenodd" clip-rule="evenodd" fill="#D7E6C4" d="M154.095,244.677c0.21-0.627,0.552-1.143,1.014-1.521
			C154.854,243.751,154.512,244.254,154.095,244.677z"/>
		<path fill-rule="evenodd" clip-rule="evenodd" fill="#D7E6C4" d="M261.34,103.811c0.3-0.775,0.723-1.402,1.275-1.923
			C262.276,102.619,261.844,103.258,261.34,103.811z"/>
		<path fill-rule="evenodd" clip-rule="evenodd" fill="#D7E6C4" d="M259.427,107.241c0.039-0.468,0.203-0.813,0.515-1.011
			C259.838,106.636,259.673,106.978,259.427,107.241z"/>
		<path fill-rule="evenodd" clip-rule="evenodd" fill="#A7CA99" d="M259.176,116.552c0.603,0.487,1.149,1.041,1.659,1.649
			C260.228,117.695,259.673,117.144,259.176,116.552z"/>
		<path fill-rule="evenodd" clip-rule="evenodd" fill="#A7CA99" d="M273.567,124.688c0.84,0.356,1.732,0.655,2.423,1.148
			c-0.927-0.208-1.628-0.663-2.423-1.014C273.567,124.778,273.567,124.735,273.567,124.688z"/>
		<path fill-rule="evenodd" clip-rule="evenodd" fill="#A7CA99" d="M275.99,125.836c1.304,0.433,2.48,0.997,3.567,1.66
			C278.258,127.055,277.107,126.461,275.99,125.836z"/>
		<path fill-rule="evenodd" clip-rule="evenodd" fill="#A7CA99" d="M282.099,128.767c1.041,0.411,1.989,0.91,2.811,1.531
			C283.896,129.869,282.927,129.391,282.099,128.767z"/>
		<path fill-rule="evenodd" clip-rule="evenodd" fill="#A7CA99" d="M289.868,133.485c-1.519-0.863-2.915-1.848-4.328-2.808
			C287.144,131.447,288.574,132.399,289.868,133.485z"/>
		<path fill-rule="evenodd" clip-rule="evenodd" fill="#A7CA99" d="M290.897,134.247c1.25,0.786,2.351,1.725,3.304,2.802
			C293.041,136.172,291.96,135.21,290.897,134.247z"/>
		<path fill-rule="evenodd" clip-rule="evenodd" fill="#A7CA99" d="M294.201,137.049c0.104,0.022,0.132,0.128,0.253,0.128
			c0.371,0.477,0.805,0.907,1.276,1.271c0.027,0.112,0.132,0.127,0.119,0.26C295.259,138.205,294.706,137.654,294.201,137.049z"/>
		<path fill-rule="evenodd" clip-rule="evenodd" fill="#A7CA99" d="M297.642,140.741c-0.256-0.211-0.59-0.333-0.635-0.767
			C297.258,140.196,297.593,140.323,297.642,140.741z"/>
		<path fill-rule="evenodd" clip-rule="evenodd" fill="#A7CA99" d="M302.103,147.877c0.355,0.488,0.63,1.073,0.762,1.784
			C302.519,149.157,302.256,148.576,302.103,147.877z"/>
		<path fill-rule="evenodd" clip-rule="evenodd" fill="#D7E6C4" d="M317.767,171.443c-0.531-0.142-0.827-0.535-1.271-0.765
			c-0.034-0.105-0.128-0.121-0.128-0.253C316.863,170.736,317.432,170.966,317.767,171.443z"/>
		<path fill-rule="evenodd" clip-rule="evenodd" fill="#D7E6C4" d="M319.044,172.461c0.043,0,0.086,0,0.132,0
			c0.529,0.641,1.127,1.235,1.784,1.79c0.017,0.092,0.121,0.115,0.121,0.252C320.348,173.867,319.662,173.19,319.044,172.461z"/>
		<path fill-rule="evenodd" clip-rule="evenodd" fill="#D7E6C4" d="M325.787,182.642c-0.674-1.301-1.276-2.693-1.901-4.072
			C324.719,179.732,325.321,181.124,325.787,182.642z"/>
		<path fill-rule="evenodd" clip-rule="evenodd" fill="#D7E6C4" d="M323.623,200.739c0.196-0.535,0.361-1.086,0.768-1.398
			C324.198,199.862,324.029,200.418,323.623,200.739z"/>
		<path fill-rule="evenodd" clip-rule="evenodd" fill="#D7E6C4" d="M322.61,202.391c0.093-0.455,0.329-0.771,0.635-1.011
			C323.146,201.826,322.911,202.143,322.61,202.391z"/>
		<path fill-rule="evenodd" clip-rule="evenodd" fill="#D7E6C4" d="M321.208,204.431c0.109-0.403,0.317-0.699,0.628-0.893
			C321.733,203.938,321.525,204.244,321.208,204.431z"/>
		<path fill-rule="evenodd" clip-rule="evenodd" fill="#D7E6C4" d="M325.787,211.693c-0.937-0.553-1.78-1.183-2.542-1.915
			C324.221,210.29,325.07,210.931,325.787,211.693z"/>
		<path fill-rule="evenodd" clip-rule="evenodd" fill="#D7E6C4" d="M331.015,216.021c0.039,0,0.076,0,0.125,0
			c0.313,0.502,0.851,0.778,1.146,1.277C331.809,216.923,331.393,216.5,331.015,216.021z"/>
		<path fill-rule="evenodd" clip-rule="evenodd" fill="#D7E6C4" d="M332.286,217.298c-0.296-0.499-0.834-0.775-1.146-1.277
			c0.608,0.494,1.157,1.05,1.655,1.664C332.538,217.646,332.548,217.334,332.286,217.298z"/>
		<path fill-rule="evenodd" clip-rule="evenodd" fill="#D7E6C4" d="M332.795,217.685c0.108,0.021,0.132,0.118,0.257,0.118
			c0.637,0.737,1.306,1.407,2.039,2.046c0.043,0.164,0.226,0.194,0.252,0.381C334.443,219.43,333.595,218.575,332.795,217.685z"/>
		<path fill-rule="evenodd" clip-rule="evenodd" fill="#D7E6C4" d="M338.269,223.538c-0.998-0.942-1.829-2.076-2.8-3.059
			c0.465,0.263,0.685,0.753,1.151,1.021C337.15,222.198,337.879,222.703,338.269,223.538z"/>
		<path fill-rule="evenodd" clip-rule="evenodd" fill="#D7E6C4" d="M343.37,230.802c-0.116-0.278-0.39-0.378-0.385-0.775
			c0.317,0.197,0.45,0.575,0.641,0.895C343.523,230.9,343.49,230.802,343.37,230.802z"/>
		<path fill-rule="evenodd" clip-rule="evenodd" fill="#D7E6C4" d="M344.131,231.948c-0.373-0.269-0.505-0.775-0.761-1.146
			c0.12,0,0.153,0.098,0.256,0.119C343.813,231.251,344.076,231.495,344.131,231.948z"/>
		<path fill-rule="evenodd" clip-rule="evenodd" fill="#D7E6C4" d="M346.168,235.765c0.532,0.827,0.987,1.734,1.283,2.808
			C346.946,237.709,346.486,236.814,346.168,235.765z"/>
		<path fill-rule="evenodd" clip-rule="evenodd" fill="#D7E6C4" d="M347.451,274.484c2.492-3.745,4.548-7.929,4.838-13.889
			c0,0.222,0,0.436,0,0.641C352.076,267.055,350.054,271.068,347.451,274.484z"/>
		<path fill-rule="evenodd" clip-rule="evenodd" fill="#D7E6C4" d="M345.786,276.522c0.164-0.388,0.427-0.677,0.771-0.896
			C346.47,276.104,346.082,276.267,345.786,276.522z"/>
		<path fill-rule="evenodd" clip-rule="evenodd" fill="#D7E6C4" d="M342.607,279.703c1.002-1.107,2.066-2.169,3.179-3.181
			c0,0.043,0,0.088,0,0.131c-1.069,0.962-2.088,1.98-3.053,3.05C342.685,279.703,342.651,279.703,342.607,279.703z"/>
		<path fill-rule="evenodd" clip-rule="evenodd" fill="#D7E6C4" d="M338.909,282.64c0.598-0.597,1.271-1.112,2.039-1.533
			C340.389,281.744,339.71,282.25,338.909,282.64z"/>
		<path fill-rule="evenodd" clip-rule="evenodd" fill="#D7E6C4" d="M336.62,284.171c0.685-0.598,1.439-1.109,2.289-1.531
			C338.269,283.274,337.507,283.783,336.62,284.171z"/>
		<path fill-rule="evenodd" clip-rule="evenodd" fill="#D7E6C4" d="M334.966,285.186c0.328-0.361,0.761-0.598,1.27-0.762
			C335.934,284.796,335.501,285.051,334.966,285.186z"/>
		<path fill-rule="evenodd" clip-rule="evenodd" fill="#D7E6C4" d="M331.271,287.223c0.477-0.49,1.205-0.739,1.907-1.019
			C332.69,286.702,331.962,286.946,331.271,287.223z"/>
		<path fill-rule="evenodd" clip-rule="evenodd" fill="#D7E6C4" d="M328.089,288.756c0.745-0.447,1.457-0.925,2.416-1.146
			C329.754,288.059,329.048,288.525,328.089,288.756z"/>
		<path fill-rule="evenodd" clip-rule="evenodd" fill="#D7E6C4" d="M312.803,294.355c3.041-0.993,6.169-1.897,9.033-3.059
			c-3.57,18.206-6.936,36.628-10.31,55.03c-1.967,0.879-3.634,2.054-5.731,2.796C308.103,330.923,310.896,312.527,312.803,294.355z"
			/>
		<path fill-rule="evenodd" clip-rule="evenodd" fill="#D7E6C4" d="M283.633,300.348c9.019-1.258,17.664-2.887,25.733-5.096
			c-2.606,18.453-4.945,37.175-7.396,55.786c-6.58,3.011-13.647,5.543-21.4,7.389C281.534,339.086,282.903,319.494,283.633,300.348z
			"/>
		<path fill-rule="evenodd" clip-rule="evenodd" fill="#D7E6C4" d="M217.896,302c20.245,1.474,43.903,1.36,62.674-1.267
			c-0.784,0.88-0.58,2.233-0.629,3.304c-0.938,18.101-1.984,37.135-3.063,55.275c-9.408,2.145-20.272,3.515-31.718,3.193
			c0.586-19.765,1.068-39.612,1.66-59.36c-0.931-0.299-2.415-0.045-3.566-0.127c-0.619,19.72-1.107,39.575-1.654,59.35
			c-6.811-0.155-13.977-1.054-19.993-2.407c-1.222-19.123-2.279-38.407-3.32-57.707C218.182,302.139,217.941,302.177,217.896,302z"
			/>
		<path fill-rule="evenodd" clip-rule="evenodd" fill="#D7E6C4" d="M175.107,294.104c3.571,1.392,7.532,2.402,11.461,3.438
			c2.398,17.807,5.686,35.836,8.279,53.873c-2.472-0.996-4.63-2.322-7.129-3.312C183.281,330.345,179.473,311.949,175.107,294.104z"
			/>
		<path fill-rule="evenodd" clip-rule="evenodd" fill="#D7E6C4" d="M168.1,291.173c0.821,0.2,1.507,0.534,2.037,1.02
			c0,0.087,0,0.172,0,0.251C169.693,291.79,168.685,291.694,168.1,291.173z"/>
		<path fill-rule="evenodd" clip-rule="evenodd" fill="#D7E6C4" d="M164.023,288.881c0.953,0.663,2.158,1.064,3.056,1.779
			c-1.091-0.388-1.988-0.969-2.925-1.524C164.126,289.037,164.023,289.006,164.023,288.881z"/>
		<path fill-rule="evenodd" clip-rule="evenodd" fill="#D7E6C4" d="M163.266,288.503c0.384-0.017,0.488,0.259,0.757,0.378
			c0,0.125,0.103,0.156,0.131,0.255C163.831,288.949,163.453,288.822,163.266,288.503z"/>
		<path fill-rule="evenodd" clip-rule="evenodd" fill="#D7E6C4" d="M159.437,285.82c1.31,0.862,2.604,1.733,3.83,2.683
			C161.82,287.774,160.543,286.89,159.437,285.82z"/>
		<path fill-rule="evenodd" clip-rule="evenodd" fill="#D7E6C4" d="M157.903,284.543c0.405,0.165,0.684,0.43,0.899,0.765
			C158.34,285.229,158.166,284.842,157.903,284.543z"/>
		<path fill-rule="evenodd" clip-rule="evenodd" fill="#D7E6C4" d="M157.788,284.543c-0.926-1.026-1.907-2.001-2.933-2.923
			c0-0.04,0-0.084,0-0.128c1.075,0.971,2.095,1.989,3.048,3.051C157.87,284.543,157.831,284.543,157.788,284.543z"/>
		<path fill-rule="evenodd" clip-rule="evenodd" fill="#D7E6C4" d="M151.417,276.522c0.402,0.4,0.67,0.95,0.895,1.531
			C151.864,277.682,151.609,277.14,151.417,276.522z"/>
		<path fill-rule="evenodd" clip-rule="evenodd" fill="#D7E6C4" d="M148.486,261.118c0.906-5.515,2.188-10.639,4.583-14.654
			c-2.252,4.541-3.778,9.803-4.583,15.793C148.486,261.878,148.486,261.488,148.486,261.118z"/>
		<path fill-rule="evenodd" clip-rule="evenodd" fill="#D7E6C4" d="M153.069,246.464c0.149-0.454,0.284-0.911,0.641-1.147
			C153.563,245.767,153.428,246.221,153.069,246.464z"/>
		<path fill-rule="evenodd" clip-rule="evenodd" fill="#D7E6C4" d="M163.393,209.527c0.185-0.527,0.361-1.077,0.762-1.405
			C163.962,208.658,163.792,209.206,163.393,209.527z"/>
		<path fill-rule="evenodd" clip-rule="evenodd" fill="#D7E6C4" d="M164.538,207.479c0.291-0.756,0.724-1.396,1.271-1.903
			C165.469,206.306,165.047,206.937,164.538,207.479z"/>
		<path fill-rule="evenodd" clip-rule="evenodd" fill="#D7E6C4" d="M170.898,200.097c-0.871,0.954-1.873,1.772-2.799,2.679
			c0-0.043,0-0.088,0-0.131c0.569-0.454,1.074-0.967,1.534-1.521C170.148,200.872,170.28,200.24,170.898,200.097z"/>
		<path fill-rule="evenodd" clip-rule="evenodd" fill="#D7E6C4" d="M173.075,198.448c-0.198,0.321-0.495,0.521-0.899,0.631
			C172.362,198.76,172.668,198.549,173.075,198.448z"/>
		<path fill-rule="evenodd" clip-rule="evenodd" fill="#D7E6C4" d="M175.227,197.052c0.164-0.315,0.521-0.42,0.899-0.516
			C175.966,196.839,175.6,196.944,175.227,197.052z"/>
		<path fill-rule="evenodd" clip-rule="evenodd" fill="#A7CA99" d="M196.766,167.999c0.355-0.953,0.805-1.823,1.396-2.545
			c-0.4,0.951-0.899,1.816-1.396,2.679C196.766,168.087,196.766,168.043,196.766,167.999z"/>
		<path fill-rule="evenodd" clip-rule="evenodd" fill="#A7CA99" d="M198.162,165.454c0.093-0.458,0.328-0.775,0.641-1.013
			C198.698,164.891,198.468,165.216,198.162,165.454z"/>
		<path fill-rule="evenodd" clip-rule="evenodd" fill="#A7CA99" d="M199.696,163.158c-0.121,0.406-0.318,0.705-0.641,0.896
			C199.16,163.652,199.367,163.355,199.696,163.158z"/>
		<path fill-rule="evenodd" clip-rule="evenodd" fill="#A7CA99" d="M206.183,156.411c-0.202,0.253-0.339,0.586-0.756,0.635
			C205.636,156.792,205.771,156.464,206.183,156.411z"/>
		<path fill-rule="evenodd" clip-rule="evenodd" fill="#A7CA99" d="M208.73,154.497c-0.181,0.329-0.493,0.532-0.887,0.641
			C208.03,154.816,208.336,154.609,208.73,154.497z"/>
		<path fill-rule="evenodd" clip-rule="evenodd" fill="#A7CA99" d="M211.913,152.335c2.564-1.526,5.201-2.956,8.033-4.206
			c0.033,0,0.082,0,0.127,0c-2.741,1.504-5.682,2.814-8.279,4.463C211.788,152.458,211.892,152.436,211.913,152.335z"/>
		<path fill-rule="evenodd" clip-rule="evenodd" fill="#A7CA99" d="M221.343,147.489c0.947-0.622,2.065-1.063,3.183-1.526
			c0.043,0,0.082,0,0.131,0C223.606,146.53,222.569,147.102,221.343,147.489z"/>
		<path fill-rule="evenodd" clip-rule="evenodd" fill="#A7CA99" d="M226.438,145.079c0.613-0.414,1.283-0.759,2.039-1.028
			C227.935,144.544,227.259,144.87,226.438,145.079z"/>
		<path fill-rule="evenodd" clip-rule="evenodd" fill="#A7CA99" d="M228.733,143.93c0.318-0.398,0.873-0.578,1.398-0.763
			C229.82,143.565,229.271,143.739,228.733,143.93z"/>
		<path fill-rule="evenodd" clip-rule="evenodd" fill="#D7E6C4" d="M231.666,113.615c0.191-2.865,0.783-5.325,1.901-7.259
			c-0.833,2.169-1.589,4.427-1.776,7.259C231.748,113.615,231.709,113.615,231.666,113.615z"/>
		<path fill-rule="evenodd" clip-rule="evenodd" fill="#D7E6C4" d="M233.567,106.356c0.197-0.54,0.361-1.088,0.772-1.408
			C234.147,105.474,233.971,106.035,233.567,106.356z"/>
		<path fill-rule="evenodd" clip-rule="evenodd" fill="#D7E6C4" d="M238.793,99.849c-0.596,0.732-1.37,1.266-2.037,1.924
			C237.232,100.923,238.027,100.411,238.793,99.849z"/>
		<path fill-rule="evenodd" clip-rule="evenodd" fill="#D7E6C4" d="M347.451,238.573c2.434,5.405,4.093,11.608,4.713,18.845
			c0,0.129,0,0.255,0,0.383C351.396,250.588,349.715,244.284,347.451,238.573z"/>
		<path fill-rule="evenodd" clip-rule="evenodd" fill="#D7E6C4" d="M344.131,231.948c0.543,0.65,0.953,1.415,1.277,2.283
			C344.876,233.584,344.486,232.776,344.131,231.948z"/>
		<path fill-rule="evenodd" clip-rule="evenodd" fill="#D7E6C4" d="M342.352,228.884c0.114,0.266,0.382,0.386,0.382,0.772
			c-0.355-0.239-0.493-0.699-0.767-1.028C342.138,228.673,342.164,228.854,342.352,228.884z"/>
		<path fill-rule="evenodd" clip-rule="evenodd" fill="#D7E6C4" d="M342.352,228.884c-0.188-0.03-0.214-0.21-0.385-0.255
			c-0.138-0.329-0.46-0.477-0.509-0.894C341.901,227.974,342.033,228.527,342.352,228.884z"/>
		<path fill-rule="evenodd" clip-rule="evenodd" fill="#D7E6C4" d="M340.568,226.473c0.318,0.185,0.528,0.479,0.631,0.884
			C340.887,227.171,340.68,226.867,340.568,226.473z"/>
		<path fill-rule="evenodd" clip-rule="evenodd" fill="#D7E6C4" d="M336.62,221.501c-0.467-0.269-0.687-0.758-1.151-1.021
			c-0.021-0.102-0.126-0.124-0.126-0.249C335.825,220.592,336.246,221.026,336.62,221.501z"/>
		<path fill-rule="evenodd" clip-rule="evenodd" fill="#D7E6C4" d="M335.091,219.849c-0.733-0.639-1.402-1.31-2.039-2.046
			C333.786,218.432,334.46,219.104,335.091,219.849z"/>
		<path fill-rule="evenodd" clip-rule="evenodd" fill="#D7E6C4" d="M328.214,213.597c1.054,0.686,1.989,1.504,2.801,2.424
			C330.001,215.295,329.07,214.49,328.214,213.597z"/>
		<path fill-rule="evenodd" clip-rule="evenodd" fill="#D7E6C4" d="M320.068,205.962c-0.062,0.499-0.564,0.538-0.643,1.014
			c1.13,0.774,2.313,1.51,3.304,2.424c-1.249-0.699-2.345-1.561-3.435-2.424C319.426,206.513,319.694,206.185,320.068,205.962z"/>
		<path fill-rule="evenodd" clip-rule="evenodd" fill="#D7E6C4" d="M322.095,175.768c0.553,0.521,0.976,1.143,1.277,1.917
			C322.867,177.138,322.434,176.497,322.095,175.768z"/>
		<path fill-rule="evenodd" clip-rule="evenodd" fill="#D7E6C4" d="M320.96,174.251c-0.657-0.555-1.255-1.149-1.784-1.79
			C319.815,172.996,320.413,173.594,320.96,174.251z"/>
		<path fill-rule="evenodd" clip-rule="evenodd" fill="#A7CA99" d="M305.543,162.268c0.296,1.444,0.033,3.436,0.119,5.096
			c0.227,0.076,0.759-0.157,0.769,0.128c-0.126,0-0.257,0-0.385,0c-1.084-0.052-0.235-3.422-0.503-4.712
			C305.543,162.611,305.543,162.438,305.543,162.268z"/>
		<path fill-rule="evenodd" clip-rule="evenodd" fill="#A7CA99" d="M300.574,144.944c0.608,0.883,1.206,1.773,1.528,2.933
			C301.57,146.924,301.006,146.018,300.574,144.944z"/>
		<path fill-rule="evenodd" clip-rule="evenodd" fill="#A7CA99" d="M299.17,142.787c0.374,0.252,0.643,0.63,0.768,1.143
			C299.587,143.637,299.334,143.246,299.17,142.787z"/>
		<path fill-rule="evenodd" clip-rule="evenodd" fill="#A7CA99" d="M295.85,138.708c0.429,0.387,0.949,0.672,1.157,1.266
			C296.525,139.653,296.164,139.216,295.85,138.708z"/>
		<path fill-rule="evenodd" clip-rule="evenodd" fill="#A7CA99" d="M295.73,138.448c-0.472-0.364-0.905-0.794-1.276-1.271
			C294.93,137.548,295.363,137.972,295.73,138.448z"/>
		<path fill-rule="evenodd" clip-rule="evenodd" fill="#A7CA99" d="M279.809,127.62c0.651,0.119,1.161,0.375,1.534,0.766
			C280.752,128.202,280.241,127.949,279.809,127.62z"/>
		<path fill-rule="evenodd" clip-rule="evenodd" fill="#A7CA99" d="M270.26,123.291c1.215,0.356,2.207,0.938,3.308,1.397
			c0,0.047,0,0.09,0,0.134C272.444,124.332,271.245,123.916,270.26,123.291z"/>
		<path fill-rule="evenodd" clip-rule="evenodd" fill="#A7CA99" d="M261.466,118.58c2.695,1.808,5.829,3.177,8.794,4.711
			C267.07,121.979,263.969,120.582,261.466,118.58z"/>
		<path fill-rule="evenodd" clip-rule="evenodd" fill="#A7CA99" d="M260.835,118.202c-0.51-0.609-1.057-1.162-1.659-1.649
			c0-0.055,0-0.094,0-0.137c0.646,0.542,1.243,1.137,1.784,1.787C260.911,118.202,260.874,118.202,260.835,118.202z"/>
		<path fill-rule="evenodd" clip-rule="evenodd" fill="#A7CA99" d="M258.282,114.89c0.307,0.501,0.663,0.958,0.894,1.525
			C258.73,116.059,258.381,115.596,258.282,114.89z"/>
		<path fill-rule="evenodd" clip-rule="evenodd" fill="#D7E6C4" d="M259.941,106.23c0.357-0.921,0.788-1.759,1.398-2.419
			C260.939,104.682,260.49,105.506,259.941,106.23z"/>
		<path fill-rule="evenodd" clip-rule="evenodd" fill="#D7E6C4" d="M263.504,100.625c-0.111,0.394-0.313,0.698-0.642,0.892
			C262.977,101.115,263.186,100.811,263.504,100.625z"/>
		<path fill-rule="evenodd" clip-rule="evenodd" fill="#D7E6C4" d="M265.164,98.45c-0.192,0.493-0.488,0.871-0.888,1.148
			C264.468,99.113,264.763,98.734,265.164,98.45z"/>
		<path fill-rule="evenodd" clip-rule="evenodd" fill="#D7E6C4" d="M266.818,96.412c-0.044,0.427-0.391,0.558-0.641,0.775
			C266.221,96.762,266.566,96.634,266.818,96.412z"/>
		<path fill-rule="evenodd" clip-rule="evenodd" fill="#D7E6C4" d="M268.467,94.374c-0.043,0.433-0.378,0.556-0.63,0.775
			C267.882,94.724,268.215,94.596,268.467,94.374z"/>
		<path fill-rule="evenodd" clip-rule="evenodd" fill="#D7E6C4" d="M270.121,92.341c-0.038,0.427-0.373,0.559-0.623,0.77
			C269.541,92.675,269.876,92.549,270.121,92.341z"/>
		<path fill-rule="evenodd" clip-rule="evenodd" fill="#D7E6C4" d="M271.787,90.302c-0.044,0.427-0.384,0.551-0.641,0.767
			C271.19,90.645,271.535,90.516,271.787,90.302z"/>
		<path fill-rule="evenodd" clip-rule="evenodd" fill="#D7E6C4" d="M314.249,212.795c14.382,9.117,25.625,20.516,29.679,38.845
			c1.167,5.269,1.743,10.611,0.132,14.78c-1.508,3.865-4.181,6.931-7.522,9.551c-6.34,4.971-14.503,8.364-23.055,11.083
			c-25.669,8.161-59.37,10.522-92.857,8.397c-20.913-1.316-41.524-4.291-54.903-13.497c-6.86-4.732-11.918-11.634-9.293-23.441
			c4.339-19.54,20.93-23.304,45.093-23.304c21.767,0,45.364,3.169,65.724-0.252c17.139-2.887,30.709-9.034,42.035-17.83
			C310.962,215.816,312.703,214.139,314.249,212.795z"/>
		<path fill-rule="evenodd" clip-rule="evenodd" fill="#D7E6C4" d="M326.687,289.521c0.24-0.484,0.805-0.635,1.402-0.766
			c-0.384,0.388-1.084,0.431-1.402,0.886C326.687,289.604,326.687,289.557,326.687,289.521z"/>
		<path fill-rule="evenodd" clip-rule="evenodd" fill="#D7E6C4" d="M333.179,286.204c0.236-0.354,0.7-0.49,1.146-0.634
			C334.089,285.928,333.633,286.062,333.179,286.204z"/>
		<path fill-rule="evenodd" clip-rule="evenodd" fill="#D7E6C4" d="M342.607,279.703c-0.262,0.376-0.564,0.718-1.019,0.898
			C341.857,280.229,342.153,279.895,342.607,279.703z"/>
		<path fill-rule="evenodd" clip-rule="evenodd" fill="#D7E6C4" d="M342.733,279.703c0.965-1.069,1.983-2.088,3.053-3.05
			C344.827,277.729,343.803,278.739,342.733,279.703z"/>
		<path fill-rule="evenodd" clip-rule="evenodd" fill="#D7E6C4" d="M150.776,275.254c0.285,0.343,0.491,0.779,0.642,1.269
			C151.061,276.237,150.853,275.816,150.776,275.254z"/>
		<path fill-rule="evenodd" clip-rule="evenodd" fill="#D7E6C4" d="M153.069,279.199c-0.379-0.253-0.633-0.638-0.757-1.146
			C152.647,278.35,152.905,278.726,153.069,279.199z"/>
		<path fill-rule="evenodd" clip-rule="evenodd" fill="#D7E6C4" d="M154.854,281.492c-0.251-0.208-0.595-0.343-0.638-0.762
			C154.469,280.941,154.811,281.074,154.854,281.492z"/>
		<path fill-rule="evenodd" clip-rule="evenodd" fill="#D7E6C4" d="M154.854,281.62c1.026,0.922,2.007,1.896,2.933,2.923
			C156.763,283.629,155.777,282.653,154.854,281.62z"/>
		<path fill-rule="evenodd" clip-rule="evenodd" fill="#D7E6C4" d="M326.303,291.173c-0.006,0.499-0.06,0.963-0.253,1.271
			C326.056,291.938,326.111,291.494,326.303,291.173z"/>
		<path fill-rule="evenodd" clip-rule="evenodd" fill="#D7E6C4" d="M325.914,293.215c0,0.497-0.056,0.947-0.252,1.269
			C325.678,293.983,325.722,293.531,325.914,293.215z"/>
		<path fill-rule="evenodd" clip-rule="evenodd" fill="#D7E6C4" d="M325.284,296.65c-0.006,0.496-0.062,0.96-0.259,1.273
			C325.037,297.422,325.091,296.97,325.284,296.65z"/>
		<path fill-rule="evenodd" clip-rule="evenodd" fill="#D7E6C4" d="M324.906,298.688c-0.017,0.499-0.066,0.962-0.259,1.276
			C324.647,299.46,324.713,299.008,324.906,298.688z"/>
		<path fill-rule="evenodd" clip-rule="evenodd" fill="#D7E6C4" d="M324.516,300.733c-0.005,0.495-0.06,0.948-0.252,1.267
			C324.27,301.498,324.319,301.041,324.516,300.733z"/>
		<path fill-rule="evenodd" clip-rule="evenodd" fill="#D7E6C4" d="M324.128,302.759c0,0.507-0.056,0.969-0.242,1.278
			C323.893,303.54,323.941,303.078,324.128,302.759z"/>
		<path fill-rule="evenodd" clip-rule="evenodd" fill="#D7E6C4" d="M323.754,304.799c-0.01,0.505-0.054,0.968-0.246,1.277
			C323.508,305.57,323.563,305.12,323.754,304.799z"/>
		<path fill-rule="evenodd" clip-rule="evenodd" fill="#D7E6C4" d="M323.372,306.837c-0.006,0.507-0.062,0.967-0.259,1.279
			C323.136,307.61,323.179,307.158,323.372,306.837z"/>
		<path fill-rule="evenodd" clip-rule="evenodd" fill="#D7E6C4" d="M323.113,308.243c-0.006,0.499-0.055,0.961-0.246,1.273
			C322.874,309.019,322.923,308.555,323.113,308.243z"/>
		<path fill-rule="evenodd" clip-rule="evenodd" fill="#D7E6C4" d="M322.729,310.276c-0.004,0.503-0.06,0.966-0.251,1.28
			C322.495,311.051,322.539,310.596,322.729,310.276z"/>
		<path fill-rule="evenodd" clip-rule="evenodd" fill="#D7E6C4" d="M322.352,312.313c-0.004,0.507-0.06,0.971-0.257,1.273
			C322.105,313.09,322.16,312.635,322.352,312.313z"/>
		<path fill-rule="evenodd" clip-rule="evenodd" fill="#D7E6C4" d="M321.974,314.352c-0.016,0.506-0.065,0.962-0.257,1.283
			C321.717,315.127,321.782,314.673,321.974,314.352z"/>
		<path fill-rule="evenodd" clip-rule="evenodd" fill="#D7E6C4" d="M321.586,316.391c0,0.506-0.061,0.956-0.253,1.281
			C321.344,317.162,321.389,316.713,321.586,316.391z"/>
		<path fill-rule="evenodd" clip-rule="evenodd" fill="#D7E6C4" d="M321.208,318.431c-0.012,0.507-0.062,0.962-0.248,1.274
			C320.96,319.202,321.021,318.743,321.208,318.431z"/>
		<path fill-rule="evenodd" clip-rule="evenodd" fill="#D7E6C4" d="M320.96,319.828c-0.017,0.507-0.07,0.961-0.268,1.282
			C320.709,320.604,320.758,320.157,320.96,319.828z"/>
		<path fill-rule="evenodd" clip-rule="evenodd" fill="#D7E6C4" d="M320.572,321.868c-0.017,0.506-0.065,0.96-0.258,1.274
			C320.319,322.649,320.368,322.187,320.572,321.868z"/>
		<path fill-rule="evenodd" clip-rule="evenodd" fill="#D7E6C4" d="M320.184,323.907c-0.006,0.504-0.056,0.961-0.248,1.274
			C319.941,324.684,319.99,324.227,320.184,323.907z"/>
		<path fill-rule="evenodd" clip-rule="evenodd" fill="#D7E6C4" d="M319.804,325.944c-0.005,0.499-0.065,0.962-0.257,1.283
			C319.558,326.721,319.606,326.266,319.804,325.944z"/>
		<path fill-rule="evenodd" clip-rule="evenodd" fill="#D7E6C4" d="M319.426,327.983c-0.011,0.499-0.06,0.962-0.25,1.277
			C319.176,328.762,319.235,328.298,319.426,327.983z"/>
		<path fill-rule="evenodd" clip-rule="evenodd" fill="#D7E6C4" d="M319.044,330.023c-0.013,0.499-0.062,0.962-0.259,1.274
			C318.795,330.799,318.846,330.336,319.044,330.023z"/>
		<path fill-rule="evenodd" clip-rule="evenodd" fill="#D7E6C4" d="M318.785,331.422c-0.006,0.506-0.056,0.961-0.252,1.281
			C318.539,332.197,318.595,331.741,318.785,331.422z"/>
		<path fill-rule="evenodd" clip-rule="evenodd" fill="#D7E6C4" d="M318.401,333.459c0,0.502-0.06,0.962-0.258,1.273
			C318.161,334.235,318.205,333.78,318.401,333.459z"/>
		<path fill-rule="evenodd" clip-rule="evenodd" fill="#D7E6C4" d="M318.023,335.501c-0.011,0.498-0.065,0.953-0.257,1.274
			C317.776,336.275,317.833,335.813,318.023,335.501z"/>
		<path fill-rule="evenodd" clip-rule="evenodd" fill="#D7E6C4" d="M317.64,337.539c-0.017,0.497-0.06,0.961-0.251,1.273
			C317.389,338.314,317.448,337.859,317.64,337.539z"/>
		<path fill-rule="evenodd" clip-rule="evenodd" fill="#D7E6C4" d="M317.258,339.57c0,0.505-0.062,0.959-0.253,1.283
			C317.016,340.352,317.06,339.889,317.258,339.57z"/>
		<path fill-rule="evenodd" clip-rule="evenodd" fill="#D7E6C4" d="M316.621,343.006c-0.006,0.508-0.065,0.971-0.253,1.283
			C316.374,343.789,316.43,343.327,316.621,343.006z"/>
		<path fill-rule="evenodd" clip-rule="evenodd" fill="#D7E6C4" d="M316.368,344.417c-0.004,0.505-0.069,0.956-0.263,1.269
			C316.122,345.187,316.178,344.726,316.368,344.417z"/>
		<path fill-rule="evenodd" clip-rule="evenodd" fill="#D7E6C4" d="M316.105,345.823c-0.054,0.818-0.175,1.596-0.503,2.164
			C315.772,347.267,315.855,346.455,316.105,345.823z"/>
		<path fill-rule="evenodd" clip-rule="evenodd" fill="#D7E6C4" d="M312.413,350.919c1.047-0.663,2.247-1.162,2.937-2.174
			C314.835,349.929,313.57,350.361,312.413,350.919z"/>
		<path fill-rule="evenodd" clip-rule="evenodd" fill="#D7E6C4" d="M305.291,354.476c2.279-1.234,4.624-2.418,7.002-3.557
			C310.052,352.197,307.712,353.392,305.291,354.476z"/>
		<path fill-rule="evenodd" clip-rule="evenodd" fill="#D7E6C4" d="M303.63,355.241c0.439-0.328,0.942-0.572,1.523-0.766
			C304.72,354.802,304.207,355.055,303.63,355.241z"/>
		<path fill-rule="evenodd" clip-rule="evenodd" fill="#D7E6C4" d="M301.593,356.128c0.521-0.41,1.238-0.618,1.912-0.887
			C302.979,355.652,302.256,355.874,301.593,356.128z"/>
		<path fill-rule="evenodd" clip-rule="evenodd" fill="#D7E6C4" d="M300.063,356.768c0.347-0.33,0.898-0.452,1.398-0.64
			C301.121,356.466,300.558,356.581,300.063,356.768z"/>
		<path fill-rule="evenodd" clip-rule="evenodd" fill="#D7E6C4" d="M297.521,357.786c0.695-0.436,1.589-0.699,2.416-1.019
			C299.258,357.244,298.372,357.507,297.521,357.786z"/>
		<path fill-rule="evenodd" clip-rule="evenodd" fill="#D7E6C4" d="M294.076,359.061c0.997-0.522,2.186-0.864,3.31-1.274
			C296.415,358.348,295.237,358.695,294.076,359.061z"/>
		<path fill-rule="evenodd" clip-rule="evenodd" fill="#D7E6C4" d="M289.111,360.717c1.519-0.638,3.205-1.114,4.839-1.656
			C292.476,359.761,290.794,360.236,289.111,360.717z"/>
		<path fill-rule="evenodd" clip-rule="evenodd" fill="#A7CA99" d="M289.111,360.717c-1.413,0.501-2.865,0.962-4.464,1.274
			c-0.461,0.088-0.965,0.134-1.267,0.377c-3.106,0.85-6.264,1.647-9.687,2.176c-0.498,0.008-0.954,0.057-1.271,0.253
			c-0.038,0-0.082,0-0.126,0c-1.029,0.119-2.054,0.237-2.931,0.51c-2.542,0.555-5.468,0.729-8.158,1.143c-0.416,0-0.84,0-1.267,0
			c-0.388,0.089-1.101-0.158-1.277,0.128c-0.049,0-0.086,0-0.119,0c-0.476,0.09-1.276-0.159-1.534,0.126c-0.094,0-0.163,0-0.258,0
			c-0.591,0.088-1.527-0.156-1.912,0.131c-0.075,0-0.17,0-0.246,0c-1.94,0.017-3.852,0.06-5.605,0.256c-1.063,0-2.131,0-3.188,0
			c-1.708-0.201-3.583-0.239-5.474-0.256c-0.136,0-0.257,0-0.388,0c-0.345-0.287-1.222-0.043-1.787-0.131c-0.071,0-0.164,0-0.252,0
			c-0.218-0.285-0.963-0.036-1.403-0.126c-0.076,0-0.169,0-0.246,0c-0.181-0.286-0.893-0.039-1.282-0.128c-0.039,0-0.078,0-0.121,0
			c-0.175-0.286-0.894-0.045-1.282-0.124c-1.233-0.026-2.378-0.162-3.435-0.385c-0.477-0.199-1.113-0.243-1.787-0.249
			c-0.69,0.02-1.267-0.093-1.776-0.263c-0.394-0.194-0.947-0.244-1.528-0.253c-0.044,0-0.094,0-0.131,0
			c-0.318-0.185-0.772-0.246-1.267-0.254c-0.625,0.023-1.095-0.102-1.534-0.243c-0.499-0.232-1.144-0.312-1.787-0.386
			c-2.602-0.369-4.914-1.029-7.258-1.661c-0.302-0.255-0.805-0.298-1.271-0.387c-1.041-0.147-1.901-0.469-2.811-0.758
			c-0.422-0.253-0.936-0.427-1.518-0.515c-0.225,0.007-0.4-0.022-0.509-0.127c-1.02-0.479-2.197-0.78-3.315-1.147
			c-0.225,0.02-0.401-0.03-0.503-0.118c-0.784-0.46-1.76-0.721-2.686-1.02c-0.043,0-0.087,0-0.12,0
			c-0.626-0.399-1.392-0.653-2.17-0.898c-0.043,0-0.088,0-0.126,0c-0.548-0.427-1.338-0.611-2.044-0.895
			c-0.493,0.04-0.657-0.275-1.013-0.38c-0.609-0.447-1.418-0.697-2.164-1.019c-0.045,0-0.082,0-0.127,0
			c-0.438-0.319-0.953-0.581-1.534-0.764c-0.043,0-0.088,0-0.125,0c-1.704-1.006-3.595-1.841-5.479-2.674c-0.043,0-0.083,0-0.125,0
			c-1.189-0.632-1.688-1.967-2.165-3.314c-0.181-0.449-0.367-0.904-0.377-1.531c-0.269-1.172-0.509-2.381-0.893-3.431
			c0-0.043,0-0.095,0-0.122c-0.044-0.598-0.165-1.119-0.389-1.537c-0.505-2.046-1.041-4.046-1.398-6.241
			c-0.043-0.596-0.164-1.118-0.388-1.525c-0.493-2.046-1.042-4.058-1.398-6.246c-0.037-0.587-0.164-1.106-0.372-1.53
			c0-0.045,0-0.081,0-0.131c-0.055-0.591-0.17-1.106-0.39-1.524c-0.503-2.046-1.041-4.043-1.397-6.233
			c-0.043-0.597-0.164-1.116-0.39-1.533c-0.497-2.043-1.041-4.049-1.396-6.243c-0.043-0.588-0.165-1.106-0.378-1.526
			c-0.505-2.055-1.052-4.053-1.409-6.243c-0.043-0.586-0.165-1.106-0.378-1.527c-0.499-2.053-1.051-4.046-1.408-6.239
			c-0.043-0.598-0.152-1.11-0.372-1.525c-0.137-0.373-0.295-0.74-0.252-1.283c-0.043,0-0.088,0-0.137,0c0-0.079,0-0.164,0-0.251
			c1.77,0.521,3.266,1.326,4.971,1.912c4.366,17.845,8.174,36.24,12.611,54c2.499,0.989,4.657,2.315,7.129,3.312
			c-2.593-18.037-5.88-36.066-8.279-53.873c1.282,0.164,2.382,0.497,3.566,0.767c2.926,18.217,5.791,36.498,8.667,54.771
			c5.862,2.533,12.235,4.572,19.094,6.115c-1.029-19.048-2.322-38.518-3.177-57.322c0.257,0,0.514,0,0.766,0
			c0.92-0.083,1.6,0.097,2.411,0.127c0.045,0.177,0.285,0.139,0.39,0.254c1.041,19.3,2.098,38.584,3.32,57.707
			c6.016,1.354,13.182,2.252,19.993,2.407c0.547-19.774,1.035-39.63,1.654-59.35c1.151,0.082,2.636-0.172,3.566,0.127
			c-0.592,19.748-1.074,39.596-1.66,59.36c11.446,0.321,22.31-1.049,31.718-3.193c1.079-18.141,2.125-37.175,3.063-55.275
			c0.049-1.07-0.155-2.424,0.629-3.304c1.057-0.103,1.994-0.313,3.063-0.386c-0.729,19.146-2.099,38.738-3.063,58.079
			c7.753-1.846,14.82-4.378,21.4-7.389c2.45-18.611,4.789-37.333,7.396-55.786c1.157-0.285,2.193-0.692,3.437-0.896
			c-1.906,18.172-4.7,36.567-7.008,54.768c2.098-0.742,3.765-1.917,5.731-2.796c3.374-18.402,6.739-36.824,10.31-55.03
			c1.622-0.501,3.36-1.563,4.851-1.775c0,0.035,0,0.082,0,0.12c-0.22,0.421-0.16,1.12-0.384,1.531
			c-0.191,0.321-0.247,0.765-0.253,1.271c0.017,0.313,0.017,0.62-0.136,0.771c-0.192,0.316-0.236,0.769-0.252,1.269
			c-0.05,0.791-0.182,1.524-0.378,2.167c-0.193,0.319-0.247,0.771-0.259,1.273c0.022,0.31,0.028,0.608-0.119,0.764
			c-0.193,0.32-0.259,0.772-0.259,1.276c0.017,0.31,0.017,0.608-0.132,0.77c-0.196,0.308-0.246,0.765-0.252,1.267
			c0.012,0.319,0.012,0.611-0.136,0.759c-0.187,0.319-0.235,0.781-0.242,1.278c0.007,0.313,0.013,0.611-0.132,0.762
			c-0.19,0.321-0.246,0.771-0.246,1.277c0.013,0.314,0.013,0.61-0.136,0.761c-0.193,0.321-0.236,0.773-0.259,1.279
			c0,0.038,0,0.074,0,0.127c-0.19,0.312-0.239,0.775-0.246,1.273c0.011,0.315,0.011,0.608-0.138,0.76
			c-0.19,0.319-0.234,0.774-0.251,1.28c0.017,0.308,0.021,0.614-0.127,0.757c-0.191,0.321-0.246,0.776-0.257,1.273
			c0.021,0.317,0.027,0.616-0.121,0.765c-0.191,0.321-0.257,0.775-0.257,1.283c0.017,0.309,0.017,0.607-0.131,0.756
			c-0.197,0.322-0.242,0.771-0.253,1.281c0.011,0.31,0.022,0.607-0.125,0.759c-0.187,0.313-0.248,0.771-0.248,1.274
			c0,0.052,0,0.088,0,0.123c-0.202,0.329-0.251,0.775-0.268,1.282c0.021,0.312,0.027,0.607-0.12,0.758
			c-0.204,0.318-0.253,0.781-0.258,1.274c0.021,0.321,0.021,0.614-0.131,0.765c-0.193,0.319-0.242,0.776-0.248,1.274
			c0.012,0.313,0.022,0.615-0.132,0.763c-0.197,0.321-0.246,0.776-0.257,1.283c0.011,0.307,0.033,0.608-0.121,0.756
			c-0.19,0.314-0.25,0.778-0.25,1.277c0.01,0.316,0.01,0.607-0.132,0.763c-0.198,0.313-0.249,0.775-0.259,1.274
			c0,0.044,0,0.078,0,0.124c-0.19,0.319-0.246,0.775-0.252,1.281c0.017,0.305,0.017,0.61-0.132,0.756
			c-0.196,0.321-0.24,0.776-0.258,1.273c0.018,0.324,0.023,0.608-0.12,0.769c-0.19,0.313-0.247,0.774-0.257,1.274
			c0.021,0.319,0.021,0.606-0.127,0.764c-0.191,0.32-0.251,0.775-0.251,1.273c0.017,0.314,0.017,0.615-0.131,0.758
			c-0.198,0.318-0.242,0.781-0.253,1.283c-0.055,0.791-0.187,1.523-0.384,2.152c-0.191,0.321-0.247,0.783-0.253,1.283
			c0,0.043,0,0.078,0,0.128c-0.19,0.309-0.246,0.77-0.263,1.269c0,0.044,0,0.094,0,0.138c-0.25,0.632-0.333,1.443-0.503,2.164
			c0.06,0.394-0.182,0.492-0.253,0.758c-0.689,1.012-1.89,1.511-2.937,2.174c-0.044,0-0.088,0-0.12,0
			c-2.378,1.139-4.723,2.322-7.002,3.557c-0.05,0-0.093,0-0.138,0c-0.581,0.193-1.084,0.438-1.523,0.766c-0.043,0-0.087,0-0.125,0
			c-0.674,0.269-1.392,0.477-1.912,0.887c-0.039,0-0.088,0-0.131,0c-0.5,0.188-1.052,0.31-1.398,0.64c-0.044,0-0.087,0-0.126,0
			c-0.827,0.319-1.721,0.583-2.416,1.019c-0.043,0-0.093,0-0.136,0c-1.124,0.41-2.313,0.752-3.31,1.274c-0.039,0-0.082,0-0.126,0
			C292.316,359.603,290.63,360.079,289.111,360.717z"/>
		<path fill-rule="evenodd" clip-rule="evenodd" fill="#D7E6C4" d="M283.381,362.368c0.302-0.243,0.806-0.289,1.267-0.377
			C284.352,362.245,283.846,362.299,283.381,362.368z"/>
		<path fill-rule="evenodd" clip-rule="evenodd" fill="#D7E6C4" d="M272.423,364.797c0.317-0.196,0.773-0.245,1.271-0.253
			C273.382,364.731,272.917,364.788,272.423,364.797z"/>
		<path fill-rule="evenodd" clip-rule="evenodd" fill="#D7E6C4" d="M269.366,365.307c0.877-0.272,1.901-0.391,2.931-0.51
			C271.448,365.087,270.434,365.229,269.366,365.307z"/>
		<path fill-rule="evenodd" clip-rule="evenodd" fill="#D7E6C4" d="M248.989,367.09c1.753-0.196,3.665-0.239,5.605-0.256
			c0,0.046,0,0.082,0,0.125c-0.088,0-0.177,0-0.263,0c-0.723,0.086-1.77-0.161-2.291,0.131
			C251.028,367.09,250.003,367.09,248.989,367.09z"/>
		<path fill-rule="evenodd" clip-rule="evenodd" fill="#D7E6C4" d="M240.327,366.959c0-0.043,0-0.079,0-0.125
			c1.891,0.017,3.766,0.055,5.474,0.256c-0.981,0-1.951,0-2.931,0c-0.466-0.292-1.486-0.045-2.164-0.131
			C240.579,366.959,240.454,366.959,240.327,366.959z"/>
		<path fill-rule="evenodd" clip-rule="evenodd" fill="#D7E6C4" d="M230.132,365.94c-0.669-0.006-1.304-0.057-1.787-0.249
			C229.019,365.697,229.655,365.741,230.132,365.94z"/>
		<path fill-rule="evenodd" clip-rule="evenodd" fill="#D7E6C4" d="M226.569,365.429c-0.591-0.008-1.133-0.052-1.528-0.253
			C225.623,365.185,226.175,365.234,226.569,365.429z"/>
		<path fill-rule="evenodd" clip-rule="evenodd" fill="#D7E6C4" d="M224.91,365.176c-0.505-0.007-0.954-0.06-1.267-0.254
			C224.138,364.93,224.592,364.991,224.91,365.176z"/>
		<path fill-rule="evenodd" clip-rule="evenodd" fill="#D7E6C4" d="M222.11,364.679c-0.684-0.044-1.31-0.144-1.787-0.386
			C220.966,364.367,221.611,364.446,222.11,364.679z"/>
		<path fill-rule="evenodd" clip-rule="evenodd" fill="#D7E6C4" d="M213.065,362.632c-0.466-0.077-0.97-0.126-1.271-0.387
			C212.26,362.334,212.763,362.377,213.065,362.632z"/>
		<path fill-rule="evenodd" clip-rule="evenodd" fill="#D7E6C4" d="M208.982,361.487c-0.581-0.094-1.096-0.261-1.518-0.515
			C208.046,361.061,208.56,361.234,208.982,361.487z"/>
		<path fill-rule="evenodd" clip-rule="evenodd" fill="#D7E6C4" d="M206.956,360.846c-1.178-0.305-2.345-0.626-3.315-1.147
			C204.759,360.065,205.936,360.367,206.956,360.846z"/>
		<path fill-rule="evenodd" clip-rule="evenodd" fill="#D7E6C4" d="M203.137,359.58c-0.938-0.299-1.912-0.566-2.686-1.02
			C201.377,358.859,202.353,359.12,203.137,359.58z"/>
		<path fill-rule="evenodd" clip-rule="evenodd" fill="#D7E6C4" d="M200.332,358.561c-0.778-0.245-1.552-0.498-2.17-0.898
			C198.94,357.907,199.706,358.161,200.332,358.561z"/>
		<path fill-rule="evenodd" clip-rule="evenodd" fill="#D7E6C4" d="M198.036,357.662c-0.708-0.276-1.491-0.464-2.044-0.895
			C196.698,357.051,197.488,357.235,198.036,357.662z"/>
		<path fill-rule="evenodd" clip-rule="evenodd" fill="#D7E6C4" d="M194.979,356.388c-0.757-0.299-1.562-0.559-2.164-1.019
			C193.561,355.69,194.37,355.94,194.979,356.388z"/>
		<path fill-rule="evenodd" clip-rule="evenodd" fill="#D7E6C4" d="M192.688,355.369c-0.581-0.187-1.09-0.436-1.534-0.764
			C191.735,354.788,192.25,355.05,192.688,355.369z"/>
		<path fill-rule="evenodd" clip-rule="evenodd" fill="#D7E6C4" d="M191.028,354.605c-1.841-0.865-3.743-1.689-5.479-2.674
			C187.434,352.765,189.324,353.6,191.028,354.605z"/>
		<path fill-rule="evenodd" clip-rule="evenodd" fill="#D7E6C4" d="M185.423,351.932c-1.294-0.529-1.875-1.781-2.165-3.314
			C183.735,349.965,184.234,351.3,185.423,351.932z"/>
		<path fill-rule="evenodd" clip-rule="evenodd" fill="#D7E6C4" d="M182.881,347.086c-0.434-1.007-0.674-2.212-0.893-3.431
			C182.372,344.705,182.612,345.914,182.881,347.086z"/>
		<path fill-rule="evenodd" clip-rule="evenodd" fill="#D7E6C4" d="M181.988,343.533c-0.225-0.428-0.345-0.939-0.389-1.537
			C181.824,342.414,181.944,342.936,181.988,343.533z"/>
		<path fill-rule="evenodd" clip-rule="evenodd" fill="#D7E6C4" d="M180.202,335.755c-0.224-0.419-0.339-0.934-0.388-1.525
			C180.038,334.637,180.159,335.159,180.202,335.755z"/>
		<path fill-rule="evenodd" clip-rule="evenodd" fill="#D7E6C4" d="M178.415,327.983c-0.208-0.414-0.329-0.935-0.372-1.53
			C178.251,326.877,178.378,327.396,178.415,327.983z"/>
		<path fill-rule="evenodd" clip-rule="evenodd" fill="#D7E6C4" d="M178.043,326.322c-0.219-0.404-0.34-0.927-0.39-1.524
			C177.873,325.216,177.988,325.731,178.043,326.322z"/>
		<path fill-rule="evenodd" clip-rule="evenodd" fill="#D7E6C4" d="M176.257,318.564c-0.225-0.427-0.345-0.939-0.39-1.533
			C176.093,317.448,176.214,317.968,176.257,318.564z"/>
		<path fill-rule="evenodd" clip-rule="evenodd" fill="#D7E6C4" d="M174.471,310.788c-0.224-0.423-0.339-0.936-0.378-1.526
			C174.307,309.682,174.428,310.2,174.471,310.788z"/>
		<path fill-rule="evenodd" clip-rule="evenodd" fill="#D7E6C4" d="M172.685,303.019c-0.224-0.421-0.334-0.937-0.378-1.527
			C172.52,301.912,172.641,302.433,172.685,303.019z"/>
		<path fill-rule="evenodd" clip-rule="evenodd" fill="#D7E6C4" d="M170.898,295.252c-0.208-0.418-0.329-0.947-0.372-1.525
			C170.746,294.142,170.855,294.654,170.898,295.252z"/>
		<path fill-rule="evenodd" clip-rule="evenodd" fill="#D7E6C4" d="M270.769,89.673c0.252,0,0.516,0,0.767,0
			c-10.694,1.871-21.833,3.303-29.685,8.02C249.285,92.812,260.271,91.486,270.769,89.673z"/>
		<path fill-rule="evenodd" clip-rule="evenodd" fill="#D7E6C4" d="M258.282,114.89c-1.14-2.463,0.108-5.794,1.145-7.649
			C258.632,109.301,257.472,112.032,258.282,114.89z"/>
		<path fill-rule="evenodd" clip-rule="evenodd" fill="#A7CA99" d="M231.791,113.615c0,1.4,0,2.8,0,4.199c0,0.135,0,0.258,0,0.387
			c-0.29-0.521-0.055-1.578-0.125-2.291c0-0.427,0-0.849,0-1.282c0-0.337,0-0.68,0-1.014
			C231.709,113.615,231.748,113.615,231.791,113.615z"/>
		<path fill-rule="evenodd" clip-rule="evenodd" fill="#A7CA99" d="M231.791,117.814c0.423,3.23,1.096,6.739,1.912,10.315
			c0.971,4.292,3.217,10.809-0.382,12.87c0.552-0.743,1.583-1.533,1.78-2.424c0.329-1.461-0.043-3.677-0.384-5.477
			c-0.871-4.703-2.712-10.284-2.926-14.896C231.791,118.072,231.791,117.949,231.791,117.814z"/>
		<path fill-rule="evenodd" clip-rule="evenodd" fill="#A7CA99" d="M302.864,149.661c1.38,3.073,2.246,6.669,2.542,10.821
			c0,0.131,0,0.261,0,0.387C304.956,156.748,304.06,153.046,302.864,149.661z"/>
		<path fill-rule="evenodd" clip-rule="evenodd" fill="#A7CA99" d="M306.431,167.492c4.065,0.223,7.237,1.34,9.938,2.932
			c0,0.133,0.094,0.148,0.128,0.253c-2.769-1.772-6.356-2.73-10.45-3.186C306.174,167.492,306.305,167.492,306.431,167.492z"/>
		<path fill-rule="evenodd" clip-rule="evenodd" fill="#A7CA99" d="M193.581,180.99c0.247-5.15,1.349-9.435,3.185-12.991
			c0,0.045,0,0.088,0,0.134c-1.622,3.688-2.823,7.794-3.058,12.857C193.663,180.99,193.626,180.99,193.581,180.99z"/>
		<path fill-rule="evenodd" clip-rule="evenodd" fill="#A7CA99" d="M193.581,185.065c-0.087-1.54-0.087-2.528,0-4.076
			c0.045,0,0.082,0,0.127,0c0,1.362,0,2.723,0,4.076C193.663,185.065,193.626,185.065,193.581,185.065z"/>
		<path fill-rule="evenodd" clip-rule="evenodd" fill="#D7E6C4" d="M325.787,182.642c0.259,0.223,0.345,0.594,0.39,1.027
			C325.925,183.46,325.825,183.072,325.787,182.642z"/>
		<path fill-rule="evenodd" clip-rule="evenodd" fill="#A7CA99" d="M193.708,185.958c0.284,0.299,0.043,1.148,0.125,1.661
			c0,0.085,0,0.172,0,0.25c-0.296-0.22-0.043-0.971-0.125-1.404C193.708,186.304,193.708,186.132,193.708,185.958z"/>
		<path fill-rule="evenodd" clip-rule="evenodd" fill="#A7CA99" d="M193.833,187.619c0.191,0.605,0.236,1.378,0.252,2.167
			c0,0.08,0,0.164,0,0.251c-0.209-0.602-0.258-1.356-0.252-2.168C193.833,187.791,193.833,187.705,193.833,187.619z"/>
		<path fill-rule="evenodd" clip-rule="evenodd" fill="#D7E6C4" d="M159.827,226.845c0.323,3.458,0.859,6.703,1.906,9.432
			c-0.208,0.255-0.345,0.598-0.762,0.636c0.992-1.021-0.252-2.903-0.634-4.712c-0.351-1.622-0.423-3.153-0.509-4.717
			C159.827,227.275,159.827,227.067,159.827,226.845z"/>
		<path fill-rule="evenodd" clip-rule="evenodd" fill="#D7E6C4" d="M148.486,266.586c0.424,2.167,0.729,4.46,1.396,6.377
			c0,0.04,0,0.083,0,0.122c-0.769-1.475-0.972-3.521-1.396-5.345C148.486,267.354,148.486,266.977,148.486,266.586z"/>
		<path fill-rule="evenodd" clip-rule="evenodd" fill="#D7E6C4" d="M149.882,272.963c0.321,0.746,0.686,1.429,0.894,2.291
			c-0.414-0.601-0.729-1.31-0.894-2.169C149.882,273.046,149.882,273.003,149.882,272.963z"/>
		<path fill-rule="evenodd" clip-rule="evenodd" fill="#D7E6C4" d="M233.703,366.449c0.379,0,0.757,0,1.146,0
			c0.043,0,0.082,0,0.121,0c0,0.043,0,0.089,0,0.128C234.58,366.499,233.873,366.746,233.703,366.449z"/>
		<path fill-rule="evenodd" clip-rule="evenodd" fill="#D7E6C4" d="M259.941,366.449c0.427,0,0.851,0,1.267,0
			c-0.176,0.297-0.883,0.05-1.267,0.128C259.941,366.538,259.941,366.492,259.941,366.449z"/>
		<path fill-rule="evenodd" clip-rule="evenodd" fill="#D7E6C4" d="M235.101,366.577c0.378,0,0.762,0,1.15,0c0.077,0,0.17,0,0.246,0
			c0,0.044,0,0.096,0,0.126C236.07,366.627,235.325,366.866,235.101,366.577z"/>
		<path fill-rule="evenodd" clip-rule="evenodd" fill="#D7E6C4" d="M258.664,366.577c0.384,0,0.763,0,1.141,0
			c-0.175,0.289-0.882,0.05-1.26,0.126c0-0.03,0-0.082,0-0.126C258.578,366.577,258.615,366.577,258.664,366.577z"/>
		<path fill-rule="evenodd" clip-rule="evenodd" fill="#D7E6C4" d="M236.628,366.703c0.423,0,0.856,0,1.271,0
			c0.088,0,0.181,0,0.252,0c0,0.043,0,0.088,0,0.131C237.682,366.755,236.892,367.002,236.628,366.703z"/>
		<path fill-rule="evenodd" clip-rule="evenodd" fill="#D7E6C4" d="M257.011,366.703c0.422,0,0.849,0,1.271,0
			c-0.259,0.299-1.058,0.052-1.529,0.131c0-0.043,0-0.088,0-0.131C256.848,366.703,256.917,366.703,257.011,366.703z"/>
		<path fill-rule="evenodd" clip-rule="evenodd" fill="#D7E6C4" d="M238.415,366.834c0.505,0,1.02,0,1.523,0
			c0.131,0,0.252,0,0.388,0c0,0.046,0,0.082,0,0.125C239.731,366.88,238.793,367.125,238.415,366.834z"/>
		<path fill-rule="evenodd" clip-rule="evenodd" fill="#D7E6C4" d="M240.707,366.959c0.678,0.086,1.698-0.161,2.164,0.131
			c-0.718,0-1.441,0-2.164,0C240.707,367.045,240.707,367.011,240.707,366.959z"/>
		<path fill-rule="evenodd" clip-rule="evenodd" fill="#A7CA99" d="M305.406,160.481c0.301,0.351,0.056,1.237,0.137,1.786
			c0,0.17,0,0.344,0,0.512c-0.302-0.385-0.044-1.314-0.137-1.912C305.406,160.743,305.406,160.613,305.406,160.481z"/>
		<path fill-rule="evenodd" clip-rule="evenodd" fill="#D7E6C4" d="M255.016,100.447c0.115-0.03,0.121,0.044,0.138,0.126
			c-1.803,3.706-3.978,6.517-4.339,11.215c-0.646,8.476,5.14,12.591,10.7,15.656c11.505,6.361,25,9.362,32.227,20.39
			c2.4,3.646,4.361,8.893,4.719,15.024c0.119,2.046,0.464,4.933-0.133,6.375c-0.362,0.848-2.931,2.175-4.333,3.051
			c-4.624,2.9-9.228,5.679-14.263,7.905c-7.116,3.123-14.831,5.148-23.061,6.488c-17.428,2.844-37.376,1.889-55.271,3.824
			c-0.361-3.049-0.657-4.532-0.641-7.134c0.115-17.202,12.454-23.652,24.584-29.435c6.195-2.946,15.478-6.024,16.934-13.619
			c0.778-4.029-0.454-8.628-1.396-12.611c-1.347-5.676-3.429-12.029-1.019-17.446C242.294,104.794,249.055,102.277,255.016,100.447z
			"/>
		<path fill-rule="evenodd" clip-rule="evenodd" fill="#D7E6C4" d="M326.177,183.669c2.279,4.24,0.828,11.363-1.271,14.645
			C326.752,194.667,328.214,188.233,326.177,183.669z"/>
		<path fill-rule="evenodd" clip-rule="evenodd" fill="#D7E6C4" d="M168.021,233.042c-3.862-15.944,4.066-27.195,15.162-31.455
			c11.757-4.522,27.711-4.621,43.304-5.356c15.769-0.746,30.869-1.622,43.563-5.09c12.981-3.558,23.155-9.541,32.994-16.178
			c4.132,0.093,7.605,0.693,10.186,2.411c3.102,2.083,5.814,6.536,6.751,10.579c0.82,3.529-1.311,7.772-3.058,10.57
			c-4.712,7.547-11.72,13.245-19.236,17.961c-10.29,6.46-22.869,10.666-37.318,12.227c-7.829,0.85-15.882,0.663-23.947,0.381
			C213.383,228.306,185.505,225.728,168.021,233.042z"/>
		<path fill-rule="evenodd" clip-rule="evenodd" fill="#D7E6C4" d="M352.164,257.418c0.289,0.298,0.043,1.147,0.125,1.652
			c0,0.263,0,0.514,0,0.769c-0.302-0.427-0.044-1.402-0.125-2.038C352.164,257.673,352.164,257.547,352.164,257.418z"/>
		<path fill-rule="evenodd" clip-rule="evenodd" fill="#D7E6C4" d="M254.841,366.834c0.554,0,1.113,0,1.66,0
			c-0.383,0.291-1.314,0.046-1.906,0.125c0-0.043,0-0.079,0-0.125C254.671,366.834,254.766,366.834,254.841,366.834z"/>
		<path fill-rule="evenodd" clip-rule="evenodd" fill="#D7E6C4" d="M252.041,367.09c0.521-0.292,1.568-0.045,2.291-0.131
			c0,0.052,0,0.086,0,0.131C253.576,367.09,252.814,367.09,252.041,367.09z"/>
	</g>
</g>
</svg>
