<?xml version="1.0" encoding="utf-8"?>
<!-- Generator: Adobe Illustrator 16.0.0, SVG Export Plug-In . SVG Version: 6.00 Build 0)  -->
<!DOCTYPE svg PUBLIC "-//W3C//DTD SVG 1.1//EN" "http://www.w3.org/Graphics/SVG/1.1/DTD/svg11.dtd">
<svg version="1.1" id="Capa_1" xmlns="http://www.w3.org/2000/svg" xmlns:xlink="http://www.w3.org/1999/xlink" x="0px" y="0px"
	 width="500px" height="500px" viewBox="0 0 500 500" enable-background="new 0 0 500 500" xml:space="preserve">
<g>
	<path fill-rule="evenodd" clip-rule="evenodd" fill="#8BBE6B" d="M288.656,303.838c0,17.551-12.057,31.775-26.918,31.775H28.393
		c-14.871,0-26.932-14.225-26.932-31.775V196.162c0-17.549,12.061-31.773,26.932-31.773h233.346
		c14.861,0,26.918,14.225,26.918,31.773V303.838z"/>
	<g>
		<path fill-rule="evenodd" clip-rule="evenodd" fill="#D7E6C4" d="M120.682,219.57c5.732-2.301,13.432-1.359,18.467,1.152
			c2.947,2.291,12.592-9.336,28.74-5.553c-0.135,2.016,14.191,5.746,14.061,7.758c2.744,4.705,9.127,16.543,8.596,15.531
			c-0.328,1.582,3.02,19.723,2.633,19.723c-1.277,1.123-0.535,15.545-4.514,22.865c0.303-0.088-2.725,5.244-9.236,18.352
			c-12.9,13.113-28.27,13.574-28.947,13.432c-14.057,7.658-38.26-9.156-41.648-15.322c-12.232-11.324-10.166-43.17-10.91-43.109
			c-0.486-2.355,9.061-25.947,9.961-26.127C108.02,229.598,116.229,220.666,120.682,219.57z M176.76,240.033
			c0.354-1.457-1.578-2.693-0.402-3.625c-0.461,0.82,0.631,1.918,0.807,0.807c-0.701-3.24-9.189-4.813-8.465-0.404
			c0.609,2.35,2.057,3.859,1.617,7.256c-1.156-0.088-2.043,0.094-2.416,0.803c0.711,0.23,2.365-0.492,2.416,0.402
			c-1.686,6.293,2.025,15.004,6.443,8.857c0-0.529,0-1.076,0-1.605c1.143-2.666,1.305-9.061,0-11.684
			C176.76,240.563,176.76,240.301,176.76,240.033z"/>
		<path fill-rule="evenodd" clip-rule="evenodd" fill="#D7E6C4" d="M120.58,183.389c6.529-4.164,23.811-1.789,27.697,11.955
			c-1.287,6.213-19.355,8.941-21.711,2.408c-0.887-1.41-6.252-5.357-7.67-6.23c-0.746-0.059-6.445,0-6.711-0.533
			C112.424,190.143,120.775,184.652,120.58,183.389z"/>
		<path fill-rule="evenodd" clip-rule="evenodd" fill="#8BBE6B" d="M134.861,202.578c-14.912-1.156-12.418-15.746-24.158-8.461
			c-1.316-2.723,1.928-5.873,4.424-8.064c5.598-4.896,15.123-8.953,23.371-4.029c0.594,0.217,1.006,0.604,1.605,0.807
			c0.133,0,4.805,2.588,8.486,10.514c1.67,3.305-1.1,5.574-3.166,6.41c-0.105,4.619-2.924,15.311-3.758,19.609
			c4.574-2.279,10.986-5.055,16.969-5.912c2.01,0,3.695-0.484,6.043,0c4.256-0.258,12.232,3.602,14.902,6.035
			c2.895,2.076,6.037,6.17,8.064,9.67c3.48,6.588,5.645,14.492,6.445,23.764c0.439,4.203,0.193,6.834,0,11.686
			c-3.232,29.813-18.379,47.689-47.943,51.158c-2.285,0-4.564,0-6.85,0c-28.398-3.564-40.498-23.414-42.697-53.172
			c0-1.754,0-3.49,0-5.238c1.111-18.793,8.42-34.432,24.576-39.471c4.338-1.033,9.16-2.186,16.814,1.688
			c0.715-0.758,2.914-11.32,3.363-15.316c0.143-0.959,0.51-1.246-0.111-2.307C138.535,202.777,137.051,202.686,134.861,202.578z
			 M124.141,194.604c5.564,7.771,18.359,7.455,23.09,0.844c-2.107-10.287-19.098-20.564-34.098-4.459
			c2.73-1.473,5.854-0.061,6.613,0C121.055,192.012,122.678,192.717,124.141,194.604z M182.053,225.342
			c-8.139-9.34-22.156-11.328-34.094-6.195c-1.607,0.686-6.912,4.203-7.055,4.203c-1.332,1.08-3.721,3.57-3.854,3.57
			c-1.785,1.438-3.066,2.826-4.51,4.615c-1.643,1.973-4.934,7.102-4.934,7.234c-3.504,5.76-4.67,14.49-4.93,23.498
			c-0.42,10.273,1.578,20.873,4.137,28.117c-3.592-5.672-5.502-13.025-6.855-20.941c-0.742-5.082-0.398-8.605-0.398-10.883
			c0.973-9.906,3.391-18.354,7.654-24.973c0-0.135,3.029-4.627,4.828-6.443c0.098-0.57,3.92-4.145,4.063-5.477
			c-11.432-5.246-19.717,1.26-22.76,3.775c-7.686,6.279-14.168,19.098-14.482,34.934c0.314,14.475,5.777,26.41,5.777,26.537
			c2.408,6.5,9.332,15.533,15,18.57c1.898,1.721,8.566,4.621,8.705,4.621c7.322,3.355,16.143,2.9,25.488,1.465
			c5.506-1.328,12.957-4.217,16.055-6.404c4.971-3.301,8.875-6.568,12.061-12.375c2.066-2.664,4.594-9.068,5.137-10.811
			c0-0.127,3.287-9.777,4.09-15.41c0-0.67,0.375-4.615,0.424-5.773c0-1.885-0.207-4.521-0.207-6.398
			c-0.254-1.355-0.885-8.16-1.494-9.818C189.125,236.49,184.09,227.799,182.053,225.342z"/>
	</g>
	<rect x="270.209" y="176.832" fill-rule="evenodd" clip-rule="evenodd" fill="#8BBE6B" width="228.33" height="55.629"/>
	<text transform="matrix(1 0 0 1 315.5313 220.1055)" fill="#D7E6C4" font-family="'GillSansMT'" font-size="47.3104">Durazno</text>
</g>
</svg>
