<?xml version="1.0" encoding="utf-8"?>
<!-- Generator: Adobe Illustrator 16.0.0, SVG Export Plug-In . SVG Version: 6.00 Build 0)  -->
<!DOCTYPE svg PUBLIC "-//W3C//DTD SVG 1.1 Basic//EN" "http://www.w3.org/Graphics/SVG/1.1/DTD/svg11-basic.dtd">
<svg version="1.1" baseProfile="basic" id="Capa_1" xmlns="http://www.w3.org/2000/svg" xmlns:xlink="http://www.w3.org/1999/xlink"
	 x="0px" y="0px" width="500px" height="500px" viewBox="0 0 500 500" xml:space="preserve">
<g>
	<path fill-rule="evenodd" clip-rule="evenodd" fill="#A7CA99" stroke="#5B381B" stroke-width="2" stroke-miterlimit="10" d="
		M446.289,250.003c0,138.396-87.885,250.592-196.288,250.592c-108.409,0-196.29-112.196-196.29-250.592
		c0-138.4,87.881-250.596,196.29-250.596C358.404-0.593,446.289,111.603,446.289,250.003z"/>
	<g>
		<path fill-rule="evenodd" clip-rule="evenodd" fill="#EDCACA" d="M143.953,175.098c0,0-3.85,28.012,12.895,57.312
			c36.296,63.516,192.466,45.37,204.889-19.105C375.604,141.281,190.754,79.578,143.953,175.098z"/>
		<path fill-rule="evenodd" clip-rule="evenodd" fill="#8BBE6B" d="M167.828,251.987c0,0,33.178,73.774,18.979,90.855
			c0,0,83.23,31.41,125.064-3.033c0,0-7.447-26.691,26.937-87.822C338.809,251.987,240.425,304.523,167.828,251.987z"/>
		<path fill-rule="evenodd" clip-rule="evenodd" fill="#492A1F" d="M278.131,111.926c-11.85-2.609-39.715,14.865-52.201-1.633
			c-14.736-23.692,15.429-31.812,34.916-36.439c-15.049-7.602-24.782-41.891-9.289-49.222c14.626,3.02-2.479,15.58,0.525,24.7
			c3.269,13.423,25.146,7.423,25.23,24.174c-5.663,16.975-42.154,17.71-41.505,24.99c17.799,17.537,42.604-12.98,63.93-3.504
			c-0.066,41.306-48.376,38.269-84.202,42.981c-20.624,2.713-29.293,1.353-48.188,14.763c-28.477,20.202-25.052,57.56-4.65,82.464
			c27.52,33.581,101.782,43.559,148.409,22.668c10.951-4.908,25.694-13.068,31.589-19.785c15.01-17.116,19.992-46.648-3.887-69.196
			c-14.325-16.238-42.182-39.764-85.49-24.751c-10.812,3.748-32.952,23.798-43.457,47.299c-14.329-7.264,16.6-40.752,27.425-48.628
			c53.246-34.336,109.163,7.934,126.781,40.409c16.769,64.954-60.394,84.36-48.024,161.281
			c-30.438,22.249-102.365,13.166-128.982,2.752c-0.964-14.81-0.684-27.821-3.627-41.104
			c-12.639-57.069-70.52-94.171-36.094-147.497c3.537-5.482,16.097-17.779,24.228-22.48
			C203.732,117.567,247.584,130.945,278.131,111.926z M195.113,338.84c31.392,8.416,58.619,19.356,112.019,1.271
			c-3.922-27.144,6.397-58.413,21.727-78.802c-22.952,17.021-88.899,23.741-124.42,12.208c-10.764-3.49-23.238-7.212-33.252-13.62
			C190.754,283.51,191.212,311.117,195.113,338.84z"/>
	</g>
	<circle fill-rule="evenodd" clip-rule="evenodd" fill="#CD3C3B" cx="314.953" cy="209.057" r="10.029"/>
	<path fill-rule="evenodd" clip-rule="evenodd" fill="#CD3C3B" d="M260.031,219.085c0,5.538-4.494,10.03-10.03,10.03
		c-5.54,0-10.029-4.492-10.029-10.03c0-5.537,4.489-10.028,10.029-10.028C255.537,209.057,260.031,213.548,260.031,219.085z"/>
	<path fill-rule="evenodd" clip-rule="evenodd" fill="#CD3C3B" d="M283.475,166.675c0,5.537-4.487,10.027-10.027,10.027
		c-5.537,0-10.031-4.49-10.031-10.027c0-5.538,4.494-10.031,10.031-10.031C278.987,156.644,283.475,161.137,283.475,166.675z"/>
	<g>
		<path fill="#492A1F" d="M176.741,424.932c-1.536,1.871-3.293,3.595-5.267,5.168c-1.973,1.569-4.076,2.921-6.314,4.063
			c-2.245,1.134-4.564,2.019-6.975,2.654c-2.407,0.635-4.813,0.951-7.219,0.951c-3.88,0-7.472-0.836-10.782-2.503
			c-3.312-1.675-6.169-3.884-8.574-6.622c-2.407-2.738-4.28-5.881-5.618-9.424c-1.337-3.55-2.006-7.155-2.006-10.835
			c0-4.881,0.804-9.497,2.406-13.844c1.604-4.347,3.796-8.272,6.574-11.783c2.771-3.508,6.045-6.534,9.824-9.076
			c3.778-2.542,7.809-4.448,12.087-5.72c0.603-0.196,1.305-0.396,2.104-0.601c0.803-0.2,1.875-0.4,3.21-0.604
			c1.337-0.2,3.042-0.365,5.118-0.495c2.068-0.137,4.676-0.204,7.821-0.204c0.603,0,1.136,0.103,1.603,0.303
			c0.471,0.196,0.701,0.663,0.701,1.404c0,0.533-0.103,1.218-0.297,2.054c-0.202,0.839-0.669,1.253-1.404,1.253
			c-0.068,0-0.438-0.052-1.103-0.15c-0.669-0.095-1.439-0.218-2.307-0.352c-0.873-0.13-1.791-0.249-2.759-0.351
			c-0.972-0.099-1.855-0.151-2.659-0.151c-4.95,0-9.609,0.839-13.991,2.507c-4.382,1.672-8.225,4.045-11.536,7.121
			c-3.307,3.079-5.916,6.772-7.82,11.084c-1.907,4.312-2.858,9.107-2.858,14.392c0,4.08,0.532,7.875,1.606,11.387
			c1.067,3.507,2.688,6.569,4.861,9.174c2.175,2.609,4.884,4.652,8.124,6.12c3.241,1.471,7.005,2.208,11.283,2.208
			c2.073,0,3.979-0.238,5.716-0.702c1.738-0.467,3.378-1.088,4.917-1.854c1.536-0.772,3.039-1.671,4.512-2.711
			c1.472-1.039,2.974-2.124,4.514-3.262c0.267-0.2,0.585-0.467,0.955-0.8c0.365-0.334,0.75-0.502,1.151-0.502
			C176.604,424.229,176.741,424.464,176.741,424.932z"/>
		<path fill="#492A1F" d="M203.12,427.038c0,0.537-0.239,1.222-0.702,2.058c-0.471,0.835-1.054,1.636-1.752,2.408
			c-0.706,0.766-1.445,1.437-2.213,2.001c-0.765,0.569-1.42,0.854-1.952,0.854c-0.672,0-1.271-0.316-1.808-0.955
			c-0.537-0.632-0.968-1.316-1.305-2.051c-0.332-0.733-0.581-1.422-0.749-2.054c-0.169-0.636-0.285-0.958-0.354-0.958
			c-1.202,1.541-2.675,2.928-4.409,4.164c-1.743,1.232-3.58,1.854-5.518,1.854c-1.943,0-3.543-0.702-4.814-2.106
			c-1.271-1.404-1.908-3.104-1.908-5.112c0-1.938,0.554-3.929,1.656-5.969c1.102-2.04,2.542-3.894,4.313-5.565
			c1.771-1.671,3.713-3.026,5.818-4.065c2.106-1.032,4.16-1.556,6.167-1.556c1.004,0,1.974,0.274,2.91,0.805
			c0.935,0.537,1.405,1.372,1.405,2.507c0,0.674-0.19,1.292-0.555,1.857c-0.369,0.564-0.84,1.057-1.405,1.453
			c-0.566,0.404-1.187,0.699-1.855,0.906c-0.669,0.196-1.301,0.298-1.904,0.298c-0.269,0-0.502-0.035-0.7-0.102
			c-0.2-0.063-0.303-0.267-0.303-0.601c0-0.2,0.114-0.4,0.35-0.604c0.233-0.196,0.502-0.414,0.804-0.649
			c0.303-0.232,0.569-0.467,0.807-0.702c0.229-0.235,0.347-0.485,0.347-0.752c0-0.403-0.201-0.772-0.599-1.105
			c-0.403-0.334-0.874-0.499-1.405-0.499c-1.405,0-2.759,0.334-4.063,1.004c-1.305,0.668-2.458,1.535-3.46,2.605
			c-1.001,1.074-1.807,2.289-2.409,3.658c-0.602,1.377-0.904,2.76-0.904,4.165c0,1.541,0.404,2.974,1.206,4.312
			c0.805,1.341,2.107,2.008,3.91,2.008c1.074,0,2.04-0.438,2.91-1.303c0.867-0.87,1.569-1.671,2.105-2.408
			c0.604-0.804,0.953-1.688,1.055-2.654c0.101-0.973,0.231-1.875,0.402-2.711c0.165-0.832,0.518-1.538,1.05-2.11
			c0.537-0.564,1.539-0.85,3.011-0.85c0.201,0,0.3,0.268,0.3,0.805s-0.051,1.285-0.149,2.254c-0.1,0.973-0.15,1.99-0.15,3.058
			c0,1.142,0.15,2.125,0.451,2.96c0.298,0.836,0.92,1.254,1.855,1.254c0.402,0,0.816-0.116,1.253-0.352
			c0.436-0.231,0.855-0.463,1.254-0.702c0.402-0.231,0.768-0.467,1.103-0.698c0.335-0.239,0.602-0.354,0.802-0.354
			C203.083,426.736,203.12,426.838,203.12,427.038z"/>
		<path fill="#492A1F" d="M232.506,428.242c-0.603,0.871-1.355,1.741-2.26,2.605c-0.902,0.874-1.904,1.607-3.007,2.208
			s-2.156,0.902-3.157,0.902c-0.738,0-1.455-0.203-2.16-0.601c-0.699-0.403-1.401-0.938-2.105-1.604
			c-0.698-0.67-1.418-1.39-2.154-2.159c-0.738-0.766-1.475-1.485-2.208-2.155c-0.335-0.197-0.82-0.468-1.452-0.801
			c-0.637-0.334-0.953-0.804-0.953-1.408c0-0.33,0.266-0.751,0.803-1.25c0.531-0.498,0.967-0.92,1.304-1.257
			c0.33,0.066,0.615,0.102,0.85,0.102s0.519,0,0.852,0c0.604,0,1.257-0.15,1.96-0.452c0.698-0.299,1.353-0.752,1.952-1.349
			c0.605-0.607,1.109-1.32,1.506-2.159c0.4-0.836,0.602-1.791,0.602-2.858c0-0.808-0.417-1.288-1.251-1.457
			c-0.84-0.165-1.56-0.245-2.159-0.245c-1.338,0-2.542,0.533-3.611,1.604c-1.069,1.063-1.989,2.335-2.756,3.81
			c-0.77,1.471-1.391,2.991-1.856,4.563c-0.469,1.573-0.769,2.858-0.903,3.859c0,2.675-0.332,4.382-1.005,5.115
			c-0.669,0.734-1.469,1.103-2.403,1.103c-0.4-0.134-0.672-0.467-0.804-1.001c-0.134-0.537-0.2-1.039-0.2-1.506
			c0-1.538,0.016-2.524,0.049-2.956c0.034-0.436,0.052-0.755,0.052-0.955c0.131-4.076,0.051-8.139-0.253-12.184
			c-0.299-4.048-0.446-8.142-0.446-12.289c0-5.347,0.481-10.831,1.448-16.445c0.969-5.621,2.863-10.769,5.671-15.448
			c0.463-0.805,0.967-1.604,1.504-2.405c0.532-0.805,1.138-1.56,1.805-2.258c0.667-0.702,1.42-1.271,2.256-1.706
			c0.834-0.436,1.789-0.653,2.858-0.653c1.471,0,2.61,0.471,3.414,1.408c0.799,0.938,1.401,2.089,1.802,3.458
			c0.403,1.373,0.635,2.771,0.705,4.21c0.062,1.443,0.101,2.658,0.101,3.662c0,3.075-0.42,6.235-1.256,9.479
			c-0.841,3.241-1.939,6.433-3.311,9.575c-1.371,3.146-2.91,6.172-4.615,9.079s-3.457,5.565-5.263,7.974
			c-0.673,0.938-1.254,1.741-1.758,2.408c-0.502,0.667-0.716,1.067-0.649,1.205v3.005h0.299c0.602-1.001,1.337-2.071,2.208-3.209
			c0.867-1.138,1.836-2.155,2.907-3.058c1.069-0.902,2.223-1.654,3.462-2.258c1.237-0.597,2.558-0.902,3.96-0.902
			c2.941,0,4.414,1.341,4.414,4.013c0,1.672-0.398,3.156-1.204,4.463c-0.803,1.299-1.701,2.391-2.709,3.262
			c-1.003,0.867-1.903,1.538-2.709,2.001c-0.801,0.475-1.202,0.737-1.202,0.808c0.731,1.131,1.64,2.219,2.708,3.255
			c1.067,1.039,2.306,1.556,3.713,1.556c1.268,0,2.488-0.4,3.657-1.201c1.171-0.804,2.19-1.671,3.062-2.605h0.804
			C233.409,426.669,233.109,427.371,232.506,428.242z M222.876,378.09c0-0.733-0.014-1.667-0.051-2.805
			c-0.033-1.138-0.184-2.223-0.451-3.262c-0.269-1.032-0.685-1.917-1.253-2.654c-0.57-0.737-1.354-1.106-2.356-1.106
			c-1.875,0-3.41,0.906-4.616,2.707c-1.201,1.809-2.156,3.911-2.854,6.32c-0.706,2.405-1.188,4.835-1.456,7.271
			c-0.269,2.439-0.401,4.297-0.401,5.564c0,3.884,0.033,7.742,0.1,11.587c0.065,3.845,0.134,7.741,0.202,11.685l0.1,0.102
			c0.067,0.063,0.169,0.099,0.302,0.099c0.199,0,0.485-0.218,0.852-0.649c0.367-0.432,0.768-0.952,1.203-1.56
			c0.437-0.6,0.837-1.2,1.204-1.805c0.367-0.6,0.618-1.035,0.75-1.299c2.477-4.817,4.55-9.68,6.221-14.599
			C222.039,388.774,222.876,383.578,222.876,378.09z"/>
		<path fill="#492A1F" d="M253.666,426.939c0,0.2-0.352,0.685-1.05,1.45c-0.706,0.772-1.607,1.569-2.71,2.384
			c-1.104,0.818-2.322,1.552-3.66,2.205c-1.338,0.649-2.676,0.979-4.014,0.979c-1.271,0-2.439-0.253-3.509-0.751
			c-1.072-0.502-1.992-1.169-2.76-2.005c-0.772-0.839-1.371-1.809-1.805-2.911c-0.438-1.103-0.651-2.257-0.651-3.458
			c0-1.608,0.335-3.293,1.001-5.066c0.669-1.773,1.59-3.378,2.76-4.813c1.169-1.439,2.558-2.627,4.16-3.564
			c1.604-0.93,3.312-1.404,5.116-1.404c1.402,0,2.561,0.457,3.461,1.366c0.901,0.906,1.355,2.029,1.355,3.374
			c0,1.545-0.454,3.11-1.355,4.688c-0.9,1.583-1.959,3.009-3.159,4.287c-1.206,1.271-2.409,2.366-3.613,3.271
			c-1.202,0.91-2.106,1.5-2.709,1.767c0,0.063,0.387,0.284,1.157,0.656c0.769,0.365,1.552,0.552,2.355,0.552
			c1.069,0,2.141-0.2,3.21-0.601c1.068-0.404,2.038-0.854,2.91-1.355c0.865-0.498,1.604-0.951,2.206-1.352
			c0.604-0.4,0.934-0.604,1.001-0.604c0.133,0,0.217,0.104,0.252,0.302C253.648,426.536,253.666,426.736,253.666,426.939z
			 M246.944,416.505c0-1.131-0.235-2.054-0.698-2.756c-0.471-0.703-1.338-1.054-2.608-1.054c-1.073,0-2.044,0.267-2.911,0.804
			c-0.871,0.537-1.622,1.201-2.256,2.005c-0.637,0.805-1.122,1.703-1.455,2.711c-0.336,1.004-0.501,1.97-0.501,2.907
			c0,0.467,0.034,1.018,0.101,1.653c0.064,0.636,0.216,1.257,0.451,1.854c0.231,0.601,0.535,1.12,0.9,1.56
			c0.37,0.432,0.855,0.649,1.455,0.649c0.807,0,1.64-0.383,2.511-1.155c0.867-0.766,1.688-1.703,2.454-2.809
			c0.772-1.103,1.389-2.233,1.859-3.406C246.709,418.295,246.944,417.306,246.944,416.505z"/>
		<path fill="#492A1F" d="M298,425.936c0,0.601-0.302,1.352-0.909,2.258c-0.598,0.902-1.349,1.752-2.255,2.556
			c-0.902,0.804-1.84,1.503-2.809,2.106c-0.969,0.601-1.825,0.899-2.56,0.899c-1.538,0-2.641-0.664-3.311-2.002
			c-0.66-1.338-1.152-2.813-1.45-4.413c-0.302-1.608-0.499-3.076-0.601-4.413c-0.099-1.338-0.354-2.005-0.751-2.005
			c-0.204,0-0.688,0.667-1.457,2.005c-0.77,1.337-1.668,2.805-2.704,4.413c-1.043,1.601-2.093,3.075-3.163,4.413
			c-1.067,1.338-1.974,2.002-2.707,2.002c-0.471,0-1.036-0.316-1.71-0.952c-0.667-0.635-1.001-1.316-1.001-2.054v-11.734
			c0-0.47-0.063-1.035-0.2-1.709c-0.13-0.664-0.372-0.997-0.702-0.997c-0.137,0-0.436,0.435-0.898,1.299
			c-0.471,0.87-1.021,1.945-1.657,3.212c-0.636,1.268-1.32,2.676-2.058,4.214c-0.737,1.534-1.468,2.942-2.205,4.213
			c-0.737,1.268-1.426,2.339-2.058,3.209c-0.635,0.867-1.187,1.3-1.653,1.3c-0.804,0-1.439-0.316-1.906-0.952
			c-0.467-0.635-0.801-1.352-1.001-2.155c-0.2-0.801-0.319-1.534-0.352-2.205c-0.034-0.667-0.052-1.036-0.052-1.103
			c0-1.471,0.052-3.143,0.15-5.014c0.102-1.875,0.151-3.68,0.151-5.418c0-0.938-0.05-1.857-0.151-2.763
			c-0.099-0.896-0.15-1.717-0.15-2.454c0-0.734,0.234-1.17,0.702-1.303c0.467-0.13,1.004-0.2,1.604-0.2
			c0.934,0,1.488,0.302,1.657,0.902c0.168,0.601,0.28,1.369,0.348,2.307c0,0.267-0.015,0.555-0.05,0.854
			c-0.035,0.298-0.063,0.8-0.098,1.506c-0.032,0.702-0.07,1.671-0.103,2.907c-0.031,1.236-0.053,2.956-0.053,5.165
			c0.067,0.133,0.103,0.4,0.103,0.8c0,0.404,0.021,0.801,0.053,1.205c0.035,0.403,0.08,0.751,0.147,1.053
			c0.066,0.302,0.203,0.453,0.403,0.453c0.938,0,1.857-0.804,2.756-2.408c0.906-1.604,1.84-3.378,2.813-5.316
			c0.966-1.938,1.952-3.707,2.96-5.312c0.997-1.608,2.104-2.412,3.308-2.412c0.737,0,1.338,0.27,1.801,0.804
			c0.471,0.533,0.706,1.169,0.706,1.906c-0.066,2.142-0.137,4.263-0.2,6.369c-0.066,2.104-0.102,4.23-0.102,6.369
			c0,0.264,0.102,0.449,0.302,0.551c0.2,0.099,0.368,0.151,0.506,0.151c0.797,0,1.598-0.484,2.397-1.457
			c0.808-0.969,1.56-2.086,2.262-3.36c0.702-1.268,1.316-2.521,1.86-3.757c0.53-1.239,0.899-2.093,1.099-2.56
			c0.268-0.733,0.485-1.453,0.653-2.155c0.165-0.702,0.4-1.338,0.699-1.906c0.302-0.569,0.705-1.04,1.204-1.405
			c0.502-0.368,1.218-0.547,2.159-0.547c0.267,0,0.513,0.027,0.748,0.095c0.235,0.07,0.354,0.267,0.354,0.604
			c0,1.204-0.119,2.503-0.354,3.911c-0.235,1.404-0.345,2.777-0.345,4.111c0,0.604,0.011,1.457,0.046,2.557
			c0.032,1.103,0.147,2.19,0.352,3.258c0.2,1.074,0.533,1.994,1,2.764c0.468,0.765,1.106,1.151,1.907,1.151
			c0.667,0,1.341-0.196,2.005-0.601c0.667-0.403,1.288-0.836,1.86-1.306c0.565-0.468,1.067-0.902,1.503-1.3
			c0.432-0.407,0.751-0.607,0.951-0.607C297.933,425.531,298,425.669,298,425.936z"/>
		<path fill="#492A1F" d="M324.673,427.038c0,0.537-0.235,1.222-0.705,2.058c-0.464,0.835-1.05,1.636-1.749,2.408
			c-0.702,0.766-1.442,1.437-2.212,2.001c-0.769,0.569-1.418,0.854-1.948,0.854c-0.675,0-1.278-0.316-1.809-0.955
			c-0.537-0.632-0.973-1.316-1.306-2.051c-0.334-0.733-0.587-1.422-0.752-2.054c-0.165-0.636-0.284-0.958-0.351-0.958
			c-1.201,1.541-2.676,2.928-4.413,4.164c-1.738,1.232-3.578,1.854-5.517,1.854c-1.941,0-3.546-0.702-4.813-2.106
			c-1.274-1.404-1.906-3.104-1.906-5.112c0-1.938,0.548-3.929,1.653-5.969c1.106-2.04,2.539-3.894,4.312-5.565
			c1.777-1.671,3.712-3.026,5.818-4.065c2.109-1.032,4.164-1.556,6.172-1.556c1.001,0,1.97,0.274,2.911,0.805
			c0.934,0.537,1.397,1.372,1.397,2.507c0,0.674-0.183,1.292-0.552,1.857c-0.365,0.564-0.835,1.057-1.404,1.453
			c-0.568,0.404-1.187,0.699-1.851,0.906c-0.674,0.196-1.306,0.298-1.906,0.298c-0.271,0-0.506-0.035-0.706-0.102
			c-0.196-0.063-0.298-0.267-0.298-0.601c0-0.2,0.116-0.4,0.354-0.604c0.229-0.196,0.499-0.414,0.797-0.649
			c0.302-0.232,0.569-0.467,0.804-0.702c0.235-0.235,0.348-0.485,0.348-0.752c0-0.403-0.196-0.772-0.597-1.105
			c-0.4-0.334-0.87-0.499-1.408-0.499c-1.4,0-2.759,0.334-4.062,1.004c-1.3,0.668-2.454,1.535-3.459,2.605
			c-1.004,1.074-1.808,2.289-2.408,3.658c-0.601,1.377-0.902,2.76-0.902,4.165c0,1.541,0.403,2.974,1.204,4.312
			c0.804,1.341,2.106,2.008,3.911,2.008c1.067,0,2.04-0.438,2.911-1.303c0.867-0.87,1.569-1.671,2.106-2.408
			c0.597-0.804,0.951-1.688,1.05-2.654c0.102-0.973,0.235-1.875,0.403-2.711c0.165-0.832,0.517-1.538,1.054-2.11
			c0.534-0.564,1.538-0.85,3.009-0.85c0.204,0,0.299,0.268,0.299,0.805s-0.049,1.285-0.151,2.254
			c-0.102,0.973-0.147,1.99-0.147,3.058c0,1.142,0.147,2.125,0.453,2.96c0.299,0.836,0.913,1.254,1.851,1.254
			c0.407,0,0.821-0.116,1.257-0.352c0.432-0.231,0.85-0.463,1.25-0.702c0.4-0.231,0.772-0.467,1.105-0.698
			c0.338-0.239,0.604-0.354,0.805-0.354C324.638,426.736,324.673,426.838,324.673,427.038z"/>
		<path fill="#492A1F" d="M354.058,428.242c-0.598,0.871-1.353,1.741-2.255,2.605c-0.902,0.874-1.906,1.607-3.012,2.208
			c-1.1,0.601-2.149,0.902-3.157,0.902c-0.733,0-1.457-0.203-2.155-0.601c-0.702-0.403-1.404-0.938-2.104-1.604
			c-0.705-0.67-1.422-1.39-2.162-2.159c-0.734-0.766-1.465-1.485-2.205-2.155c-0.334-0.197-0.818-0.468-1.45-0.801
			c-0.64-0.334-0.955-0.804-0.955-1.408c0-0.33,0.267-0.751,0.801-1.25c0.537-0.498,0.969-0.92,1.31-1.257
			c0.33,0.066,0.61,0.102,0.85,0.102c0.228,0,0.516,0,0.85,0c0.604,0,1.253-0.15,1.955-0.452c0.702-0.299,1.359-0.752,1.96-1.349
			c0.6-0.607,1.103-1.32,1.502-2.159c0.4-0.836,0.601-1.791,0.601-2.858c0-0.808-0.418-1.288-1.253-1.457
			c-0.836-0.165-1.556-0.245-2.156-0.245c-1.338,0-2.542,0.533-3.612,1.604c-1.067,1.063-1.991,2.335-2.757,3.81
			c-0.769,1.471-1.387,2.991-1.854,4.563c-0.467,1.573-0.772,2.858-0.906,3.859c0,2.675-0.333,4.382-1,5.115
			c-0.671,0.734-1.472,1.103-2.409,1.103c-0.4-0.134-0.663-0.467-0.8-1.001c-0.138-0.537-0.204-1.039-0.204-1.506
			c0-1.538,0.021-2.524,0.053-2.956c0.035-0.436,0.053-0.755,0.053-0.955c0.13-4.076,0.046-8.139-0.253-12.184
			c-0.299-4.048-0.449-8.142-0.449-12.289c0-5.347,0.484-10.831,1.45-16.445c0.969-5.621,2.861-10.769,5.667-15.448
			c0.467-0.805,0.969-1.604,1.506-2.405c0.533-0.805,1.138-1.56,1.805-2.258c0.667-0.702,1.422-1.271,2.258-1.706
			c0.832-0.436,1.787-0.653,2.854-0.653c1.475,0,2.612,0.471,3.412,1.408c0.808,0.938,1.404,2.089,1.809,3.458
			c0.403,1.373,0.632,2.771,0.698,4.21c0.067,1.443,0.103,2.658,0.103,3.662c0,3.075-0.422,6.235-1.254,9.479
			c-0.836,3.241-1.941,6.433-3.308,9.575c-1.372,3.146-2.91,6.172-4.617,9.079c-1.702,2.907-3.461,5.565-5.266,7.974
			c-0.664,0.938-1.254,1.741-1.753,2.408c-0.505,0.667-0.72,1.067-0.649,1.205v3.005h0.295c0.604-1.001,1.338-2.071,2.205-3.209
			c0.871-1.138,1.844-2.155,2.911-3.058c1.07-0.902,2.226-1.654,3.462-2.258c1.235-0.597,2.56-0.902,3.96-0.902
			c2.942,0,4.417,1.341,4.417,4.013c0,1.672-0.403,3.156-1.204,4.463c-0.808,1.299-1.706,2.391-2.711,3.262
			c-1.008,0.867-1.902,1.538-2.707,2.001c-0.8,0.475-1.204,0.737-1.204,0.808c0.734,1.131,1.64,2.219,2.707,3.255
			c1.067,1.039,2.307,1.556,3.711,1.556c1.271,0,2.493-0.4,3.662-1.201c1.17-0.804,2.188-1.671,3.059-2.605h0.804
			C354.963,426.669,354.661,427.371,354.058,428.242z M344.43,378.09c0-0.733-0.014-1.667-0.049-2.805s-0.183-2.223-0.457-3.262
			c-0.26-1.032-0.681-1.917-1.246-2.654c-0.572-0.737-1.355-1.106-2.355-1.106c-1.875,0-3.417,0.906-4.617,2.707
			c-1.204,1.809-2.156,3.911-2.858,6.32c-0.702,2.405-1.19,4.835-1.457,7.271c-0.267,2.439-0.396,4.297-0.396,5.564
			c0,3.884,0.031,7.742,0.099,11.587c0.066,3.845,0.137,7.741,0.203,11.685l0.095,0.102c0.07,0.063,0.169,0.099,0.302,0.099
			c0.2,0,0.488-0.218,0.857-0.649c0.361-0.432,0.765-0.952,1.197-1.56c0.435-0.6,0.839-1.2,1.204-1.805
			c0.368-0.6,0.621-1.035,0.755-1.299c2.472-4.817,4.55-9.68,6.218-14.599C343.591,388.774,344.43,383.578,344.43,378.09z"/>
		<path fill="#492A1F" d="M375.222,426.939c0,0.2-0.354,0.685-1.053,1.45c-0.703,0.772-1.605,1.569-2.711,2.384
			c-1.103,0.818-2.324,1.552-3.662,2.205c-1.334,0.649-2.672,0.979-4.006,0.979c-1.274,0-2.447-0.253-3.515-0.751
			c-1.067-0.502-1.991-1.169-2.756-2.005c-0.772-0.839-1.37-1.809-1.809-2.911c-0.432-1.103-0.646-2.257-0.646-3.458
			c0-1.608,0.33-3.293,1.001-5.066c0.667-1.773,1.587-3.378,2.756-4.813c1.17-1.439,2.557-2.627,4.161-3.564
			c1.608-0.93,3.311-1.404,5.115-1.404c1.404,0,2.56,0.457,3.462,1.366c0.902,0.906,1.352,2.029,1.352,3.374
			c0,1.545-0.449,3.11-1.352,4.688c-0.902,1.583-1.955,3.009-3.16,4.287c-1.204,1.271-2.404,2.366-3.609,3.271
			c-1.204,0.91-2.109,1.5-2.707,1.767c0,0.063,0.383,0.284,1.152,0.656c0.765,0.365,1.555,0.552,2.355,0.552
			c1.067,0,2.142-0.2,3.209-0.601c1.071-0.404,2.04-0.854,2.911-1.355c0.863-0.498,1.604-0.951,2.205-1.352
			c0.604-0.4,0.934-0.604,1-0.604c0.138,0,0.218,0.104,0.257,0.302C375.204,426.536,375.222,426.736,375.222,426.939z
			 M368.502,416.505c0-1.131-0.235-2.054-0.706-2.756c-0.464-0.703-1.334-1.054-2.602-1.054c-1.074,0-2.044,0.267-2.911,0.804
			c-0.874,0.537-1.622,1.201-2.257,2.005c-0.636,0.805-1.12,1.703-1.454,2.711c-0.337,1.004-0.502,1.97-0.502,2.907
			c0,0.467,0.031,1.018,0.099,1.653c0.066,0.636,0.218,1.257,0.452,1.854c0.235,0.601,0.538,1.12,0.902,1.56
			c0.365,0.432,0.851,0.649,1.454,0.649c0.801,0,1.64-0.383,2.507-1.155c0.871-0.766,1.688-1.703,2.458-2.809
			c0.769-1.103,1.39-2.233,1.854-3.406C368.267,418.295,368.502,417.306,368.502,416.505z"/>
	</g>
</g>
</svg>
