<?xml version="1.0" encoding="utf-8"?>
<!-- Generator: Adobe Illustrator 16.0.0, SVG Export Plug-In . SVG Version: 6.00 Build 0)  -->
<!DOCTYPE svg PUBLIC "-//W3C//DTD SVG 1.1//EN" "http://www.w3.org/Graphics/SVG/1.1/DTD/svg11.dtd">
<svg version="1.1" id="Capa_1" xmlns="http://www.w3.org/2000/svg" xmlns:xlink="http://www.w3.org/1999/xlink" x="0px" y="0px"
	 width="500px" height="500px" viewBox="0 0 500 500" enable-background="new 0 0 500 500" xml:space="preserve">
<g>
	<path fill-rule="evenodd" clip-rule="evenodd" fill="#8BBE6B" d="M499.154,304.148c0,17.648-12.127,31.955-27.074,31.955H237.402
		c-14.957,0-27.086-14.307-27.086-31.955V195.857c0-17.65,12.129-31.959,27.086-31.959H472.08c14.947,0,27.074,14.309,27.074,31.959
		V304.148z"/>
	<g>
		<path fill-rule="evenodd" clip-rule="evenodd" fill="#D7E6C4" d="M320.391,217.592c2.303-1.83,3.506-2.205,5.342-4.52
			c4.271-6.811,17.99-5.299,21.406-12.969c1.553-1.08,2.865-2.406,3.936-3.947c1.172-1.08,2.686-1.826,4.512-2.262
			c1.861,0,3.746,0,5.615,0c1.646,0.422,3.248,0.889,3.953,2.262c1.445,1.922,3.133,3.613,5.061,5.07
			c1.061,0.068,0.393,1.861,1.688,1.695c0.768,4.115,2.672,7.105,6.752,7.893c3.717,4.191,8.775,7.01,11.262,12.418
			c1.814,1.949,2.471,5.051,4.498,6.773c0.547,0.021,0.451,0.699,0.566,1.135c0.498,2.885,1.799,4.973,2.818,7.332
			c1.646,3.621,2.695,7.83,2.809,12.986c0.271,3.871,0.242,8.029,1.131,11.283c0,1.51,0,3.006,0,4.512
			c-1.305,1.336-0.205,5.068-0.566,7.338c-0.01,1.5,0.213,3.221-0.564,3.949c-0.617,2.561-2.434,3.695-1.688,6.213
			c0.361,2.236-1.486,2.27-1.121,4.508c-1.816,1.943-2.232,5.303-4.502,6.775c-1.826,1.363-2.947,3.441-4.506,5.082
			c-2.453,3.189-5.861,5.414-9.572,7.336c-5.236,1.441-8.469,3.18-14.064,5.074c-1.4,0.863-3.418,1.094-5.643,1.135
			c-8.547,0.672-14.738-1.018-20.828-2.824c-4.41-1.01-6.986-3.898-10.691-5.645c-2.393-2.869-5.016-5.504-7.885-7.902
			c-6.066-9.338-11.986-18.828-12.375-33.857c0-3.574,0-7.148,0-10.725c0.41-13.133,5.357-21.715,10.135-30.479"/>
		<path fill-rule="evenodd" clip-rule="evenodd" fill="#8BBE6B" d="M360.656,191.229c2.553,0,6.391,1.756,9.822,4.658
			c0,0.172,7.381,6.203,8.781,11.887c0,0.178,0,0.357,0,0.525c0,0.174,0,0.344,0,0.518c2.721,1.596,7.736,5.885,7.768,6.209
			c0,0.164,8.854,11.311,9.311,12.404c1.096,1.838,1.717,4.148,3.107,5.688c7.885,21.447,6.199,34.314,6.199,38.795
			c-0.305,1.234-0.457,6.912-1.646,11.09c-0.676,4.26-4.574,10.277-6.117,13.219c-3.426,3.98-6.832,7.984-10.854,11.375
			c-6.107,3.715-12.984,6.68-21.727,7.76c-4.303,0-8.613,0-12.926,0c-6.621,0-22.303-4.508-24.826-6.205
			c-0.344,0-1.031-0.352-1.031-0.521c-9.791-4.689-15.557-14.994-19.148-24.301c-0.881-2.186-1.014-4.107-1.537-6.213
			c-1.023-3.455-2.162-15.135-2.066-17.58c-0.367-4.488,0.498-7.771,0.512-11.898c0.225-7.523,5.197-20.398,6.725-22.242
			c1.109-2.664,4.654-6.543,4.654-6.727c3.977-3.943,8.379-7.471,12.922-10.852c4.219-3.025,11.658-2.824,14.498-7.248
			c0.164,0,0.338,0,0.508,0c1.131-2.828,4.049-3.879,5.691-6.205C352.479,193.328,357.566,191.09,360.656,191.229z M313.799,229.775
			c-2.438,7.811-4.311,11.477-4.695,23.51c-0.141,5.324-1.371,11.15,0.523,19.875c0.365,13.771,12.316,27.068,16.307,29.498
			c2.213,2.631,14.406,8.918,27.594,7.809c0.705,0.857,16.658,0.17,24.633-3.818c9.197-2.432,21.688-16.309,22.566-34.531
			c0.738-4.178,0.164-13.9-0.695-17.004c-0.225-2.195-2.705-13.506-4.209-16.814c-0.416-2.699-11.58-21.004-17.588-25.348
			c-3.748-0.732-4.846-4.725-5.508-7.113c-4.197-9.389-13.133-13.188-16.949-11.105c-13.182,19.08-23.645,12.34-32.791,23.592"/>
	</g>
	<rect x="0.846" y="262.818" fill-rule="evenodd" clip-rule="evenodd" fill="#8BBE6B" width="229.631" height="55.945"/>
	<text transform="matrix(1 0 0 1 49.1074 302.2637)" fill="#D7E6C4" font-family="'GillSansMT'" font-size="47.5808">Limón</text>
</g>
</svg>
