<?xml version="1.0" encoding="utf-8"?>
<!-- Generator: Adobe Illustrator 16.0.0, SVG Export Plug-In . SVG Version: 6.00 Build 0)  -->
<!DOCTYPE svg PUBLIC "-//W3C//DTD SVG 1.1//EN" "http://www.w3.org/Graphics/SVG/1.1/DTD/svg11.dtd">
<svg version="1.1" id="Capa_1" xmlns="http://www.w3.org/2000/svg" xmlns:xlink="http://www.w3.org/1999/xlink" x="0px" y="0px"
	 width="500px" height="500px" viewBox="0 0 500 500" enable-background="new 0 0 500 500" xml:space="preserve">
<g>
	<path fill-rule="evenodd" clip-rule="evenodd" fill="#8BBE6B" d="M499.688,304.268c0,17.684-12.154,32.02-27.133,32.02h-235.18
		c-14.988,0-27.143-14.336-27.143-32.02V195.742c0-17.686,12.154-32.025,27.143-32.025h235.18c14.979,0,27.133,14.34,27.133,32.025
		V304.268z"/>
	<g>
		<path fill-rule="evenodd" clip-rule="evenodd" fill="#D7E6C4" d="M399.59,220.619c27.68,2.66,47.832,38.801,31.234,63.363
			c-0.289-0.145-15.992,19.787-16.012,20.428c-0.93-0.055-8.371,6.463-25.293,8.777c-2.924-1.393-19.582-3.4-21.779-5.424
			c-1.342-1.918-10.842-8.51-12.127-9.869c-2.236-4.945-9.07-6.904-8.688-14.186c-0.209-1.586-1.004-12.563-2.029-13.422
			c0.666-5.314,0.555-6.961-2.141-9.283c-1.4-1.857-5.082-4.035-6.336-4.398c-0.863-1.742-8.305-6.363-9.166-8.109
			c-0.83-0.939-6.156-9.633-7.52-13.381c-2.41-5.955,2.209-14.764,6.58-18.656c14.748-7.803,27.883,1.623,38.084,5.891
			C372.109,228.904,382.002,216.295,399.59,220.619z M376.596,232.791c-0.307-0.021-0.617-0.035-0.928-0.055
			c-3.477,3.533-1.797,8.418,1.348,8.984c3.357,0.605,4.328-2.984,8.189-3.74c4.291-0.842,5.619,0.947,9.293,1.482
			c0.16,0.012,0.309,0.018,0.465,0.027c-0.01,0.158-0.018,0.311-0.027,0.465c4.285,2.838,10.348,2.02,10-2.693
			c-0.469-6.357-24.225-12.299-27.865-4.447C376.91,232.807,376.758,232.797,376.596,232.791z"/>
		<path fill-rule="evenodd" clip-rule="evenodd" fill="#D7E6C4" d="M274.252,215.367c1.127-9.361,11.225-20.711,25.432-15.232
			c0.994,3.313,1.684,10.506,0.906,13.713c-2.418,9.998-13.795,7.885-18.814,10.627c-0.813-0.182-5.379,7.309-5.727,6.01
			C272.646,226.766,274.17,216.768,274.252,215.367z"/>
		<path fill-rule="evenodd" clip-rule="evenodd" fill="#8BBE6B" d="M302.652,206.521c0.092,2.592-0.594,5.695-0.922,7.824
			c-2.084,13.49-20.867,7.568-22.367,13.688c-0.631,1.752-0.365,3.252-0.736,4.654c0.047,0.547-0.15,0.816-0.523,0.895
			c-5.781,0.277-6.072-10.531-5.799-12.986c-0.465-18.203,11.977-26.324,27.605-23.234c0.301-0.252,2.281-0.963,2.338,0.137
			c4.672,7.209,18.203,20.479,19.133,20.99c12.861-14.262,36.988-1.107,48.289,4.518c1.221,0.293,5.971-2.947,11.049-4.508
			c7.557-2.971,18.063-1.287,25.691,1.506c9.689,3.982,12.342,5.881,16.223,9.17c17.73,12.752,21.986,41.734,0.762,69.172
			c-1.527,2.486-4.443,4.965-7.053,7.09c-8.221,5.689-16.219,8.572-29.053,9.084c-2.018-0.123-4.047-0.232-6.068-0.355
			c-10.291-2.068-18.127-6.324-24.631-11.754c-4.279-3.525-8.957-9.83-10.395-14.672c-2.289-6.674-3.992-13.873-3.334-23.168
			c0.096-1.578-2.322-2.943-3.518-3.955c-9.252-7.035-12.977-10.182-18.533-18.762c-1.561-2.99-3.549-9.91-2.535-13.883
			c0.162-1.316,0.623-4.738,0.783-4.729 M276.662,211.412c-2.602,6.889-1.645,17.428-0.166,17.758
			c-0.141-1.479,1.188-4.326,2.912-5.932c6.688-5.289,17.186,0.516,19.174-10.545c0.586-3.262,1.32-8.563,0.326-11.879
			C288.5,199.746,280.969,200.34,276.662,211.412z M364.295,224.785c-10.201-4.271-27.26-14.057-37.713-6.523
			c-3.166,2.668-6.785,9.533-4.748,17.141c0.547,3.285,3.068,7.463,5.602,9.932c0.072,0.674,12.096,11.053,14.043,12.42
			c2.701,2.322,5.871,3.777,5.215,9.09c0.197,1.6-0.078,11.715,5.465,21.688c6.686,10.531,12.301,16.842,27.926,20.928
			c4.805,1.496,11.986,0.518,17.748-0.459c8.08-1.4,13.773-1.967,27.805-20.682c18.961-27.703,4.256-60.063-27.613-66.316
			c-0.908-0.834-14.805-1.496-24.65,4.047C369.158,227.148,367.607,226.441,364.295,224.785z"/>
	</g>
	<rect x="0.314" y="267.67" fill-rule="evenodd" clip-rule="evenodd" fill="#8BBE6B" width="230.121" height="52.9"/>
	<text transform="matrix(1 0 0 1 64.8242 308.8418)" fill="#D7E6C4" font-family="'GillSansMT'" font-size="47.6825">Pera</text>
</g>
</svg>
