<?xml version="1.0" encoding="utf-8"?>
<!-- Generator: Adobe Illustrator 16.0.0, SVG Export Plug-In . SVG Version: 6.00 Build 0)  -->
<!DOCTYPE svg PUBLIC "-//W3C//DTD SVG 1.1//EN" "http://www.w3.org/Graphics/SVG/1.1/DTD/svg11.dtd">
<svg version="1.1" id="Capa_1" xmlns="http://www.w3.org/2000/svg" xmlns:xlink="http://www.w3.org/1999/xlink" x="0px" y="0px"
	 width="500px" height="500px" viewBox="0 0 500 500" enable-background="new 0 0 500 500" xml:space="preserve">
<g>
	<path fill-rule="evenodd" clip-rule="evenodd" fill="#8BBE6B" d="M288.824,304.078c0,17.621-12.109,31.908-27.035,31.908H27.422
		c-14.938,0-27.049-14.287-27.049-31.908V195.926c0-17.621,12.111-31.912,27.049-31.912h234.367
		c14.926,0,27.035,14.291,27.035,31.912V304.078z"/>
	<g>
		<path fill-rule="evenodd" clip-rule="evenodd" fill="#D7E6C4" d="M84.244,249.027c1.061-6.875,8.695-7.344,8.66-7.605
			c-0.061-0.688-3.236,0.326-6.889,0.064c-10.76-0.77-17.424-8.9-19.877-10.309c0.344-1.436-1.822-7.025,6.438-9.492
			c4.643-1.051,15.129-3.938,20.611-2.494c5.213,1.375,8.48,2.631,7.17,1.605c-12.441-9.764-1.098-30.266-0.711-35.9
			c0.775-0.086,2.549-8.746,6.613,6.064c0.73,0.875,4.924,13.619,7.092,14.957c4.303,0.762,5.582-5.041,14.043-7.037
			c3.645-6.645,19.059-0.939,23.762,2.725c-0.307,0.582-14.162,6.951-16.217,9.418c-4.514,5.105-6.975,8.426-4.254,17.203
			c0.986,4.039,3.824,9.006,6.17,11.748c-0.289,1.168-14.053,16.791-15.363,22.705c-8.719-7.379-24.34-7.453-27.123,1.824
			c-0.838,0.756-2.785,10.891-4.646,10.592c0.014-0.301-7.34-9.605-5.857-12.498C85.176,260.693,82.027,249.988,84.244,249.027z"/>
		<path fill-rule="evenodd" clip-rule="evenodd" fill="#DBAD62" d="M130.855,275.027c0.707,2.342,0.258,3.145,2.086,4.418
			c-0.248,1.367,1.141,1.178,1.26,2.219c1.986,2.654,3.814,5.459,6.822,7.133c-0.084,0.375,0.164,0.416,0.434,0.449
			c1,1.463,2.545,2.402,4.297,3.166c0.145,0,0.291,0,0.443,0c0.303,0.414,0.775,0.688,1.289,0.898
			c-0.289,1.395,0.787,1.381-0.055,2.191c0.457-0.184,2.301-0.893,0.457-0.865"/>
		<path fill-rule="evenodd" clip-rule="evenodd" fill="#D7E6C4" d="M219.195,306.078c-12.967,9.871-25.801,13.682-25.943,13.676
			c-3.418-0.076-15.125,3.457-44.396-15.873c-0.627-0.115-12.215-11.496-12.783-11.66c-3.506-3.777-7.842-8.686-11.248-12.537
			c-2.793-4.084-5.568-12.824-1.443-18.393c2.154-1.77,2.938-5.199,4.455-7.637c1.732-1.629,2.021-3.943,3.635-5.686
			c2.43-1.184,3.18-3.635,5.547-4.887c-2.035,1.736,10.459-10.578,13.393-8.49c10.611-1.1,10.023-0.182,22.533,2.934
			c24.297,3.131,49.529,39.449,50.928,42.654"/>
		<path fill-rule="evenodd" clip-rule="evenodd" fill="#8BBE6B" d="M79.189,241.098c-6.473-2.383-22.945-11.578-12.279-17.758
			c3.41-1.971,14.467-8.998,27.652-5.492c-2.979-4.912-3.053-11.738-2.213-17.521c0.922-4.434,1.232-8.049,3.34-12.609
			c1.398-3.049,6.781-15.795,8.957-6.35c0.18,0.77,2.291,8.439,2.582,9.295c2.965,8.711,6.984,14.197,6.998,13.904
			c1.963-3.096,5.523-5.377,5.666-5.377c3.686-2.1,5.523-3.703,12.77-4.516c1.967-0.412,4.313-0.283,6.055-0.246
			c4.975,0.334,15.822,3.268,14.715,9.014c-0.547,2.881-7.844,3.859-7.953,4.189c-6.783,1.982-13.807,3.736-13.398,13.244
			c-0.031,1.021-0.051,2.043-0.074,3.057c0.01,4.697,1.514,7.951,3.246,10.992c1.1,1.27,1.15,1.699,2.572,2.686
			c4.578-4.566,9.225-5.451,16.803-5.996c2.063-0.266,5.051-0.293,7.352-0.021c25.426,4.441,41.037,18.25,51.045,28.529
			c-1.18,0.674-1.932,1.695-3.484,3.029c-7.279-7.141-10.557-9.354-18.096-14.902c-3.92-2.793-10.992-6.848-20.273-9.627
			c-3.719-1.311-10.383-3.084-14.705-2.73c-6.375,0.316-11.309-1.871-23.752,13.086c-2.674,3.23-6.693,11.232-8.146,14.691
			c-3.213,8.27,2.473,15,5.258,19.078c2.857,4.404,12.385,13.021,16.482,16.227c5.07,3.906,11.662,8.373,19.297,11.66
			c6.383,3.402,12.469,5.963,22.695,6.65c6.963,0.455,11.684-0.197,22.295-6.705c2.535-1.605,10.848-9.918,10.514-18.949
			c0.354-9.176-1.484-18.16-11.568-28.479c1.807-1.695,1.807-1.695,3.484-3.029c4.592,4.873,12.383,12.953,12.77,28.41
			c-0.029,1.742-0.07,3.484-0.115,5.242c-0.229,3.477-2.668,8.67-2.809,8.67c-2.568,5.023-4.287,7.488-7.666,10.313
			c-0.146-0.006-2.094,1.531-3.105,2.104c-5.168,3.539-11.063,6.316-18.941,7.012c-2.998,0.395-4.881,0.094-7.43-0.172
			c-3.287-0.414-9.418-1.953-9.57-1.959c-9.607-3.207-18.004-7.576-25.486-12.803c-0.154-0.008-2.689-1.988-3.871-2.709
			c-1.184-0.736-3.439-2.561-3.426-2.711c-5.367-3.838-15.938-13.361-19.236-19.215c-2.912-4.758-5.955-10.699-3.955-18.438
			c-8.15-6.018-17.107-4.256-18.676-3.369c-2.287,0.4-4.785,3.232-6.287,6.303c-1.463,3.77-1.184,5.52-2.635,9.371
			c-4.182,4.977-8.773-5.172-10.625-13.463c2.102-0.482,1.648-0.414,2.842-0.592c0.957,7.045,6.307,18.697,6.375,7.398
			c1.793-14.369,16.053-17.314,30.66-9.162c1.324-5.936,8.549-15.9,12.664-20.355c-3.072-2.035-4.115-5.545-5.385-9.564
			c-1.701-7.078-1.602-9.924,0.633-17.506c1.594-3.074,2.441-4.689,8.332-6.609c9.008-2.59,12.977-4.064,10.387-5.367
			c-10.139-5.771-21.072-2.076-25.307,0.678c-4.936,3.525-5.262,3.467-7.893,6.99c-1.086,1.109-4.268-2.373-5.795-5.371
			c-4.848-7.082-6.619-19.334-8.213-19.637c-5.688,10.227-7.215,24.219-4.023,32.113c1.773,4.02,3.936,3.818,3.441,5.637
			c-0.578,2.109-7.01-1.328-12.031-1.518c-8.402-0.293-22.305,3.607-22.025,8.494c0.033,5.34,11.803,10.969,21.787,12.102
			c3.67,0.416,4.68-0.533,5.801,0.586c0.139,3.906-4.885-0.875-8.377,8.146c-1.48,2.891-1.643,9.086-1.031,12.945
			c-1.637,0.074-1.945,0.381-2.842,0.592c-0.418-0.455-1.166-5.492-0.688-9.875c0.141-2.885,2.176-8.678,5.313-10.26
			C82.541,242.404,80.307,241.17,79.189,241.098z"/>
	</g>
	<rect x="270.297" y="175.102" fill-rule="evenodd" clip-rule="evenodd" fill="#8BBE6B" width="229.328" height="55.871"/>
	<text transform="matrix(1 0 0 1 346.7695 219.1152)" fill="#D7E6C4" font-family="'GillSansMT'" font-size="47.5173">Piña</text>
</g>
</svg>
