<?xml version="1.0" encoding="utf-8"?>
<!-- Generator: Adobe Illustrator 16.0.0, SVG Export Plug-In . SVG Version: 6.00 Build 0)  -->
<!DOCTYPE svg PUBLIC "-//W3C//DTD SVG 1.1//EN" "http://www.w3.org/Graphics/SVG/1.1/DTD/svg11.dtd">
<svg version="1.1" id="Capa_1" xmlns="http://www.w3.org/2000/svg" xmlns:xlink="http://www.w3.org/1999/xlink" x="0px" y="0px"
	 width="500px" height="500px" viewBox="0 0 500 500" enable-background="new 0 0 500 500" xml:space="preserve">
<g>
	<path fill-rule="evenodd" clip-rule="evenodd" fill="#8BBE6B" d="M288.666,310.473c0,17.551-12.061,31.779-26.926,31.779H28.336
		c-14.877,0-26.939-14.229-26.939-31.779V202.768c0-17.553,12.063-31.785,26.939-31.785H261.74
		c14.865,0,26.926,14.232,26.926,31.785V310.473z"/>
	<g>
		<path fill-rule="evenodd" clip-rule="evenodd" fill="#D7E6C4" d="M104.969,276.471c7.354,3.221,15.791,2.543,26.043,2.867
			c1.4,1.35,12.445-0.453,13.846-1.811c25.041-1.545,35.879-13.766,52.471-23.744c1.609-0.361,16.525-18.148,17.34-16.604
			c4.891,20.758-8.646,66.969-26.189,70.426c-5.166,1.018-25.604,11.713-30.895,11.863c-9.906,0.258-37.75,0.65-45.281-7.66
			c-2.102-4.135-24.295-17.584-25.373-22.736c-0.641-0.725-6.246-19.869-6.176-21.291
			C83.582,267.943,102.357,276.098,104.969,276.471z"/>
		<path fill-rule="evenodd" clip-rule="evenodd" fill="#D7E6C4" d="M116.381,277.461c-8.965,1.498-13.979-7.098-19.076-4.203
			c0.475-4.102-13.734-8.738-16.551-12.527c-3.855-5.191-7.172-17.721-4.947-28.705c3.369-16.602,33.557-37.473,53.443-34.873
			c2.701,0.359,16.221-1.336,21.787-3.207c1.602,1.373,13.553-0.244,15.791,0.494c0-3.291,14.713-1.697,14.977-1.697
			c12.232,5.406,23.766,8.85,29.162,21.092c0.268,4.041,2.158,19.488,0,23.346c-12.328,18.053-23.227,26.689-42.039,33.359
			c-2.477,0.516-17.637,3.83-18.773,5.688c-0.541,0-16.143,4.189-16.686,4.189C132.334,278.564,118.84,277.969,116.381,277.461z"/>
		<path fill-rule="evenodd" clip-rule="evenodd" fill="#5B381B" d="M132.656,192.742c1.131-1.342,7.809-1.342,8.951,0
			C138.613,192.742,135.629,192.742,132.656,192.742z"/>
		<path fill-rule="evenodd" clip-rule="evenodd" fill="#5B381B" d="M122.07,244.836c0.332-1.963-1.484-1.77-0.813-4.074
			c1.848,0.598,2.434,2.455,3.26,4.074C123.701,244.836,122.887,244.836,122.07,244.836z"/>
		<path fill-rule="evenodd" clip-rule="evenodd" fill="#5B381B" d="M183.104,157.75"/>
		<path fill-rule="evenodd" clip-rule="evenodd" fill="#8BBE6B" d="M215.672,272.506c7.398-25.219,3.355-47.203-4.893-63.48
			c-8.645-17.063-24.273-20.658-50.209-19.297c-7.971-0.277-27.914,3.014-27.914,3.014c-17.799,1.939-36.094,10.482-43.141,15.469
			c-1.168,0.193-1.375,1.336-2.443,1.631c-7.08,5.941-13.533,12.506-15.463,23.596v8.143c-0.527,14.629,4.059,26.852,8.143,39.061
			c8.123,21.521,26.043,32.564,26.043,32.564c38.25,20.586,80.955,10.377,99.295-19.537
			C209.459,287.697,213.688,279.189,215.672,272.506z M78.283,230.736c3.369-16.602,31.576-29.938,62.906-33.096
			c6.092-0.607,36.219-3.945,48.777,1.268c11.045,3.951,17.266,13.041,18.277,20.332c1.23,8.906,0.496,17.451-6.361,24.783
			c-17.105,18.361-32.059,25.871-58.344,29.98c-6.908,2.182-20.729,2.223-25.125,0.732c-16.164-1.818-32.619-12.508-35.439-16.303
			C79.121,253.242,76.064,241.721,78.283,230.736z M151.037,316.742c-25.1,0.793-42.852-6.385-55.826-21
			c-8.955-10.377-10.748-19.516-11.002-25.678c2.514,1.824,7.412,2.854,11.002,4.428c15.461,7.773,33.371,7.773,33.371,7.773
			c25.041-1.545,44.434-8.73,61.041-18.715c11.389-7.023,17.609-16.057,22.818-21.971
			C214.674,255.273,205.777,315.008,151.037,316.742z"/>
		<path fill-rule="evenodd" clip-rule="evenodd" fill="#8BBE6B" d="M176.1,226.686c6.762,7.752-17.535,18.625-27.883,18.906
			c-17.205,0.465-27.203-0.756-33.193-6.518c-6.354-6.113,9.951-16.385,23.625-18.488C164.566,216.59,171.01,220.867,176.1,226.686z
			"/>
		<path fill="#8BBE6B" d="M119.281,227.652c0,1.172-1.617,2.121-3.609,2.121c-1.982,0-3.6-0.949-3.6-2.121
			c0-1.166,1.617-2.111,3.6-2.111C117.664,225.541,119.281,226.486,119.281,227.652z"/>
		<path fill="#8BBE6B" d="M117.215,236.521c0,1.17-1.621,2.119-3.6,2.119c-1.998,0-3.604-0.949-3.604-2.119
			c0-1.166,1.605-2.121,3.604-2.121C115.594,234.4,117.215,235.355,117.215,236.521z"/>
		<path fill="#8BBE6B" d="M164.424,218.355c0,1.172-1.619,2.121-3.6,2.121c-1.996,0-3.602-0.949-3.602-2.121
			c0-1.166,1.605-2.119,3.602-2.119C162.805,216.236,164.424,217.189,164.424,218.355z"/>
		<path fill="#8BBE6B" d="M138.648,221.688c0,1.176-1.621,2.121-3.613,2.121c-1.986,0-3.605-0.945-3.605-2.121
			c0-1.166,1.619-2.119,3.605-2.119C137.027,219.568,138.648,220.521,138.648,221.688z"/>
		<path fill="#8BBE6B" d="M135.035,245.127c0,1.17-1.607,2.123-3.605,2.123c-1.99,0-3.6-0.953-3.6-2.123
			c0-1.166,1.609-2.117,3.6-2.117C133.428,243.01,135.035,243.961,135.035,245.127z"/>
		<path fill="#8BBE6B" d="M134.824,220.094c0,1.289-0.762,2.336-1.693,2.336c-0.939,0-1.701-1.047-1.701-2.336
			c0-1.285,0.762-2.332,1.701-2.332C134.063,217.762,134.824,218.809,134.824,220.094z"/>
		<path fill="#8BBE6B" d="M130.301,222.43c0,1.287-0.764,2.324-1.699,2.324c-0.938,0-1.697-1.037-1.697-2.324
			c0-1.291,0.76-2.336,1.697-2.336C129.537,220.094,130.301,221.139,130.301,222.43z"/>
		<path fill="#8BBE6B" d="M165.98,242.799c0,1.291-0.754,2.328-1.689,2.328c-0.941,0-1.693-1.037-1.693-2.328
			c0-1.287,0.752-2.332,1.693-2.332C165.227,240.467,165.98,241.512,165.98,242.799z"/>
		<path fill="#8BBE6B" d="M142.875,244.02c0,1.287-0.75,2.336-1.699,2.336c-0.936,0-1.684-1.049-1.684-2.336
			c0-1.291,0.748-2.332,1.684-2.332C142.125,241.688,142.875,242.729,142.875,244.02z"/>
		<path fill="#8BBE6B" d="M120.982,242.799c0,1.291-0.758,2.328-1.701,2.328c-0.945,0-1.695-1.037-1.695-2.328
			c0-1.287,0.75-2.332,1.695-2.332C120.225,240.467,120.982,241.512,120.982,242.799z"/>
		<path fill="#8BBE6B" d="M149.24,217.939c0,1.189-0.982,2.154-2.189,2.154c-1.213,0-2.193-0.965-2.193-2.154
			c0-1.191,0.98-2.152,2.193-2.152C148.258,215.787,149.24,216.748,149.24,217.939z"/>
		<path fill="#8BBE6B" d="M121.475,228.893c0,1.189-0.977,2.152-2.193,2.152c-1.209,0-2.186-0.963-2.186-2.152
			c0-1.195,0.977-2.158,2.186-2.158C120.498,226.734,121.475,227.697,121.475,228.893z"/>
		<path fill="#8BBE6B" d="M117.861,230.207c0,1.191-0.977,2.15-2.189,2.15c-1.211,0-2.193-0.959-2.193-2.15
			c0-1.195,0.982-2.158,2.193-2.158C116.885,228.049,117.861,229.012,117.861,230.207z"/>
		<ellipse fill="#8BBE6B" cx="112.07" cy="231.93" rx="2.195" ry="2.156"/>
		<path fill="#8BBE6B" d="M177.266,224.578c0,1.189-0.975,2.156-2.189,2.156c-1.213,0-2.191-0.967-2.191-2.156
			c0-1.186,0.979-2.148,2.191-2.148C176.291,222.43,177.266,223.393,177.266,224.578z"/>
		<path fill="#8BBE6B" d="M124.518,226.74c0,1.188-0.982,2.152-2.193,2.152c-1.209,0-2.191-0.965-2.191-2.152
			c0-1.195,0.982-2.162,2.191-2.162C123.535,224.578,124.518,225.545,124.518,226.74z"/>
		<path fill="#8BBE6B" d="M141.686,219.576c0,1.186-0.98,2.152-2.193,2.152c-1.211,0-2.189-0.967-2.189-2.152
			c0-1.197,0.979-2.152,2.189-2.152C140.705,217.424,141.686,218.379,141.686,219.576z"/>
		<ellipse fill="#8BBE6B" cx="153.998" cy="219.094" rx="2.193" ry="2.156"/>
		<ellipse fill="#8BBE6B" cx="176.719" cy="227.658" rx="2.191" ry="2.152"/>
		<path fill="#8BBE6B" d="M177.266,232.357c0,1.186-0.975,2.148-2.189,2.148c-1.213,0-2.191-0.963-2.191-2.148
			c0-1.193,0.979-2.156,2.191-2.156C176.291,230.201,177.266,231.164,177.266,232.357z"/>
		<path fill="#8BBE6B" d="M126.707,244.02c0,1.186-0.979,2.152-2.189,2.152c-1.213,0-2.193-0.967-2.193-2.152
			c0-1.193,0.98-2.152,2.193-2.152C125.729,241.867,126.707,242.826,126.707,244.02z"/>
		<path fill="#8BBE6B" d="M155.596,245.135c0,1.189-0.98,2.152-2.197,2.152c-1.209,0-2.186-0.963-2.186-2.152
			c0-1.193,0.977-2.158,2.186-2.158C154.615,242.977,155.596,243.941,155.596,245.135z"/>
		<path fill="#8BBE6B" d="M160.824,220.758c0,0.926-0.504,1.672-1.121,1.672c-0.631,0-1.125-0.746-1.125-1.672
			c0-0.918,0.494-1.664,1.125-1.664C160.32,219.094,160.824,219.84,160.824,220.758z"/>
		<path fill="#8BBE6B" d="M138.248,220.477c0,0.92-0.504,1.672-1.125,1.672c-0.613,0-1.119-0.752-1.119-1.672
			c0-0.918,0.506-1.664,1.119-1.664C137.744,218.813,138.248,219.559,138.248,220.477z"/>
		<path fill="#8BBE6B" d="M141.738,220.477c0,0.92-0.508,1.672-1.121,1.672c-0.631,0-1.125-0.752-1.125-1.672
			c0-0.918,0.494-1.664,1.125-1.664C141.23,218.813,141.738,219.559,141.738,220.477z"/>
		<path fill="#8BBE6B" d="M151.486,219.023c0,0.922-0.508,1.668-1.125,1.668s-1.121-0.746-1.121-1.668
			c0-0.918,0.504-1.664,1.121-1.664S151.486,218.105,151.486,219.023z"/>
		<path fill="#8BBE6B" d="M157.926,219.023c0,0.922-0.504,1.668-1.125,1.668c-0.623,0-1.129-0.746-1.129-1.668
			c0-0.918,0.506-1.664,1.129-1.664C157.422,217.359,157.926,218.105,157.926,219.023z"/>
		<path fill="#8BBE6B" d="M145.979,219.094c0,0.922-0.508,1.664-1.121,1.664c-0.621,0-1.125-0.742-1.125-1.664
			c0-0.918,0.504-1.668,1.125-1.668C145.471,217.426,145.979,218.176,145.979,219.094z"/>
		<path fill="#8BBE6B" d="M143.539,220.025c0,0.92-0.498,1.662-1.125,1.662c-0.617,0-1.125-0.742-1.125-1.662
			c0-0.918,0.508-1.67,1.125-1.67C143.041,218.355,143.539,219.107,143.539,220.025z"/>
		<path fill="#8BBE6B" d="M115.672,233.814c0,0.922-0.494,1.668-1.121,1.668c-0.617,0-1.127-0.746-1.127-1.668
			c0-0.918,0.51-1.664,1.127-1.664C115.178,232.15,115.672,232.896,115.672,233.814z"/>
		<path fill="#8BBE6B" d="M166.539,240.467c0,0.922-0.506,1.668-1.121,1.668c-0.631,0-1.127-0.746-1.127-1.668
			s0.496-1.666,1.127-1.666C166.033,238.801,166.539,239.545,166.539,240.467z"/>
		<path fill="#8BBE6B" d="M144.668,245.688c0,0.918-0.508,1.66-1.123,1.66c-0.627,0-1.131-0.742-1.131-1.66
			c0-0.926,0.504-1.668,1.131-1.668C144.16,244.02,144.668,244.762,144.668,245.688z"/>
		<path fill="#8BBE6B" d="M149.338,245.002c0,0.922-0.504,1.664-1.121,1.664c-0.631,0-1.125-0.742-1.125-1.664
			c0-0.918,0.494-1.67,1.125-1.67C148.834,243.332,149.338,244.084,149.338,245.002z"/>
		<path fill="#8BBE6B" d="M172.125,220.025c0,2.344-1.303,4.24-2.898,4.24s-2.895-1.896-2.895-4.24c0-2.338,1.299-4.238,2.895-4.238
			S172.125,217.688,172.125,220.025z"/>
		<path fill="#8BBE6B" d="M173.961,236.387c0,2.346-1.297,4.24-2.895,4.24c-1.596,0-2.896-1.895-2.896-4.24
			c0-2.342,1.301-4.236,2.896-4.236C172.664,232.15,173.961,234.045,173.961,236.387z"/>
		<path fill="#8BBE6B" d="M162.598,243.619c0,2.342-1.299,4.24-2.904,4.24c-1.6,0-2.898-1.898-2.898-4.24
			c0-2.338,1.299-4.24,2.898-4.24C161.299,239.379,162.598,241.281,162.598,243.619z"/>
		<path fill="#8BBE6B" d="M128.602,223.338c0,2.338-1.301,4.232-2.896,4.232c-1.598,0-2.895-1.895-2.895-4.232
			c0-2.35,1.297-4.244,2.895-4.244C127.301,219.094,128.602,220.988,128.602,223.338z"/>
		<path fill="#8BBE6B" d="M139.492,245.688c0,2.334-1.299,4.232-2.904,4.232c-1.598,0-2.898-1.898-2.898-4.232
			c0-2.346,1.301-4.244,2.898-4.244C138.193,241.443,139.492,243.342,139.492,245.688z"/>
		<path fill="#8BBE6B" d="M116.51,240.762c0,2.342-1.299,4.24-2.895,4.24c-1.611,0-2.898-1.898-2.898-4.24s1.287-4.24,2.898-4.24
			C115.211,236.521,116.51,238.42,116.51,240.762z"/>
		<path fill="#D7E6C4" d="M130.574,231.977c0,0-0.693-1.701,3.346-1.84c4.055-0.139,2.271-2.541,7.545-1.268
			s9.371-4.125,9.867-2.203c0.498,1.914,11.947,1.852,6.287,4.783c-5.658,2.928-8.443,2.678-10.527,3.057
			c-2.096,0.387-6.826-0.848-9.789-0.691C134.336,233.967,133.063,234.377,130.574,231.977z"/>
	</g>
	<rect x="270.215" y="181.906" fill-rule="evenodd" clip-rule="evenodd" fill="#8BBE6B" width="228.387" height="55.643"/>
	<text transform="matrix(1 0 0 1 346.3711 224.5859)" fill="#D7E6C4" font-family="'GillSansMT'" font-size="47.3225">Kiwi</text>
</g>
</svg>
