<?xml version="1.0" encoding="utf-8"?>
<!-- Generator: Adobe Illustrator 16.0.0, SVG Export Plug-In . SVG Version: 6.00 Build 0)  -->
<!DOCTYPE svg PUBLIC "-//W3C//DTD SVG 1.1//EN" "http://www.w3.org/Graphics/SVG/1.1/DTD/svg11.dtd">
<svg version="1.1" id="Capa_1" xmlns="http://www.w3.org/2000/svg" xmlns:xlink="http://www.w3.org/1999/xlink" x="0px" y="0px"
	 width="500px" height="500px" viewBox="0 0 500 500" enable-background="new 0 0 500 500" xml:space="preserve">
<g>
	<path fill-rule="evenodd" clip-rule="evenodd" fill="#8BBE6B" d="M501.469,304.652c0,17.811-12.242,32.25-27.328,32.25H237.283
		c-15.096,0-27.336-14.439-27.336-32.25V195.352c0-17.811,12.24-32.252,27.336-32.252h236.857c15.086,0,27.328,14.441,27.328,32.252
		V304.652z"/>
	<g>
		<path fill-rule="evenodd" clip-rule="evenodd" fill="#D7E6C4" d="M435.701,235.246c-4.055,3.232-5.717,5.502-10.957,8.262
			c-47.576,25.059-85.555-4.844-115.668-29.576c20.004,32.475,47.111,53.486,78.803,58.885c8.957-1.396,22.418-4.436,32.09-9.596
			c6.688-3.584,10.941-10.795,15.525-13.23C436.252,246.998,442.086,240.979,435.701,235.246z"/>
		<path fill-rule="evenodd" clip-rule="evenodd" fill="#D7E6C4" d="M287.494,194.924c1.465,2.033,3.139-1.768,6.613-1.629
			c1.492,2.541,5.355,15.299,7.281,16.697c17.654,30.832,39.111,48.936,64.373,59.908c2.381,1.252,5.428,2.215,8.029,2.883
			c15.346,5.971,29.752,2.889,51.551-6.096c2.834,0.041,8.439-2.215,11.715-3.309c1.705-1.314,11.133,2.297,13.438,1.203
			c2.082,9.92-19.611,23.424-27.072,27.455c-9.086,4.904-24.238,9.533-32.502,12.279c-9.17,3.033-12.609,1.555-21.242,2.717
			c-1.016,0.123-15.193-0.57-16.221-0.557c-3.574,0.068-12.053-3.688-15.912-3.77c-2.311-0.049-5.432-2.553-7.846-2.814
			c-2.666-0.275-6.098-3.494-7.869-3.824c-1.734-0.316,0.113-0.613-2.598-2.209c-7.539-4.443-3.789-3.955-4.318-4.1
			c-3.633-0.984,0.199-1.994-3.096-1.691c-0.744,0.068,0.145-3.02,0.418-2.992c-13.248-4.5-14.107-15.342-20.172-32.354
			c-4.814-13.531-1.561-23.324,0.541-33.822c-3.385-4.086-6.783-14.152-9.422-20.15
			C283.346,198.674,287.338,194.994,287.494,194.924z M300.318,234.719c-1.539,10.895,4.59,35.422,17.215,37.383
			c2.877-0.715,1.15-3.191,2.498-4.492c-7.322-8.068-12.238-20.928-12.654-30.961C305.588,234.523,303.859,232.256,300.318,234.719z
			"/>
		<path fill-rule="evenodd" clip-rule="evenodd" fill="#8BBE6B" d="M417.143,243.359c11.467-2.902,17.52-17.627,22.586-8.881
			c0.768,1.717,8.764,10.467-7.928,26.156c12.746-2.291,19.818,1.926,21.223,3.129c2.617,2.264,1.141,4.768-0.523,7.926
			c-9.029,9.789-20.699,19.969-40.689,28.863c1.275-3.055-0.172-4.588-0.014-4.656c1.881-0.846,9.094-4.934,13.16-7.334
			c12.154-6.287,16.715-12.828,23.141-18.512c4.045-4.738-3.551-5.75-5.166-5.922c-2.711,0.227-5.893,0.131-9.906,0.9
			c-3.404,0.93-9.865,4.479-13.146,5.559c-21.791,8.977-32.52,9.686-47.867,3.723c-2.383-1.238-4.43-1.467-7.473-2.863
			c-25.264-10.984-47.324-30.34-64.963-61.18c-1.4-3.123-2.797-6.256-4.193-9.393c-0.408-0.932-1.354-4.785-1.771-5.723
			c-2.613,0.271-8.045,1.973-7.879,4.375c1.576,6.17,5.174,15.426,8.541,19.508c-2.1,10.498-3.086,25.58,1.727,39.123
			c6.057,17.012,16.018,30.115,30.146,36.727c5.074,3.164,16.203,6.645,18.801,7.313c19.643,4.602,31.389,3.715,56.861-3.033
			c2.422-0.482,5.82-2.531,9.988-3.268c1.004,2.449,0.719,5.242-2.816,5.875c-42.107,16.164-77.619,1.451-81.713-1.08
			c-7.877-3.75-17.133-8.695-28.691-26.904c-10.969-19.668-13.693-40.836-8.193-53.795c-2.17-3.162-9.314-20.063-8.221-22.236
			c1.26-3.551,12.172-8.016,13.896-6.756c6.438,5.568,10.197,16.025,16.75,21.266C347.555,242.527,382.117,259.541,417.143,243.359z
			 M435.701,235.246c-4.055,3.232-5.717,5.502-10.957,8.262c-47.576,25.059-85.555-4.844-115.668-29.576
			c20.004,32.475,48.424,51.834,80.109,57.229c13.029-1.061,20.619-3.881,30.291-9.047c6.688-3.563,11.252-8.672,14.666-12.658
			C435.98,246.215,442.086,240.979,435.701,235.246z"/>
	</g>
	<rect x="-1.469" y="267.52" fill-rule="evenodd" clip-rule="evenodd" fill="#8BBE6B" width="231.764" height="56.463"/>
	<text transform="matrix(1 0 0 1 47.2363 309.2441)" fill="#D7E6C4" font-family="'GillSansMT'" font-size="48.0228">Banano</text>
</g>
</svg>
