<?xml version="1.0" encoding="utf-8"?>
<!-- Generator: Adobe Illustrator 16.0.0, SVG Export Plug-In . SVG Version: 6.00 Build 0)  -->
<!DOCTYPE svg PUBLIC "-//W3C//DTD SVG 1.1//EN" "http://www.w3.org/Graphics/SVG/1.1/DTD/svg11.dtd">
<svg version="1.1" id="Capa_1" xmlns="http://www.w3.org/2000/svg" xmlns:xlink="http://www.w3.org/1999/xlink" x="0px" y="0px"
	 width="500px" height="500px" viewBox="0 0 500 500" enable-background="new 0 0 500 500" xml:space="preserve">
<g>
	<path fill-rule="evenodd" clip-rule="evenodd" fill="#8BBE6B" d="M288.508,303.633c0,17.48-12.01,31.65-26.814,31.65H29.248
		c-14.814,0-26.828-14.17-26.828-31.65v-107.26c0-17.482,12.014-31.656,26.828-31.656h232.445c14.805,0,26.814,14.174,26.814,31.656
		V303.633z"/>
	<g>
		<path fill-rule="evenodd" clip-rule="evenodd" fill="#D7E6C4" d="M202.459,262.729c1.217,1.395,3.865,7.426,4.879,9.023
			c-0.486,1.346-1.854,1.67-2.863,2.572c-14.221,12.664-35.428,24.502-60.92,25.707c-30.566,1.441-48.328-11.82-64.156-25.729
			c0.787-1.9,4.396-5.66,5.242-7.492c7.986,6.387,15.943,11.895,25.313,16.715c9.654,4.961,20.547,6.268,34.213,6.123
			c13.414-0.135,23.867-3.342,33.113-8.695C186.744,275.469,195.381,269.607,202.459,262.729z"/>
		<path fill-rule="evenodd" clip-rule="evenodd" fill="#D7E6C4" d="M154.074,189.844c16.498,23.881,32.254,48.641,48.385,72.885
			c-14.904,13.111-30.432,26.475-57.264,27.605c-13.773,0.576-25.656-2.531-34.803-7.619c-9.211-5.127-17.98-10.449-25.752-16.691
			c5.311-6.574,10.924-13.002,16.482-19.564c2.762-3.256,5.473-6.375,8.439-9.477c2.852-2.971,5.443-5.975,8.104-9.307
			c6.221-7.801,11.334-12.348,17.229-19.74c2.586-3.232,5.262-5.926,8.451-9.059C146.586,195.703,150.756,191.457,154.074,189.844z
			 M153.02,204.236c-1.053,1.924-2.879,4.078-2.672,6.59c1.379,0.424,3.594,0.25,4.33-0.621c0.121-2.457-0.139-4.533-1.033-5.969
			C153.436,204.236,153.236,204.236,153.02,204.236z M137.986,222.363c1.033,0.854,3.203,0.645,4.326,0
			c0.459-2.168,0.203-5.238-1.238-6.182C139.471,217.66,138.459,219.736,137.986,222.363z M156.324,224.217
			c-1.256,1.902-2.666,3.65-2.889,6.584c1.26,0.457,2.652,0.457,3.916,0C158.371,229.043,157.908,225.215,156.324,224.217z
			 M120.893,234.723c1.176,0.584,3.818,0.635,4.74-0.211c0.871-2.246,0.363-6.121-1.232-7.207
			C122.533,229.072,121.359,231.543,120.893,234.723z M138.816,233.279c-1.646,2.541-3.449,4.928-3.922,8.65
			c1.262,0.982,4.699,0.793,5.771-0.209c0.949-2.748,0.068-6.639-1.234-8.441C139.229,233.279,139.02,233.279,138.816,233.279z
			 M167.652,236.982c-0.236,0.15-0.236,0.395-0.414,0.621c-1.594,2.014-3.559,5.359-3.502,8.238
			c1.307,0.986,4.406,0.709,5.563-0.203C170.145,242.848,169.641,238.264,167.652,236.982z M120.48,248.928
			c-0.262-0.008-0.279-0.258-0.623-0.207c-1.775,2.285-3.66,5.525-3.902,8.654c1.066,1.26,4.389,0.926,5.563,0
			C122.631,254.756,121.721,250.973,120.48,248.928z M156.932,253.258c-1.521,2.461-3.705,5.336-3.695,8.65
			c3.193,1.422,6.193,0.574,6.17-2.879c-0.01-1.984-0.949-5.094-2.055-5.771C157.215,253.258,157.074,253.258,156.932,253.258z
			 M136.551,258.611c-1.688,2.502-3.51,4.875-3.912,8.654c1.033,0.969,4.213,0.732,5.561,0.203c1.336-2.572,0.252-6.975-1.029-8.857
			C136.957,258.611,136.754,258.611,136.551,258.611z"/>
		<g>
			<path fill-rule="evenodd" clip-rule="evenodd" fill="#8BBE6B" d="M204.67,263.27c-15.422-21.549-28.67-42.629-48.346-72.291
				c-2.275-3.068-4.201-2.008-4.201-2.008c-2.07,0.357-43.648,48.686-46.818,52.139c-9.428,10.271-21.855,24.219-28.799,34.92
				c9.488,8.586,19.236,13.619,31.449,19.479c9.113,4.375,31.209,10.676,65.988-0.227c7.211-2.25,13.08-5.576,18.836-9.484
				c5.734-3.906,12.168-8.57,16.373-13.613C209.676,271.219,206.152,266.119,204.67,263.27z M118.406,228.695
				c5.545-5.775,11.604-13.496,17.314-19.871c2.883-3.221,16.699-19.719,17.813-18.389c1.07,0,31.797,47.883,47.92,72.125
				c-15.793,12.82-29.064,24.646-56.273,26.496c-13.758,0.939-25.336-1.799-34.486-6.893c-9.205-5.129-24.027-14.385-24.324-15.945
				C86.518,264.646,115.455,231.77,118.406,228.695z M203.381,273.73c-14.221,12.668-34.334,23.904-59.826,25.111
				c-30.566,1.453-48.063-11.539-63.852-23.928c0.641-2.426,3.625-5.184,4.938-6.982c7.986,6.383,15.152,11.266,24.523,16.082
				c9.652,4.967,21.15,7.424,34.797,6.826c9.99-0.436,24.27-3.439,33.523-8.797c9.459-5.479,17.896-11.119,24.975-18
				c1.217,1.393,3.17,4.932,4.189,6.527C206.162,271.914,204.396,272.832,203.381,273.73z"/>
			<path fill-rule="evenodd" clip-rule="evenodd" fill="#8BBE6B" d="M153.645,204.236c0.895,1.436,1.154,3.512,1.033,5.969
				c-0.736,0.871-2.951,1.045-4.33,0.621c-0.207-2.512,1.619-4.666,2.672-6.59C153.236,204.236,153.436,204.236,153.645,204.236z"/>
			<path fill-rule="evenodd" clip-rule="evenodd" fill="#8BBE6B" d="M141.074,216.182c1.441,0.943,1.697,4.014,1.238,6.182
				c-1.123,0.645-3.293,0.854-4.326,0C138.459,219.736,139.471,217.66,141.074,216.182z"/>
			<path fill-rule="evenodd" clip-rule="evenodd" fill="#8BBE6B" d="M157.352,230.801c-1.264,0.457-2.656,0.457-3.916,0
				c0.223-2.934,1.633-4.682,2.889-6.584C157.908,225.215,158.371,229.043,157.352,230.801z"/>
			<path fill-rule="evenodd" clip-rule="evenodd" fill="#8BBE6B" d="M124.4,227.305c1.596,1.086,2.104,4.961,1.232,7.207
				c-0.922,0.846-3.564,0.795-4.74,0.211C121.359,231.543,122.533,229.072,124.4,227.305z"/>
			<path fill-rule="evenodd" clip-rule="evenodd" fill="#8BBE6B" d="M139.432,233.279c1.303,1.803,2.184,5.693,1.234,8.441
				c-1.072,1.002-4.51,1.191-5.771,0.209c0.473-3.723,2.275-6.109,3.922-8.65C139.02,233.279,139.229,233.279,139.432,233.279z"/>
			<path fill-rule="evenodd" clip-rule="evenodd" fill="#8BBE6B" d="M169.299,245.639c-1.156,0.912-4.256,1.189-5.563,0.203
				c-0.057-2.879,2.373-8.859,3.916-8.859C169.641,238.264,170.145,242.848,169.299,245.639z"/>
			<path fill-rule="evenodd" clip-rule="evenodd" fill="#8BBE6B" d="M121.518,257.375c-1.174,0.926-4.496,1.26-5.563,0
				c0.242-3.129,2.127-6.369,3.902-8.654c0.344-0.051,0.361,0.199,0.623,0.207C121.721,250.973,122.631,254.756,121.518,257.375z"/>
			<path fill-rule="evenodd" clip-rule="evenodd" fill="#8BBE6B" d="M157.352,253.258c1.105,0.678,2.045,3.787,2.055,5.771
				c0.023,3.453-2.977,4.301-6.17,2.879c-0.01-3.314,2.174-6.189,3.695-8.65C157.074,253.258,157.215,253.258,157.352,253.258z"/>
			<path fill-rule="evenodd" clip-rule="evenodd" fill="#8BBE6B" d="M137.17,258.611c1.281,1.883,2.365,6.285,1.029,8.857
				c-1.348,0.529-4.527,0.766-5.561-0.203c0.402-3.779,2.225-6.152,3.912-8.654C136.754,258.611,136.957,258.611,137.17,258.611z"/>
		</g>
	</g>
	<rect x="270.131" y="183.34" fill-rule="evenodd" clip-rule="evenodd" fill="#8BBE6B" width="227.449" height="55.414"/>
	<text transform="matrix(1 0 0 1 335.8926 224.2168)" fill="#D7E6C4" font-family="'GillSansMT'" font-size="47.1279">Sandía</text>
</g>
</svg>
