<?xml version="1.0" encoding="utf-8"?>
<!-- Generator: Adobe Illustrator 16.0.0, SVG Export Plug-In . SVG Version: 6.00 Build 0)  -->
<!DOCTYPE svg PUBLIC "-//W3C//DTD SVG 1.1//EN" "http://www.w3.org/Graphics/SVG/1.1/DTD/svg11.dtd">
<svg version="1.1" id="Capa_1" xmlns="http://www.w3.org/2000/svg" xmlns:xlink="http://www.w3.org/1999/xlink" x="0px" y="0px"
	 width="500px" height="500px" viewBox="0 0 500 500" enable-background="new 0 0 500 500" xml:space="preserve">
<g>
	<path fill-rule="evenodd" clip-rule="evenodd" fill="#8BBE6B" d="M498.594,304.029c0,17.605-12.102,31.879-27.016,31.879H237.43
		c-14.922,0-27.023-14.273-27.023-31.879V195.977c0-17.605,12.102-31.883,27.023-31.883h234.148
		c14.914,0,27.016,14.277,27.016,31.883V304.029z"/>
	<g>
		<path fill-rule="evenodd" clip-rule="evenodd" fill="#D7E6C4" d="M355.773,197.615c-1.834,4.037-8.705,4.299-12.748,2.775
			c-4.23-1.602-10.932-12.203-21.465-11.646c0.734-1.852,7.525-6.518,8.719-7.918c5.324-2.941,19.129-4.107,20.984,0.629
			c0.68,1.293,9.756,11.465,9.746,13.465C360.594,195.121,355.871,197.1,355.773,197.615z"/>
		<path fill-rule="evenodd" clip-rule="evenodd" fill="#D7E6C4" d="M390.865,316.385c-14.732,8.787-24.848,2.184-30.529-2.971
			c-1.381-1.354-2.041,0.34-2.854,1.066c0,0.307-1.543,1.477-1.543,1.775c0,0.918-2.143,0.762-2.143,1.666
			c-0.869,0.197-11.107,2.822-12.232,2.748c-1.619,0.973-8.674,3.678-24.121-8.33c-3.51,1.76-19.201-29.012-23.445-30.092
			c-0.156-2.135-5.637-29.076-5.789-31.201c2.744-11.055,9.633-17.953,14.029-24.125c-0.201-0.684,6.242-1.488,5.459-1.662
			c1.449-2.41,1.629,0.891,1.551-1.309c4.098-3.303,1.662,0.367,4.51-2.021c2.033-1.705,4.342-2.691,1.787-1.42
			c0.287-0.473,2.041,0.648,1.898-0.242c-0.26-1.322,19.9-2.254,19.24-2.496c0.715-1.42,15.061,10.287,15.916,9.025
			c2.322-1.928,6.264-5.639,8.209-7.957c4.979-3.842,15.293-7.242,23.52-7.838c1.828,0,10.537,2.133,12.352,2.133
			c4.645-0.064,10.797,10.203,13.789,11.764c2.02,2.082,5.154,16.645,7.367,18.539c4.039,13.887,3.76,20.326-1.896,39.559
			c-0.156,0-0.316,4.209-0.471,4.209c-0.58,1.137-20.941,27.949-21.631,28.344 M396.045,304.369 M397.418,301.635 M387.832,220.428
			c-2.627-0.045-4.6,0.568-5.014,2.736c0,0.766,0,1.523,0,2.285c0.459,2.279,2.369,3.102,5.471,2.738c0.156,0,0.313,0,0.455,0
			c1.656,1.078,3.359,2.127,5.021,3.191c-0.074,1.133,0.719,1.412,0.908,2.285c0.789,1.941,0.637,4.842,1.83,6.383
			c-0.381,1.904,0.895,2.152,0.914,3.652c-0.275,2.705,1.486,3.375,2.734,4.566c4.855,1.066,6.813-4.143,4.568-7.305
			c-0.115-2.934-1.471-4.607-1.832-7.297c-1.721-7.559-6.195-12.359-14.6-13.236C388.143,220.428,387.986,220.428,387.832,220.428z"
			/>
		<path fill-rule="evenodd" clip-rule="evenodd" fill="#8BBE6B" d="M287.471,261.037c-0.559-4.984-0.445-6.072,0-9.131
			c2.332-21.291,23.529-37.1,46.994-35.578c5.324,0.336,7.174,1.506,12.053,3.594c3.07,2.166,3.717,4.467,4.824-1.637
			c0.793-7.271,1.193-7.857,2.143-12.59c0.611-1.646,1.395-5.076,1.896-6.1c-0.883,0.795-5.568,2.57-7.689,2.58
			c-1.742,0.426-2.592,0.143-4.566,0c-6.035-0.605-9.922-11.377-16.42-11.4c-4.043-0.363-4.68,1.717-7.301,2.277
			c-2.602-5.576,6.6-11.598,6.754-11.598c1.732-1.459,4.355-2.455,6.932-3.461c3.551-1.357,8.742-1.779,13.227-0.902
			c1.541,0.328,2.959,0.613,4.387,1.273c6.801,2.336,7.66,8.963,11.408,14.338c3.373,3.787-1.895,4.516-1.895,4.516
			c-3.25,9.266-4.723,21.727-5.148,24.236c-1.373,3.998-0.57,0.162,6.006-4.195c10.629-8.314,24.402-9.66,37.35-4.537
			c11.609,5.492,17.066,17.209,19.98,26.406c1.574,4.053,4.453,15.836,3.191,24.635c-2.855,25.102-14.141,37.811-21.902,46.99
			c0,0-1.807-2.162-2.188-3.039c6.732-7.188,12.359-13.777,16.635-24.557c7.354-18.523,5.068-41.615-7.756-60.357
			c-1.789-2.314-6.811-9.49-20.439-10.451c-10.135,0.158-15.684,0.951-23.131,6.813c-2.313,1.941-9.398,8.566-10.111,9.98
			c-5.727,6.334-5.09,12.826-5.012,17.289c-7.057-2.08-0.457-14.902-0.457-15.053c0.637-0.74,1.908-3.297,2.441-4.135
			c-2.699-6.34-14.709-10.145-28.018-7.455c-13.307,3.805-22.168,12.818-23.146,14.42c-7.604,7.445-8.709,19.176-8.236,25.666
			c0.486,7.848,4.305,17.666,6.963,22.809c4.318,10.139,12.445,18.102,19.33,25.664c3.004,3.801,10.293,8.996,16.309,10.928
			c4.252,1.088,12.336,0.49,15.84-1.266c1.912-0.686,6.107-4.086,6.979-4.277c0-0.91,1.34-3.971,3.793-3.637
			c6.352,8.377,28.361,13.268,38.018-2.381c0.83,2.244,1.363,1.809,2.188,3.039c-5.947,8.787-22.625,13.813-34.668,7.305
			c-2.098-0.625-3.404-2.068-5.928-2.279c-3.09,1.918-6.16,3.885-9.574,5.475c-16.609,6.754-28.844-3.902-38.793-14.6
			C293.598,288.232,287.471,267.635,287.471,261.037z M333.682,180.744c-4.91,1.322-12.689,7.219-11.02,8
			c9.467-3.961,16.076,9.055,21.268,10.375c4.721,1.189,10.602-2.502,15.727-5.07C355.045,192.227,355.695,176.076,333.682,180.744z
			"/>
	</g>
	<rect x="1.408" y="267.553" fill-rule="evenodd" clip-rule="evenodd" fill="#8BBE6B" width="229.113" height="55.816"/>
	<text transform="matrix(1 0 0 1 31.5273 314.3613)" fill="#D7E6C4" font-family="'GillSansMT'" font-size="47.4735">Manzana</text>
</g>
</svg>
