<?xml version="1.0" encoding="utf-8"?>
<!-- Generator: Adobe Illustrator 16.0.0, SVG Export Plug-In . SVG Version: 6.00 Build 0)  -->
<!DOCTYPE svg PUBLIC "-//W3C//DTD SVG 1.1 Basic//EN" "http://www.w3.org/Graphics/SVG/1.1/DTD/svg11-basic.dtd">
<svg version="1.1" baseProfile="basic" id="Capa_1" xmlns="http://www.w3.org/2000/svg" xmlns:xlink="http://www.w3.org/1999/xlink"
	 x="0px" y="0px" width="500px" height="500px" viewBox="0 0 500 500" xml:space="preserve">
<g>
	<g>
		<path fill-rule="evenodd" clip-rule="evenodd" fill="#C89658" d="M136.211,370.162c14.639,3.158,30.475,5.107,46.789,6.576
			c-0.467,0-0.947,0-1.414,0c1.578,34.707,3.957,70.631,5.863,105.791c-12.662-2.844-24.418-6.619-35.24-11.291
			C146.881,437.537,141.609,403.781,136.211,370.162z"/>
		<path fill-rule="evenodd" clip-rule="evenodd" fill="#C89658" d="M216.621,495.932c-0.164-0.025-0.289-0.055-0.248-0.23
			c0.715,0.121,2.031-0.318,2.363,0.23C218.02,495.932,217.307,495.932,216.621,495.932z"/>
		<path fill-rule="evenodd" clip-rule="evenodd" fill="#C89658" d="M218.957,496.166c0-0.082,0-0.152,0-0.234
			c0.713,0.152,2.031-0.314,2.359,0.234c-0.713,0-1.428,0-2.115,0C219.121,496.166,219.037,496.166,218.957,496.166z"/>
		<path fill-rule="evenodd" clip-rule="evenodd" fill="#C89658" d="M262.682,496.166c0.328-0.549,1.646-0.082,2.363-0.234
			c0,0.082,0,0.152,0,0.234c-0.084,0-0.166,0-0.25,0C264.084,496.166,263.393,496.166,262.682,496.166z"/>
		<path fill-rule="evenodd" clip-rule="evenodd" fill="#C89658" d="M221.785,496.398c0-0.08,0-0.164,0-0.232
			c0.797,0.152,2.182-0.316,2.58,0.232c-0.77,0-1.566,0-2.348,0C221.949,496.398,221.865,496.398,221.785,496.398z"/>
		<path fill-rule="evenodd" clip-rule="evenodd" fill="#C89658" d="M259.633,496.398c0.465-0.549,1.951-0.08,2.828-0.232
			c0,0.068,0,0.152,0,0.232c-0.166,0-0.328,0-0.48,0C261.197,496.398,260.402,496.398,259.633,496.398z"/>
		<path fill-rule="evenodd" clip-rule="evenodd" fill="#C89658" d="M224.834,496.633c0-0.082,0-0.164,0-0.234
			c1.041,0.152,2.662-0.314,3.295,0.234c-0.934,0-1.881,0-2.814,0C225.148,496.633,224.998,496.633,224.834,496.633z"/>
		<path fill-rule="evenodd" clip-rule="evenodd" fill="#C89658" d="M255.637,496.633c0.701-0.549,2.418-0.082,3.531-0.234
			c0,0.07,0,0.152,0,0.234c-0.168,0-0.32,0-0.471,0C257.682,496.633,256.652,496.633,255.637,496.633z"/>
		<path fill-rule="evenodd" clip-rule="evenodd" fill="#DBE59B" d="M390.816,352.525c1.373-0.824,2.691-1.701,4.447-2.113
			C393.891,351.236,392.572,352.113,390.816,352.525z"/>
		<path fill-rule="evenodd" clip-rule="evenodd" fill="#C89658" d="M362.605,362.869c5.602-1.84,11.387-3.502,16.672-5.645
			c-6.59,33.592-12.801,67.594-19.031,101.557c-3.627,1.639-6.705,3.805-10.578,5.168
			C353.912,430.342,359.074,396.406,362.605,362.869z"/>
		<path fill-rule="evenodd" clip-rule="evenodd" fill="#C89658" d="M308.773,373.924c16.643-2.32,32.6-5.328,47.488-9.408
			c-4.805,34.063-9.133,68.627-13.654,102.947c-12.137,5.59-25.182,10.258-39.496,13.639
			C304.9,445.434,307.424,409.26,308.773,373.924z"/>
		<path fill-rule="evenodd" clip-rule="evenodd" fill="#C89658" d="M187.449,376.973c37.355,2.721,81.027,2.516,115.662-2.334
			c-1.441,1.619-1.068,4.119-1.168,6.098c-1.715,33.4-3.652,68.516-5.643,102.027c-17.357,3.941-37.408,6.48-58.531,5.891
			c1.068-36.477,1.951-73.117,3.049-109.566c-1.73-0.551-4.451-0.082-6.578-0.232c-1.141,36.395-2.045,73.033-3.063,109.535
			c-12.553-0.285-25.791-1.936-36.889-4.445c-2.252-35.311-4.201-70.883-6.123-106.506
			C187.971,377.248,187.533,377.301,187.449,376.973z"/>
		<path fill-rule="evenodd" clip-rule="evenodd" fill="#C89658" d="M108.469,362.4c6.605,2.57,13.914,4.438,21.164,6.346
			c4.422,32.865,10.49,66.154,15.27,99.443c-4.559-1.854-8.541-4.285-13.154-6.123C123.561,429.297,116.531,395.334,108.469,362.4z"
			/>
		<path fill-rule="evenodd" clip-rule="evenodd" fill="#DBE59B" d="M95.545,356.992c1.512,0.369,2.773,0.986,3.762,1.879
			c0,0.164,0,0.316,0,0.469C98.484,358.129,96.615,357.967,95.545,356.992z"/>
		<path fill-rule="evenodd" clip-rule="evenodd" fill="#DE9597" d="M367.865,210.262c26.521,16.824,47.287,37.863,54.768,71.691
			c2.156,9.721,3.215,19.584,0.25,27.273c-2.775,7.141-7.721,12.799-13.889,17.635c-11.697,9.174-26.766,15.436-42.557,20.447
			c-47.369,15.066-109.564,19.422-171.367,15.506c-38.59-2.43-76.633-7.912-101.324-24.912
			c-12.664-8.736-22.002-21.465-17.154-43.26c8.006-36.064,38.633-43.016,83.225-43.016c40.17,0,83.719,5.854,121.293-0.467
			c31.629-5.328,56.68-16.672,77.584-32.906C361.795,215.838,365.006,212.746,367.865,210.262z"/>
		<path fill-rule="evenodd" clip-rule="evenodd" fill="#E3EAB1" d="M388.234,353.941c0.439-0.891,1.48-1.166,2.582-1.416
			c-0.701,0.717-2.02,0.799-2.582,1.65C388.234,354.094,388.234,354.012,388.234,353.941z"/>
		<path fill-rule="evenodd" clip-rule="evenodd" fill="#C89658" d="M387.518,356.992c-0.023,0.918-0.107,1.77-0.465,2.348
			C387.053,358.402,387.16,357.58,387.518,356.992z"/>
		<path fill-rule="evenodd" clip-rule="evenodd" fill="#C89658" d="M386.807,360.754c0,0.92-0.113,1.758-0.471,2.348
			C386.365,362.184,386.449,361.344,386.807,360.754z"/>
		<path fill-rule="evenodd" clip-rule="evenodd" fill="#C89658" d="M385.625,367.1c0,0.92-0.111,1.77-0.471,2.348
			C385.184,368.527,385.283,367.688,385.625,367.1z"/>
		<path fill-rule="evenodd" clip-rule="evenodd" fill="#C89658" d="M384.939,370.859c-0.029,0.922-0.127,1.775-0.48,2.35
			C384.469,372.291,384.566,371.453,384.939,370.859z"/>
		<path fill-rule="evenodd" clip-rule="evenodd" fill="#C89658" d="M384.223,374.639c-0.014,0.906-0.111,1.744-0.465,2.334
			C383.768,376.051,383.865,375.201,384.223,374.639z"/>
		<path fill-rule="evenodd" clip-rule="evenodd" fill="#C89658" d="M383.508,378.375c0,0.932-0.107,1.785-0.465,2.361
			C383.072,379.816,383.15,378.979,383.508,378.375z"/>
		<path fill-rule="evenodd" clip-rule="evenodd" fill="#C89658" d="M382.822,382.135c-0.025,0.938-0.109,1.787-0.467,2.363
			C382.355,383.566,382.463,382.729,382.822,382.135z"/>
		<path fill-rule="evenodd" clip-rule="evenodd" fill="#C89658" d="M382.105,385.9c-0.01,0.934-0.107,1.783-0.465,2.363
			C381.654,387.326,381.752,386.49,382.105,385.9z"/>
		<path fill-rule="evenodd" clip-rule="evenodd" fill="#C89658" d="M381.641,388.496c-0.025,0.918-0.109,1.771-0.467,2.348
			C381.189,389.924,381.281,389.072,381.641,388.496z"/>
		<path fill-rule="evenodd" clip-rule="evenodd" fill="#C89658" d="M380.93,392.244c-0.016,0.936-0.113,1.787-0.471,2.361
			C380.488,393.672,380.572,392.836,380.93,392.244z"/>
		<path fill-rule="evenodd" clip-rule="evenodd" fill="#C89658" d="M380.213,396.008c0,0.932-0.111,1.785-0.455,2.363
			C379.771,397.436,379.871,396.598,380.213,396.008z"/>
		<path fill-rule="evenodd" clip-rule="evenodd" fill="#C89658" d="M379.527,399.771c-0.029,0.934-0.113,1.771-0.467,2.359
			C379.061,401.199,379.17,400.361,379.527,399.771z"/>
		<path fill-rule="evenodd" clip-rule="evenodd" fill="#C89658" d="M378.811,403.533c0,0.934-0.107,1.758-0.465,2.363
			C378.371,404.961,378.453,404.125,378.811,403.533z"/>
		<path fill-rule="evenodd" clip-rule="evenodd" fill="#C89658" d="M378.111,407.297c-0.016,0.934-0.109,1.771-0.467,2.35
			C377.66,408.725,377.752,407.871,378.111,407.297z"/>
		<path fill-rule="evenodd" clip-rule="evenodd" fill="#C89658" d="M377.645,409.877c-0.014,0.936-0.123,1.775-0.48,2.363
			C377.193,411.309,377.287,410.482,377.645,409.877z"/>
		<path fill-rule="evenodd" clip-rule="evenodd" fill="#C89658" d="M376.943,413.643c-0.023,0.934-0.123,1.77-0.48,2.361
			C376.479,415.068,376.57,414.219,376.943,413.643z"/>
		<path fill-rule="evenodd" clip-rule="evenodd" fill="#C89658" d="M376.229,417.404c-0.025,0.934-0.109,1.758-0.467,2.348
			C375.762,418.834,375.875,417.98,376.229,417.404z"/>
		<path fill-rule="evenodd" clip-rule="evenodd" fill="#C89658" d="M375.531,421.166c-0.014,0.922-0.127,1.773-0.48,2.363
			C375.076,422.596,375.16,421.758,375.531,421.166z"/>
		<path fill-rule="evenodd" clip-rule="evenodd" fill="#C89658" d="M374.816,424.932c-0.016,0.932-0.113,1.785-0.457,2.348
			C374.359,426.344,374.473,425.52,374.816,424.932z"/>
		<path fill-rule="evenodd" clip-rule="evenodd" fill="#C89658" d="M374.115,428.691c-0.016,0.908-0.107,1.76-0.467,2.363
			C373.664,430.123,373.758,429.27,374.115,428.691z"/>
		<path fill-rule="evenodd" clip-rule="evenodd" fill="#C89658" d="M373.648,431.275c-0.029,0.934-0.111,1.758-0.465,2.363
			C373.184,432.701,373.291,431.879,373.648,431.275z"/>
		<path fill-rule="evenodd" clip-rule="evenodd" fill="#C89658" d="M372.934,435.053c0,0.904-0.107,1.758-0.465,2.32
			C372.492,436.467,372.576,435.613,372.934,435.053z"/>
		<path fill-rule="evenodd" clip-rule="evenodd" fill="#C89658" d="M372.232,438.801c-0.014,0.936-0.123,1.76-0.48,2.348
			C371.781,440.217,371.889,439.393,372.232,438.801z"/>
		<path fill-rule="evenodd" clip-rule="evenodd" fill="#C89658" d="M371.531,442.564c-0.023,0.932-0.107,1.758-0.465,2.35
			C371.066,443.992,371.174,443.154,371.531,442.564z"/>
		<path fill-rule="evenodd" clip-rule="evenodd" fill="#C89658" d="M370.82,446.313c-0.014,0.934-0.113,1.787-0.471,2.352
			C370.379,447.756,370.463,446.904,370.82,446.313z"/>
		<path fill-rule="evenodd" clip-rule="evenodd" fill="#C89658" d="M369.654,452.674c-0.016,0.92-0.127,1.77-0.486,2.348
			C369.197,454.086,369.281,453.262,369.654,452.674z"/>
		<path fill-rule="evenodd" clip-rule="evenodd" fill="#C89658" d="M369.168,455.252c0,0.922-0.107,1.775-0.465,2.352
			C368.732,456.695,368.826,455.846,369.168,455.252z"/>
		<path fill-rule="evenodd" clip-rule="evenodd" fill="#C89658" d="M368.703,457.865c-0.107,1.494-0.328,2.936-0.932,3.965
			C368.07,460.512,368.236,459.018,368.703,457.865z"/>
		<path fill-rule="evenodd" clip-rule="evenodd" fill="#C89658" d="M361.895,467.258c1.92-1.211,4.117-2.143,5.406-3.996
			C366.34,465.43,364.021,466.229,361.895,467.258z"/>
		<path fill-rule="evenodd" clip-rule="evenodd" fill="#C89658" d="M348.721,473.822c4.217-2.279,8.555-4.463,12.938-6.564
			C357.525,469.605,353.211,471.803,348.721,473.822z"/>
		<path fill-rule="evenodd" clip-rule="evenodd" fill="#C89658" d="M345.658,475.236c0.822-0.617,1.76-1.057,2.828-1.414
			C347.691,474.412,346.73,474.906,345.658,475.236z"/>
		<path fill-rule="evenodd" clip-rule="evenodd" fill="#C89658" d="M341.912,476.871c0.945-0.756,2.289-1.143,3.529-1.635
			C344.477,475.99,343.133,476.406,341.912,476.871z"/>
		<path fill-rule="evenodd" clip-rule="evenodd" fill="#C89658" d="M339.094,478.053c0.633-0.617,1.662-0.854,2.584-1.182
			C341.029,477.488,340,477.721,339.094,478.053z"/>
		<path fill-rule="evenodd" clip-rule="evenodd" fill="#C89658" d="M334.396,479.947c1.289-0.826,2.941-1.291,4.451-1.895
			C337.613,478.93,335.965,479.396,334.396,479.947z"/>
		<path fill-rule="evenodd" clip-rule="evenodd" fill="#C89658" d="M328.039,482.295c1.838-0.986,4.039-1.605,6.113-2.348
			C332.354,480.977,330.166,481.594,328.039,482.295z"/>
		<path fill-rule="evenodd" clip-rule="evenodd" fill="#C89658" d="M318.877,485.344c2.803-1.193,5.922-2.072,8.926-3.049
			C325.088,483.588,321.984,484.465,318.877,485.344z"/>
		<path fill-rule="evenodd" clip-rule="evenodd" fill="#A1703B" d="M318.877,485.344c-2.609,0.936-5.285,1.785-8.236,2.35
			c-0.854,0.148-1.789,0.262-2.338,0.697c-5.74,1.57-11.564,3.051-17.879,3.998c-0.922,0.027-1.76,0.139-2.348,0.469
			c-0.068,0-0.152,0-0.236,0c-1.893,0.232-3.789,0.465-5.412,0.961c-4.695,1.029-10.094,1.334-15.049,2.113c-0.77,0-1.555,0-2.334,0
			c-0.717,0.152-2.035-0.314-2.363,0.234c-0.084,0-0.152,0-0.221,0c-0.877,0.152-2.363-0.316-2.828,0.232c-0.166,0-0.305,0-0.465,0
			c-1.113,0.152-2.83-0.314-3.531,0.234c-0.15,0-0.318,0-0.471,0c-3.566,0.029-7.096,0.098-10.336,0.467c-1.98,0-3.928,0-5.879,0
			c-3.156-0.369-6.619-0.438-10.107-0.467c-0.248,0-0.48,0-0.715,0c-0.633-0.549-2.254-0.082-3.295-0.234c-0.152,0-0.305,0-0.469,0
			c-0.398-0.549-1.783-0.08-2.58-0.232c-0.166,0-0.316,0-0.469,0c-0.328-0.549-1.646-0.082-2.359-0.234c-0.07,0-0.139,0-0.221,0
			c-0.332-0.549-1.648-0.109-2.363-0.23c-2.295-0.057-4.395-0.318-6.344-0.73c-0.881-0.355-2.047-0.439-3.297-0.467
			c-1.277,0.055-2.336-0.15-3.297-0.453c-0.713-0.369-1.73-0.469-2.801-0.469c-0.082,0-0.164,0-0.248,0
			c-0.576-0.367-1.426-0.465-2.348-0.465c-1.141,0.029-2.006-0.205-2.814-0.465c-0.922-0.441-2.115-0.564-3.297-0.73
			c-4.807-0.672-9.064-1.881-13.404-3.047c-0.551-0.455-1.484-0.564-2.334-0.715c-1.922-0.262-3.516-0.852-5.191-1.4
			c-0.785-0.467-1.73-0.77-2.803-0.947c-0.412,0.025-0.742-0.029-0.947-0.234c-1.881-0.879-4.051-1.457-6.111-2.129
			c-0.412,0.027-0.742-0.041-0.934-0.205c-1.441-0.854-3.24-1.334-4.943-1.883c-0.084,0-0.166,0-0.248,0
			c-1.141-0.74-2.555-1.209-3.984-1.646c-0.08,0-0.164,0-0.246,0c-1-0.813-2.471-1.143-3.764-1.662
			c-0.904,0.055-1.207-0.51-1.867-0.686c-1.125-0.84-2.623-1.293-4.01-1.898c-0.068,0-0.137,0-0.219,0
			c-0.811-0.588-1.76-1.084-2.83-1.414c-0.082,0-0.164,0-0.234,0c-3.145-1.867-6.631-3.377-10.107-4.93c-0.08,0-0.152,0-0.232,0
			c-2.199-1.166-3.119-3.627-4.01-6.098c-0.332-0.854-0.66-1.676-0.688-2.844c-0.494-2.17-0.934-4.393-1.648-6.33
			c0-0.082,0-0.18,0-0.234c-0.082-1.111-0.303-2.059-0.715-2.842c-0.934-3.764-1.922-7.457-2.58-11.51
			c-0.084-1.1-0.305-2.045-0.717-2.83c-0.918-3.76-1.92-7.457-2.58-11.506c-0.08-1.1-0.301-2.049-0.701-2.83c0-0.082,0-0.15,0-0.234
			c-0.08-1.082-0.301-2.047-0.699-2.813c-0.936-3.781-1.924-7.473-2.582-11.512c-0.084-1.098-0.303-2.059-0.715-2.828
			c-0.918-3.777-1.924-7.471-2.58-11.523c-0.084-1.086-0.305-2.047-0.717-2.816c-0.918-3.789-1.92-7.482-2.58-11.52
			c-0.084-1.086-0.301-2.049-0.701-2.816c-0.92-3.791-1.936-7.471-2.596-11.523c-0.084-1.098-0.301-2.045-0.701-2.813
			c-0.244-0.688-0.533-1.363-0.451-2.363c-0.098,0-0.166,0-0.25,0c0-0.152,0-0.305,0-0.469c3.256,0.963,6.018,2.443,9.162,3.529
			c8.063,32.934,15.092,66.896,23.279,99.666c4.613,1.838,8.596,4.27,13.154,6.123c-4.779-33.289-10.848-66.578-15.27-99.443
			c2.363,0.303,4.395,0.92,6.578,1.416c5.398,33.619,10.67,67.375,15.998,101.076c10.822,4.672,22.578,8.447,35.24,11.291
			c-1.906-35.16-4.285-71.084-5.863-105.791c0.467,0,0.947,0,1.414,0c1.705-0.15,2.955,0.182,4.449,0.234
			c0.084,0.328,0.521,0.275,0.717,0.467c1.922,35.623,3.871,71.195,6.123,106.506c11.098,2.51,24.336,4.16,36.889,4.445
			c1.018-36.502,1.922-73.141,3.063-109.535c2.127,0.15,4.848-0.318,6.578,0.232c-1.098,36.449-1.98,73.09-3.049,109.566
			c21.123,0.59,41.174-1.949,58.531-5.891c1.99-33.512,3.928-68.627,5.643-102.027c0.1-1.979-0.273-4.479,1.168-6.098
			c1.936-0.193,3.682-0.578,5.662-0.715c-1.35,35.336-3.873,71.51-5.662,107.178c14.314-3.381,27.359-8.049,39.496-13.639
			c4.521-34.32,8.85-68.885,13.654-102.947c2.141-0.521,4.039-1.275,6.344-1.646c-3.531,33.537-8.693,67.473-12.938,101.08
			c3.873-1.363,6.951-3.529,10.578-5.168c6.23-33.963,12.441-67.965,19.031-101.557c2.994-0.934,6.195-2.885,8.957-3.283
			c0,0.07,0,0.152,0,0.234c-0.428,0.77-0.305,2.061-0.717,2.816c-0.357,0.588-0.465,1.41-0.465,2.348
			c0.029,0.576,0.029,1.139-0.246,1.414c-0.357,0.59-0.441,1.43-0.471,2.348c-0.092,1.469-0.328,2.816-0.711,3.998
			c-0.342,0.588-0.441,1.428-0.471,2.348c0.045,0.576,0.059,1.125-0.215,1.412c-0.373,0.594-0.471,1.432-0.48,2.35
			c0.039,0.578,0.039,1.127-0.236,1.43c-0.357,0.563-0.455,1.412-0.465,2.334c0.025,0.592,0.025,1.127-0.25,1.402
			c-0.357,0.604-0.436,1.441-0.465,2.361c0.029,0.576,0.039,1.125-0.221,1.398c-0.359,0.594-0.467,1.432-0.467,2.363
			c0.025,0.578,0.025,1.127-0.25,1.402c-0.354,0.59-0.451,1.426-0.465,2.363c0,0.068,0,0.137,0,0.232
			c-0.359,0.576-0.451,1.428-0.467,2.348c0.029,0.576,0.029,1.125-0.244,1.4c-0.357,0.592-0.441,1.428-0.471,2.361
			c0.029,0.58,0.043,1.141-0.246,1.402c-0.342,0.59-0.441,1.428-0.455,2.363c0.014,0.574,0.043,1.125-0.23,1.4
			c-0.357,0.59-0.467,1.428-0.467,2.359c0.025,0.578,0.025,1.129-0.25,1.402c-0.357,0.592-0.439,1.428-0.465,2.363
			c0.025,0.576,0.025,1.125-0.234,1.4c-0.359,0.574-0.451,1.428-0.467,2.35c0,0.094,0,0.162,0,0.23
			c-0.357,0.605-0.451,1.432-0.48,2.363c0.029,0.578,0.039,1.127-0.221,1.402c-0.373,0.576-0.465,1.426-0.48,2.361
			c0.039,0.576,0.039,1.125-0.234,1.4c-0.354,0.576-0.467,1.43-0.467,2.348c0.029,0.592,0.029,1.141-0.23,1.414
			c-0.371,0.592-0.455,1.43-0.48,2.363c0.025,0.576,0.055,1.141-0.234,1.402c-0.344,0.588-0.457,1.412-0.457,2.348
			c0.016,0.59,0.029,1.139-0.244,1.412c-0.357,0.578-0.451,1.432-0.467,2.363c0,0.068,0,0.137,0,0.221
			c-0.357,0.604-0.465,1.426-0.465,2.363c0.025,0.563,0.025,1.125-0.25,1.414c-0.357,0.561-0.441,1.414-0.465,2.32
			c0.023,0.604,0.039,1.139-0.236,1.428c-0.344,0.592-0.451,1.416-0.48,2.348c0.045,0.594,0.055,1.143-0.221,1.416
			c-0.357,0.59-0.465,1.428-0.465,2.35c0.029,0.576,0.029,1.139-0.246,1.398c-0.357,0.592-0.441,1.443-0.471,2.352
			c-0.107,1.467-0.328,2.813-0.695,4.01c-0.373,0.588-0.457,1.412-0.486,2.348c0,0.068,0,0.15,0,0.23
			c-0.342,0.594-0.436,1.443-0.465,2.352c0,0.068,0,0.148,0,0.262c-0.467,1.152-0.633,2.646-0.932,3.965
			c0.107,0.756-0.334,0.938-0.471,1.432c-1.289,1.854-3.486,2.785-5.406,3.996c-0.084,0-0.168,0-0.236,0
			c-4.383,2.102-8.721,4.285-12.938,6.564c-0.068,0-0.15,0-0.234,0c-1.068,0.357-2.006,0.797-2.828,1.414c-0.07,0-0.139,0-0.217,0
			c-1.24,0.492-2.584,0.879-3.529,1.635c-0.068,0-0.152,0-0.234,0c-0.922,0.328-1.951,0.564-2.584,1.182c-0.084,0-0.162,0-0.246,0
			c-1.51,0.604-3.162,1.068-4.451,1.895c-0.082,0-0.162,0-0.244,0c-2.074,0.742-4.275,1.361-6.113,2.348c-0.068,0-0.152,0-0.236,0
			C324.799,483.271,321.68,484.15,318.877,485.344z"/>
		<path fill-rule="evenodd" clip-rule="evenodd" fill="#C89658" d="M308.303,488.391c0.549-0.436,1.484-0.549,2.338-0.697
			C310.092,488.16,309.156,488.254,308.303,488.391z"/>
		<path fill-rule="evenodd" clip-rule="evenodd" fill="#C89658" d="M288.076,492.857c0.588-0.33,1.426-0.441,2.348-0.469
			C289.846,492.76,288.992,492.857,288.076,492.857z"/>
		<path fill-rule="evenodd" clip-rule="evenodd" fill="#C89658" d="M282.428,493.818c1.623-0.496,3.52-0.729,5.412-0.961
			C286.277,493.406,284.408,493.652,282.428,493.818z"/>
		<path fill-rule="evenodd" clip-rule="evenodd" fill="#C89658" d="M244.83,497.1c3.24-0.369,6.77-0.438,10.336-0.467
			c0,0.068,0,0.15,0,0.234c-0.16,0-0.313,0-0.48,0c-1.328,0.152-3.264-0.316-4.225,0.232C248.594,497.1,246.697,497.1,244.83,497.1z
			"/>
		<path fill-rule="evenodd" clip-rule="evenodd" fill="#C89658" d="M228.844,496.867c0-0.084,0-0.166,0-0.234
			c3.488,0.029,6.951,0.098,10.107,0.467c-1.814,0-3.613,0-5.412,0c-0.863-0.549-2.746-0.08-4.008-0.232
			C229.311,496.867,229.076,496.867,228.844,496.867z"/>
		<path fill-rule="evenodd" clip-rule="evenodd" fill="#C89658" d="M210.029,494.971c-1.238,0-2.404-0.094-3.297-0.467
			C207.982,494.531,209.148,494.615,210.029,494.971z"/>
		<path fill-rule="evenodd" clip-rule="evenodd" fill="#C89658" d="M203.436,494.051c-1.07-0.027-2.074-0.109-2.801-0.469
			C201.705,493.582,202.723,493.682,203.436,494.051z"/>
		<path fill-rule="evenodd" clip-rule="evenodd" fill="#C89658" d="M200.387,493.582c-0.92-0.023-1.758-0.137-2.348-0.465
			C198.961,493.117,199.811,493.215,200.387,493.582z"/>
		<path fill-rule="evenodd" clip-rule="evenodd" fill="#C89658" d="M195.225,492.652c-1.266-0.084-2.416-0.264-3.297-0.73
			C193.109,492.088,194.303,492.211,195.225,492.652z"/>
		<path fill-rule="evenodd" clip-rule="evenodd" fill="#C89658" d="M178.523,488.875c-0.852-0.152-1.785-0.221-2.334-0.715
			C177.039,488.311,177.973,488.42,178.523,488.875z"/>
		<path fill-rule="evenodd" clip-rule="evenodd" fill="#C89658" d="M170.998,486.76c-1.072-0.18-2.02-0.48-2.803-0.947
			C169.268,485.99,170.213,486.293,170.998,486.76z"/>
		<path fill-rule="evenodd" clip-rule="evenodd" fill="#C89658" d="M167.248,485.578c-2.17-0.578-4.324-1.141-6.111-2.129
			C163.197,484.121,165.367,484.699,167.248,485.578z"/>
		<path fill-rule="evenodd" clip-rule="evenodd" fill="#C89658" d="M160.203,483.244c-1.73-0.564-3.529-1.059-4.943-1.883
			C156.963,481.91,158.762,482.391,160.203,483.244z"/>
		<path fill-rule="evenodd" clip-rule="evenodd" fill="#C89658" d="M155.012,481.361c-1.414-0.465-2.844-0.934-3.984-1.646
			C152.457,480.152,153.871,480.621,155.012,481.361z"/>
		<path fill-rule="evenodd" clip-rule="evenodd" fill="#C89658" d="M150.781,479.715c-1.289-0.525-2.746-0.854-3.764-1.662
			C148.311,478.572,149.781,478.902,150.781,479.715z"/>
		<path fill-rule="evenodd" clip-rule="evenodd" fill="#C89658" d="M145.15,477.367c-1.4-0.58-2.885-1.045-4.01-1.898
			C142.527,476.074,144.025,476.527,145.15,477.367z"/>
		<path fill-rule="evenodd" clip-rule="evenodd" fill="#C89658" d="M140.922,475.469c-1.072-0.328-2.02-0.793-2.83-1.414
			C139.162,474.385,140.111,474.881,140.922,475.469z"/>
		<path fill-rule="evenodd" clip-rule="evenodd" fill="#C89658" d="M137.857,474.055c-3.406-1.605-6.906-3.131-10.107-4.93
			C131.227,470.678,134.713,472.188,137.857,474.055z"/>
		<path fill-rule="evenodd" clip-rule="evenodd" fill="#C89658" d="M127.518,469.125c-2.391-0.99-3.461-3.283-4.01-6.098
			C124.398,465.498,125.318,467.959,127.518,469.125z"/>
		<path fill-rule="evenodd" clip-rule="evenodd" fill="#C89658" d="M122.82,460.184c-0.797-1.867-1.25-4.078-1.648-6.33
			C121.887,455.791,122.326,458.014,122.82,460.184z"/>
		<path fill-rule="evenodd" clip-rule="evenodd" fill="#C89658" d="M121.172,453.619c-0.412-0.77-0.631-1.73-0.715-2.842
			C120.869,451.561,121.09,452.508,121.172,453.619z"/>
		<path fill-rule="evenodd" clip-rule="evenodd" fill="#C89658" d="M117.877,439.268c-0.412-0.756-0.633-1.703-0.717-2.83
			C117.572,437.223,117.793,438.168,117.877,439.268z"/>
		<path fill-rule="evenodd" clip-rule="evenodd" fill="#C89658" d="M114.58,424.932c-0.385-0.785-0.605-1.73-0.701-2.83
			C114.279,422.883,114.5,423.832,114.58,424.932z"/>
		<path fill-rule="evenodd" clip-rule="evenodd" fill="#C89658" d="M113.879,421.867c-0.396-0.754-0.617-1.715-0.699-2.813
			C113.578,419.82,113.799,420.785,113.879,421.867z"/>
		<path fill-rule="evenodd" clip-rule="evenodd" fill="#C89658" d="M110.598,407.543c-0.412-0.783-0.633-1.73-0.715-2.828
			C110.295,405.484,110.514,406.445,110.598,407.543z"/>
		<path fill-rule="evenodd" clip-rule="evenodd" fill="#C89658" d="M107.303,393.191c-0.414-0.781-0.633-1.73-0.717-2.816
			C106.998,391.145,107.219,392.105,107.303,393.191z"/>
		<path fill-rule="evenodd" clip-rule="evenodd" fill="#C89658" d="M104.006,378.855c-0.412-0.785-0.621-1.73-0.701-2.816
			C103.705,376.807,103.922,377.77,104.006,378.855z"/>
		<path fill-rule="evenodd" clip-rule="evenodd" fill="#C89658" d="M100.709,364.516c-0.385-0.77-0.604-1.744-0.701-2.813
			C100.408,362.471,100.625,363.418,100.709,364.516z"/>
		<path fill-rule="evenodd" clip-rule="evenodd" fill="#E3EAB1" d="M216.621,495.932c0.686,0,1.398,0,2.115,0
			c0.082,0,0.15,0,0.221,0c0,0.082,0,0.152,0,0.234C218.24,496.014,216.938,496.469,216.621,495.932z"/>
		<path fill-rule="evenodd" clip-rule="evenodd" fill="#E3EAB1" d="M265.045,495.932c0.779,0,1.564,0,2.334,0
			c-0.318,0.537-1.623,0.082-2.334,0.234C265.045,496.084,265.045,496.014,265.045,495.932z"/>
		<path fill-rule="evenodd" clip-rule="evenodd" fill="#E3EAB1" d="M219.201,496.166c0.688,0,1.402,0,2.115,0
			c0.152,0,0.303,0,0.469,0c0,0.068,0,0.152,0,0.232C220.988,496.234,219.602,496.676,219.201,496.166z"/>
		<path fill-rule="evenodd" clip-rule="evenodd" fill="#E3EAB1" d="M262.682,496.166c0.711,0,1.402,0,2.113,0
			c-0.328,0.51-1.633,0.068-2.334,0.232c0-0.08,0-0.164,0-0.232C262.529,496.166,262.598,496.166,262.682,496.166z"/>
		<path fill-rule="evenodd" clip-rule="evenodd" fill="#E3EAB1" d="M222.018,496.398c0.781,0,1.578,0,2.348,0
			c0.164,0,0.316,0,0.469,0c0,0.07,0,0.152,0,0.234C223.967,496.469,222.498,496.936,222.018,496.398z"/>
		<path fill-rule="evenodd" clip-rule="evenodd" fill="#E3EAB1" d="M259.633,496.398c0.77,0,1.564,0,2.348,0
			c-0.48,0.537-1.951,0.07-2.813,0.234c0-0.082,0-0.164,0-0.234C259.328,496.398,259.467,496.398,259.633,496.398z"/>
		<path fill-rule="evenodd" clip-rule="evenodd" fill="#E3EAB1" d="M225.314,496.633c0.934,0,1.881,0,2.814,0
			c0.234,0,0.467,0,0.715,0c0,0.068,0,0.15,0,0.234C227.744,496.701,226.016,497.168,225.314,496.633z"/>
		<path fill-rule="evenodd" clip-rule="evenodd" fill="#E3EAB1" d="M229.531,496.867c1.262,0.152,3.145-0.316,4.008,0.232
			c-1.332,0-2.662,0-4.008,0C229.531,497.02,229.531,496.936,229.531,496.867z"/>
		<path fill-rule="evenodd" clip-rule="evenodd" fill="#DE9597" d="M258.545,2.912c0.205-0.055,0.221,0.082,0.234,0.234
			c-3.309,6.838-7.318,12.029-7.994,20.697c-1.191,15.643,9.49,23.236,19.75,28.893c21.232,11.744,46.145,17.279,59.479,37.631
			c4.422,6.73,8.051,16.412,8.697,27.729c0.215,3.777,0.863,9.105-0.234,11.768c-0.662,1.57-5.412,4.012-7.996,5.633
			c-8.555,5.355-17.025,10.479-26.34,14.584c-13.113,5.771-27.355,9.506-42.547,11.977c-32.162,5.246-68.982,3.488-102.012,7.061
			c-0.658-5.633-1.207-8.363-1.178-13.174c0.217-31.736,22.988-43.645,45.375-54.301c11.424-5.451,28.564-11.139,31.256-25.145
			c1.432-7.443-0.84-15.932-2.582-23.281c-2.498-10.477-6.33-22.207-1.881-32.203C235.064,10.934,247.545,6.293,258.545,2.912z"/>
		<path fill-rule="evenodd" clip-rule="evenodd" fill="#DE9597" d="M97.988,247.631c-7.127-29.432,7.486-50.197,27.975-58.053
			c21.699-8.348,51.145-8.527,79.93-9.887c29.104-1.373,56.967-2.982,80.395-9.395c23.951-6.563,42.736-17.607,60.881-29.855
			c7.637,0.164,14.049,1.275,18.814,4.447c5.727,3.846,10.727,12.061,12.457,19.531c1.51,6.51-2.418,14.336-5.643,19.502
			c-8.697,13.926-21.635,24.445-35.502,33.152c-18.992,11.918-42.205,19.678-68.887,22.563c-14.438,1.566-29.295,1.225-44.193,0.701
			C181.709,238.883,130.262,234.131,97.988,247.631z"/>
		<path fill-rule="evenodd" clip-rule="evenodd" fill="#E3EAB1" d="M255.637,496.633c1.016,0,2.045,0,3.061,0
			c-0.711,0.535-2.428,0.068-3.531,0.234c0-0.084,0-0.166,0-0.234C255.318,496.633,255.486,496.633,255.637,496.633z"/>
		<path fill-rule="evenodd" clip-rule="evenodd" fill="#E3EAB1" d="M250.461,497.1c0.961-0.549,2.896-0.08,4.225-0.232
			c0,0.068,0,0.152,0,0.232C253.289,497.1,251.873,497.1,250.461,497.1z"/>
	</g>
	<path fill-rule="evenodd" clip-rule="evenodd" fill="#8BBE6B" d="M281.115,325.855c0,15.762-12.781,28.537-28.541,28.537
		c-15.762,0-28.541-12.775-28.541-28.537c0-15.764,12.779-28.541,28.541-28.541C268.334,297.314,281.115,310.092,281.115,325.855z"
		/>
	<circle fill-rule="evenodd" clip-rule="evenodd" fill="#8BBE6B" cx="268.491" cy="114.549" r="28.54"/>
	<path fill-rule="evenodd" clip-rule="evenodd" fill="#8BBE6B" d="M211.85,209.043c0,10.092-8.182,18.27-18.273,18.27
		s-18.273-8.178-18.273-18.27c0-10.094,8.182-18.275,18.273-18.275S211.85,198.949,211.85,209.043z"/>
	<path fill-rule="evenodd" clip-rule="evenodd" fill="#8BBE6B" d="M179.322,299.461c0,15.764-12.781,28.539-28.541,28.539
		c-15.764,0-28.541-12.775-28.541-28.539s12.777-28.541,28.541-28.541C166.541,270.92,179.322,283.697,179.322,299.461z"/>
	<path fill-rule="evenodd" clip-rule="evenodd" fill="#8BBE6B" d="M370.582,267.016c0,10.49-8.508,18.992-18.996,18.992
		c-10.49,0-18.992-8.502-18.992-18.992c0-10.494,8.502-18.998,18.992-18.998C362.074,248.018,370.582,256.521,370.582,267.016z"/>
</g>
</svg>
