<?xml version="1.0" encoding="utf-8"?>
<!-- Generator: Adobe Illustrator 16.0.0, SVG Export Plug-In . SVG Version: 6.00 Build 0)  -->
<!DOCTYPE svg PUBLIC "-//W3C//DTD SVG 1.1 Basic//EN" "http://www.w3.org/Graphics/SVG/1.1/DTD/svg11-basic.dtd">
<svg version="1.1" baseProfile="basic" id="Capa_1" xmlns="http://www.w3.org/2000/svg" xmlns:xlink="http://www.w3.org/1999/xlink"
	 x="0px" y="0px" width="500px" height="500px" viewBox="0 0 500 500" xml:space="preserve">
<g>
	<path fill-rule="evenodd" clip-rule="evenodd" fill="#8BBE6B" d="M501.418,319.182c0,22.713-18.439,41.145-41.152,41.145H39.727
		c-22.721,0-41.145-18.432-41.145-41.145V180.818c0-22.727,18.424-41.145,41.145-41.145h420.539
		c22.713,0,41.152,18.418,41.152,41.145V319.182z"/>
	<g>
		<g>
			<g>
				<path fill="#D7E6C4" d="M235.301,278.207c-0.822-1.348-19.953-33.459-6.797-57.67c8.23-15.135,26.748-23.246,55.053-24.104
					l0.346,11.348c-23.965,0.73-39.234,6.834-45.408,18.148c-10.063,18.469,6.35,46.127,6.52,46.398L235.301,278.207z"/>
			</g>
			<polygon fill="#D7E6C4" points="282.65,184.41 285.5,221.135 317.303,198.867 			"/>
		</g>
		<g>
			<g>
				<path fill="#D7E6C4" d="M279.74,231.309c0.816,1.352,19.949,33.461,6.791,57.67c-8.229,15.139-26.748,23.242-55.051,24.104
					l-0.342-11.344c23.959-0.73,39.23-6.838,45.404-18.152c10.063-18.469-6.352-46.123-6.52-46.402L279.74,231.309z"/>
			</g>
			<polygon fill="#D7E6C4" points="232.387,325.105 229.537,288.381 197.732,310.652 			"/>
		</g>
	</g>
</g>
</svg>
