<?xml version="1.0" encoding="utf-8"?>
<!-- Generator: Adobe Illustrator 16.0.0, SVG Export Plug-In . SVG Version: 6.00 Build 0)  -->
<!DOCTYPE svg PUBLIC "-//W3C//DTD SVG 1.1//EN" "http://www.w3.org/Graphics/SVG/1.1/DTD/svg11.dtd">
<svg version="1.1" id="Capa_1" xmlns="http://www.w3.org/2000/svg" xmlns:xlink="http://www.w3.org/1999/xlink" x="0px" y="0px"
	 width="500px" height="500px" viewBox="0 0 500 500" enable-background="new 0 0 500 500" xml:space="preserve">
<g>
	<circle fill-rule="evenodd" clip-rule="evenodd" fill="#8BBE6B" cx="359.77" cy="250" r="134.586"/>
	<g>
		<path fill-rule="evenodd" clip-rule="evenodd" fill="#EDCACA" d="M351.252,279.154c0,0-76.498-4.496-42.912-62.34
			c33.582-57.844-41.051-3.73-41.051,48.514c0,52.246,18.66,54.111,41.984,44.783c23.32-9.33,43.844-43.559,41.979,4.344
			c-1.865,47.9-5.598,85.219,26.123,23.645c31.721-61.576,7.465-61.576,55.979-70.906s55.979-29.855,9.33-55.975
			c-46.648-26.123-22.992-6.738-22.393,25.908c0.602,32.65-27.988,7.254-35.451,0c-7.465-7.252-11.197-32.305,13.061-63.629
			c24.258-31.32-24.867-28.387-38.557,0C345.654,201.889,382.973,274.322,351.252,279.154z"/>
		<circle fill-rule="evenodd" clip-rule="evenodd" fill="#EDCACA" cx="332.17" cy="158.068" r="12.752"/>
		<path fill-rule="evenodd" clip-rule="evenodd" fill="#EDCACA" d="M461.229,302.656c0,7.045-5.711,12.754-12.756,12.754
			c-7.041,0-12.752-5.709-12.752-12.754c0-7.043,5.711-12.752,12.752-12.752C455.518,289.904,461.229,295.613,461.229,302.656z"/>
		<path fill-rule="evenodd" clip-rule="evenodd" fill="#EDCACA" d="M332.17,346.955c0,11.564-5.707,20.938-12.752,20.938
			s-12.752-9.373-12.752-20.938c0-11.559,5.707-20.932,12.752-20.932S332.17,335.396,332.17,346.955z"/>
	</g>
	<rect x="5.643" y="205.627" fill-rule="evenodd" clip-rule="evenodd" fill="#8BBE6B" width="242.402" height="110.15"/>
	<text transform="matrix(1 0 0 1 72.4482 273.4043)" fill="#EDCACA" font-family="'GillSansMT'" font-size="37.6921">Vainilla</text>
</g>
</svg>
