<?xml version="1.0" encoding="utf-8"?>
<!-- Generator: Adobe Illustrator 16.0.0, SVG Export Plug-In . SVG Version: 6.00 Build 0)  -->
<!DOCTYPE svg PUBLIC "-//W3C//DTD SVG 1.1//EN" "http://www.w3.org/Graphics/SVG/1.1/DTD/svg11.dtd">
<svg version="1.1" id="Capa_1" xmlns="http://www.w3.org/2000/svg" xmlns:xlink="http://www.w3.org/1999/xlink" x="0px" y="0px"
	 width="500px" height="500px" viewBox="0 0 500 500" enable-background="new 0 0 500 500" xml:space="preserve">
<g>
	<path fill-rule="evenodd" clip-rule="evenodd" fill="#8BBE6B" d="M273.57,250c0,74.314-60.244,134.557-134.555,134.557
		C64.699,384.557,4.457,324.314,4.457,250c0-74.313,60.242-134.555,134.559-134.555C213.326,115.445,273.57,175.688,273.57,250z"/>
	<g>
		<path fill-rule="evenodd" clip-rule="evenodd" fill="#CD3C3B" d="M130.498,271.338c0,0-76.484-4.496-42.906-62.326
			c33.578-57.828-41.041-3.729-41.041,48.504c0,52.234,18.656,54.1,41.975,44.771c23.316-9.328,43.838-43.549,41.973,4.344
			c-1.867,47.889-5.598,85.199,26.117,23.639c31.713-61.563,7.461-61.563,55.965-70.889c48.504-9.328,55.961-29.85,9.328-55.963
			c-46.639-26.117-22.988-6.736-22.387,25.902c0.6,32.643-27.982,7.254-35.445,0c-7.461-7.25-11.193-32.299,13.059-63.613
			s-24.863-28.381-38.547,0C124.9,194.09,162.211,266.508,130.498,271.338z"/>
		<path fill-rule="evenodd" clip-rule="evenodd" fill="#CD3C3B" d="M124.168,150.279c0,7.043-5.707,12.752-12.752,12.752
			c-7.041,0-12.748-5.709-12.748-12.752c0-7.041,5.707-12.748,12.748-12.748C118.461,137.531,124.168,143.238,124.168,150.279z"/>
		<circle fill-rule="evenodd" clip-rule="evenodd" fill="#CD3C3B" cx="227.696" cy="294.834" r="12.751"/>
		<ellipse fill-rule="evenodd" clip-rule="evenodd" fill="#CD3C3B" cx="98.669" cy="339.125" rx="12.751" ry="20.932"/>
	</g>
	<rect x="253.199" y="197.828" fill-rule="evenodd" clip-rule="evenodd" fill="#8BBE6B" width="242.344" height="110.123"/>
	<text transform="matrix(1 0 0 1 340.9756 260.6768)" fill="#CD3C3B" font-family="'GillSansMT'" font-size="37.6835">Fresa</text>
</g>
</svg>
